G04 #@! TF.GenerationSoftware,KiCad,Pcbnew,(5.1.6)-1*
G04 #@! TF.CreationDate,2021-04-21T10:38:01+02:00*
G04 #@! TF.ProjectId,LactateStat_v1,4c616374-6174-4655-9374-61745f76312e,rev?*
G04 #@! TF.SameCoordinates,Original*
G04 #@! TF.FileFunction,Legend,Top*
G04 #@! TF.FilePolarity,Positive*
%FSLAX46Y46*%
G04 Gerber Fmt 4.6, Leading zero omitted, Abs format (unit mm)*
G04 Created by KiCad (PCBNEW (5.1.6)-1) date 2021-04-21 10:38:01*
%MOMM*%
%LPD*%
G01*
G04 APERTURE LIST*
%ADD10C,0.150000*%
%ADD11C,0.160000*%
%ADD12C,0.180000*%
%ADD13C,0.100000*%
G04 APERTURE END LIST*
D10*
X144385714Y-96861904D02*
X144004761Y-96861904D01*
X144004761Y-96061904D01*
X144652380Y-96861904D02*
X144652380Y-96061904D01*
X144919047Y-96633333D01*
X145185714Y-96061904D01*
X145185714Y-96861904D01*
X145566666Y-96861904D02*
X145566666Y-96061904D01*
X145871428Y-96061904D01*
X145947619Y-96100000D01*
X145985714Y-96138095D01*
X146023809Y-96214285D01*
X146023809Y-96328571D01*
X145985714Y-96404761D01*
X145947619Y-96442857D01*
X145871428Y-96480952D01*
X145566666Y-96480952D01*
X146404761Y-96861904D02*
X146557142Y-96861904D01*
X146633333Y-96823809D01*
X146671428Y-96785714D01*
X146747619Y-96671428D01*
X146785714Y-96519047D01*
X146785714Y-96214285D01*
X146747619Y-96138095D01*
X146709523Y-96100000D01*
X146633333Y-96061904D01*
X146480952Y-96061904D01*
X146404761Y-96100000D01*
X146366666Y-96138095D01*
X146328571Y-96214285D01*
X146328571Y-96404761D01*
X146366666Y-96480952D01*
X146404761Y-96519047D01*
X146480952Y-96557142D01*
X146633333Y-96557142D01*
X146709523Y-96519047D01*
X146747619Y-96480952D01*
X146785714Y-96404761D01*
X147547619Y-96861904D02*
X147090476Y-96861904D01*
X147319047Y-96861904D02*
X147319047Y-96061904D01*
X147242857Y-96176190D01*
X147166666Y-96252380D01*
X147090476Y-96290476D01*
X148042857Y-96061904D02*
X148119047Y-96061904D01*
X148195238Y-96100000D01*
X148233333Y-96138095D01*
X148271428Y-96214285D01*
X148309523Y-96366666D01*
X148309523Y-96557142D01*
X148271428Y-96709523D01*
X148233333Y-96785714D01*
X148195238Y-96823809D01*
X148119047Y-96861904D01*
X148042857Y-96861904D01*
X147966666Y-96823809D01*
X147928571Y-96785714D01*
X147890476Y-96709523D01*
X147852380Y-96557142D01*
X147852380Y-96366666D01*
X147890476Y-96214285D01*
X147928571Y-96138095D01*
X147966666Y-96100000D01*
X148042857Y-96061904D01*
X148804761Y-96061904D02*
X148880952Y-96061904D01*
X148957142Y-96100000D01*
X148995238Y-96138095D01*
X149033333Y-96214285D01*
X149071428Y-96366666D01*
X149071428Y-96557142D01*
X149033333Y-96709523D01*
X148995238Y-96785714D01*
X148957142Y-96823809D01*
X148880952Y-96861904D01*
X148804761Y-96861904D01*
X148728571Y-96823809D01*
X148690476Y-96785714D01*
X148652380Y-96709523D01*
X148614285Y-96557142D01*
X148614285Y-96366666D01*
X148652380Y-96214285D01*
X148690476Y-96138095D01*
X148728571Y-96100000D01*
X148804761Y-96061904D01*
X149566666Y-96061904D02*
X149642857Y-96061904D01*
X149719047Y-96100000D01*
X149757142Y-96138095D01*
X149795238Y-96214285D01*
X149833333Y-96366666D01*
X149833333Y-96557142D01*
X149795238Y-96709523D01*
X149757142Y-96785714D01*
X149719047Y-96823809D01*
X149642857Y-96861904D01*
X149566666Y-96861904D01*
X149490476Y-96823809D01*
X149452380Y-96785714D01*
X149414285Y-96709523D01*
X149376190Y-96557142D01*
X149376190Y-96366666D01*
X149414285Y-96214285D01*
X149452380Y-96138095D01*
X149490476Y-96100000D01*
X149566666Y-96061904D01*
D11*
X140747619Y-82152380D02*
X139747619Y-82390476D01*
X140461904Y-82580952D01*
X139747619Y-82771428D01*
X140747619Y-83009523D01*
X140271428Y-83390476D02*
X140271428Y-83723809D01*
X139747619Y-83866666D02*
X139747619Y-83390476D01*
X140747619Y-83390476D01*
X140747619Y-83866666D01*
X139747619Y-85628571D02*
X140223809Y-85295238D01*
X139747619Y-85057142D02*
X140747619Y-85057142D01*
X140747619Y-85438095D01*
X140700000Y-85533333D01*
X140652380Y-85580952D01*
X140557142Y-85628571D01*
X140414285Y-85628571D01*
X140319047Y-85580952D01*
X140271428Y-85533333D01*
X140223809Y-85438095D01*
X140223809Y-85057142D01*
X140271428Y-86057142D02*
X140271428Y-86390476D01*
X139747619Y-86533333D02*
X139747619Y-86057142D01*
X140747619Y-86057142D01*
X140747619Y-86533333D01*
X139842857Y-88295238D02*
X139795238Y-88247619D01*
X139747619Y-88104761D01*
X139747619Y-88009523D01*
X139795238Y-87866666D01*
X139890476Y-87771428D01*
X139985714Y-87723809D01*
X140176190Y-87676190D01*
X140319047Y-87676190D01*
X140509523Y-87723809D01*
X140604761Y-87771428D01*
X140700000Y-87866666D01*
X140747619Y-88009523D01*
X140747619Y-88104761D01*
X140700000Y-88247619D01*
X140652380Y-88295238D01*
X140271428Y-88723809D02*
X140271428Y-89057142D01*
X139747619Y-89200000D02*
X139747619Y-88723809D01*
X140747619Y-88723809D01*
X140747619Y-89200000D01*
D12*
X140642857Y-106028571D02*
X140585714Y-106085714D01*
X140414285Y-106142857D01*
X140300000Y-106142857D01*
X140128571Y-106085714D01*
X140014285Y-105971428D01*
X139957142Y-105857142D01*
X139900000Y-105628571D01*
X139900000Y-105457142D01*
X139957142Y-105228571D01*
X140014285Y-105114285D01*
X140128571Y-105000000D01*
X140300000Y-104942857D01*
X140414285Y-104942857D01*
X140585714Y-105000000D01*
X140642857Y-105057142D01*
X141157142Y-106142857D02*
X141157142Y-104942857D01*
X141157142Y-105514285D02*
X141842857Y-105514285D01*
X141842857Y-106142857D02*
X141842857Y-104942857D01*
X143042857Y-105000000D02*
X142928571Y-104942857D01*
X142757142Y-104942857D01*
X142585714Y-105000000D01*
X142471428Y-105114285D01*
X142414285Y-105228571D01*
X142357142Y-105457142D01*
X142357142Y-105628571D01*
X142414285Y-105857142D01*
X142471428Y-105971428D01*
X142585714Y-106085714D01*
X142757142Y-106142857D01*
X142871428Y-106142857D01*
X143042857Y-106085714D01*
X143100000Y-106028571D01*
X143100000Y-105628571D01*
X142871428Y-105628571D01*
X139900000Y-103242857D02*
X139900000Y-102042857D01*
X140357142Y-102042857D01*
X140471428Y-102100000D01*
X140528571Y-102157142D01*
X140585714Y-102271428D01*
X140585714Y-102442857D01*
X140528571Y-102557142D01*
X140471428Y-102614285D01*
X140357142Y-102671428D01*
X139900000Y-102671428D01*
X140985714Y-102042857D02*
X141271428Y-103242857D01*
X141500000Y-102385714D01*
X141728571Y-103242857D01*
X142014285Y-102042857D01*
X143157142Y-103242857D02*
X142757142Y-102671428D01*
X142471428Y-103242857D02*
X142471428Y-102042857D01*
X142928571Y-102042857D01*
X143042857Y-102100000D01*
X143100000Y-102157142D01*
X143157142Y-102271428D01*
X143157142Y-102442857D01*
X143100000Y-102557142D01*
X143042857Y-102614285D01*
X142928571Y-102671428D01*
X142471428Y-102671428D01*
D10*
X160709523Y-93111904D02*
X160709523Y-92311904D01*
X160900000Y-92311904D01*
X161014285Y-92350000D01*
X161090476Y-92426190D01*
X161128571Y-92502380D01*
X161166666Y-92654761D01*
X161166666Y-92769047D01*
X161128571Y-92921428D01*
X161090476Y-92997619D01*
X161014285Y-93073809D01*
X160900000Y-93111904D01*
X160709523Y-93111904D01*
X161509523Y-92692857D02*
X161776190Y-92692857D01*
X161890476Y-93111904D02*
X161509523Y-93111904D01*
X161509523Y-92311904D01*
X161890476Y-92311904D01*
X162500000Y-92692857D02*
X162614285Y-92730952D01*
X162652380Y-92769047D01*
X162690476Y-92845238D01*
X162690476Y-92959523D01*
X162652380Y-93035714D01*
X162614285Y-93073809D01*
X162538095Y-93111904D01*
X162233333Y-93111904D01*
X162233333Y-92311904D01*
X162500000Y-92311904D01*
X162576190Y-92350000D01*
X162614285Y-92388095D01*
X162652380Y-92464285D01*
X162652380Y-92540476D01*
X162614285Y-92616666D01*
X162576190Y-92654761D01*
X162500000Y-92692857D01*
X162233333Y-92692857D01*
X163033333Y-92311904D02*
X163033333Y-92959523D01*
X163071428Y-93035714D01*
X163109523Y-93073809D01*
X163185714Y-93111904D01*
X163338095Y-93111904D01*
X163414285Y-93073809D01*
X163452380Y-93035714D01*
X163490476Y-92959523D01*
X163490476Y-92311904D01*
X164290476Y-92350000D02*
X164214285Y-92311904D01*
X164100000Y-92311904D01*
X163985714Y-92350000D01*
X163909523Y-92426190D01*
X163871428Y-92502380D01*
X163833333Y-92654761D01*
X163833333Y-92769047D01*
X163871428Y-92921428D01*
X163909523Y-92997619D01*
X163985714Y-93073809D01*
X164100000Y-93111904D01*
X164176190Y-93111904D01*
X164290476Y-93073809D01*
X164328571Y-93035714D01*
X164328571Y-92769047D01*
X164176190Y-92769047D01*
D12*
X161842857Y-105685714D02*
X162757142Y-105685714D01*
X161942857Y-101885714D02*
X162857142Y-101885714D01*
X162400000Y-102342857D02*
X162400000Y-101428571D01*
X158442857Y-107442857D02*
X158442857Y-107214285D01*
X158500000Y-107100000D01*
X158614285Y-106985714D01*
X158842857Y-106928571D01*
X159242857Y-106928571D01*
X159471428Y-106985714D01*
X159585714Y-107100000D01*
X159642857Y-107214285D01*
X159642857Y-107442857D01*
X159585714Y-107557142D01*
X159471428Y-107671428D01*
X159242857Y-107728571D01*
X158842857Y-107728571D01*
X158614285Y-107671428D01*
X158500000Y-107557142D01*
X158442857Y-107442857D01*
X159642857Y-106414285D02*
X158442857Y-106414285D01*
X159642857Y-105728571D01*
X158442857Y-105728571D01*
X151742857Y-101142857D02*
X151742857Y-100914285D01*
X151800000Y-100800000D01*
X151914285Y-100685714D01*
X152142857Y-100628571D01*
X152542857Y-100628571D01*
X152771428Y-100685714D01*
X152885714Y-100800000D01*
X152942857Y-100914285D01*
X152942857Y-101142857D01*
X152885714Y-101257142D01*
X152771428Y-101371428D01*
X152542857Y-101428571D01*
X152142857Y-101428571D01*
X151914285Y-101371428D01*
X151800000Y-101257142D01*
X151742857Y-101142857D01*
X152314285Y-99714285D02*
X152314285Y-100114285D01*
X152942857Y-100114285D02*
X151742857Y-100114285D01*
X151742857Y-99542857D01*
X152314285Y-98685714D02*
X152314285Y-99085714D01*
X152942857Y-99085714D02*
X151742857Y-99085714D01*
X151742857Y-98514285D01*
D10*
X148619047Y-99761904D02*
X149114285Y-99761904D01*
X148847619Y-100066666D01*
X148961904Y-100066666D01*
X149038095Y-100104761D01*
X149076190Y-100142857D01*
X149114285Y-100219047D01*
X149114285Y-100409523D01*
X149076190Y-100485714D01*
X149038095Y-100523809D01*
X148961904Y-100561904D01*
X148733333Y-100561904D01*
X148657142Y-100523809D01*
X148619047Y-100485714D01*
X149457142Y-100485714D02*
X149495238Y-100523809D01*
X149457142Y-100561904D01*
X149419047Y-100523809D01*
X149457142Y-100485714D01*
X149457142Y-100561904D01*
X149761904Y-99761904D02*
X150257142Y-99761904D01*
X149990476Y-100066666D01*
X150104761Y-100066666D01*
X150180952Y-100104761D01*
X150219047Y-100142857D01*
X150257142Y-100219047D01*
X150257142Y-100409523D01*
X150219047Y-100485714D01*
X150180952Y-100523809D01*
X150104761Y-100561904D01*
X149876190Y-100561904D01*
X149800000Y-100523809D01*
X149761904Y-100485714D01*
X150485714Y-99761904D02*
X150752380Y-100561904D01*
X151019047Y-99761904D01*
D13*
X145725000Y-102700000D02*
G75*
G03*
X145725000Y-102700000I-50000J0D01*
G01*
X143545000Y-105600000D02*
G75*
G03*
X143545000Y-105600000I-50000J0D01*
G01*
X150375279Y-85690000D02*
X150049721Y-85690000D01*
X150375279Y-86710000D02*
X150049721Y-86710000D01*
X152490000Y-84875279D02*
X152490000Y-84549721D01*
X153510000Y-84875279D02*
X153510000Y-84549721D01*
X164775279Y-83610000D02*
X164449721Y-83610000D01*
X164775279Y-82590000D02*
X164449721Y-82590000D01*
X151311001Y-86925000D02*
G75*
G03*
X151311001Y-86925000I-127000J0D01*
G01*
X151584001Y-92525000D02*
X151584001Y-93125000D01*
X151584001Y-93125000D02*
X152184001Y-93125000D01*
X157384001Y-93125000D02*
X157984001Y-93125000D01*
X157984001Y-93125000D02*
X157984001Y-92525000D01*
X157984001Y-87325000D02*
X157984001Y-86725000D01*
X157984001Y-86725000D02*
X157384001Y-86725000D01*
X152184001Y-86725000D02*
X151584001Y-86725000D01*
X151584001Y-86725000D02*
X151584001Y-87325000D01*
X147175000Y-86075000D02*
X147175000Y-87425000D01*
X145425000Y-86075000D02*
X145425000Y-87425000D01*
X162150000Y-83665000D02*
X159450000Y-83665000D01*
X162150000Y-85965000D02*
X162150000Y-83665000D01*
X154470000Y-96630000D02*
X154470000Y-95300000D01*
X155800000Y-96630000D02*
X154470000Y-96630000D01*
X157070000Y-96630000D02*
X157070000Y-93970000D01*
X157070000Y-93970000D02*
X164750000Y-93970000D01*
X157070000Y-96630000D02*
X164750000Y-96630000D01*
X164750000Y-96630000D02*
X164750000Y-93970000D01*
X172990000Y-104350000D02*
X172990000Y-105600000D01*
X163410000Y-104350000D02*
X163410000Y-105600000D01*
X172990000Y-109600000D02*
X172990000Y-108320000D01*
X163410000Y-109600000D02*
X172990000Y-109600000D01*
X163410000Y-108320000D02*
X163410000Y-109600000D01*
X160190000Y-102090000D02*
X161300000Y-102090000D01*
X160190000Y-102850000D02*
X160190000Y-102090000D01*
X161863471Y-103610000D02*
X162410000Y-103610000D01*
X160190000Y-103610000D02*
X160736529Y-103610000D01*
X162410000Y-103610000D02*
X162410000Y-104815000D01*
X160190000Y-103610000D02*
X160190000Y-104815000D01*
X161607530Y-104815000D02*
X162410000Y-104815000D01*
X160190000Y-104815000D02*
X160992470Y-104815000D01*
X143280000Y-99680000D02*
X141950000Y-99680000D01*
X143280000Y-98350000D02*
X143280000Y-99680000D01*
X143280000Y-97080000D02*
X140620000Y-97080000D01*
X140620000Y-97080000D02*
X140620000Y-91940000D01*
X143280000Y-97080000D02*
X143280000Y-91940000D01*
X143280000Y-91940000D02*
X140620000Y-91940000D01*
X154550000Y-98500000D02*
X158050000Y-98500000D01*
X154550000Y-107000000D02*
X154550000Y-98500000D01*
X158050000Y-107000000D02*
X154550000Y-107000000D01*
X158050000Y-98500000D02*
X158050000Y-107000000D01*
X161300000Y-100910000D02*
X163100000Y-100910000D01*
X163100000Y-97690000D02*
X160650000Y-97690000D01*
X149690000Y-102800000D02*
X149690000Y-105250000D01*
X152910000Y-104600000D02*
X152910000Y-102800000D01*
X144175000Y-95625000D02*
X148425000Y-95625000D01*
X144175000Y-95625000D02*
X144175000Y-95325000D01*
X148725000Y-95375000D02*
X148425000Y-95375000D01*
X148425000Y-95625000D02*
X148425000Y-95375000D01*
X144175000Y-91750000D02*
X144175000Y-91375000D01*
X144175000Y-91375000D02*
X148400000Y-91375000D01*
X148425000Y-91375000D02*
X148425000Y-91750000D01*
D10*
X143885714Y-84895238D02*
X143923809Y-84933333D01*
X143961904Y-85047619D01*
X143961904Y-85123809D01*
X143923809Y-85238095D01*
X143847619Y-85314285D01*
X143771428Y-85352380D01*
X143619047Y-85390476D01*
X143504761Y-85390476D01*
X143352380Y-85352380D01*
X143276190Y-85314285D01*
X143200000Y-85238095D01*
X143161904Y-85123809D01*
X143161904Y-85047619D01*
X143200000Y-84933333D01*
X143238095Y-84895238D01*
X143961904Y-84133333D02*
X143961904Y-84590476D01*
X143961904Y-84361904D02*
X143161904Y-84361904D01*
X143276190Y-84438095D01*
X143352380Y-84514285D01*
X143390476Y-84590476D01*
X143161904Y-83638095D02*
X143161904Y-83561904D01*
X143200000Y-83485714D01*
X143238095Y-83447619D01*
X143314285Y-83409523D01*
X143466666Y-83371428D01*
X143657142Y-83371428D01*
X143809523Y-83409523D01*
X143885714Y-83447619D01*
X143923809Y-83485714D01*
X143961904Y-83561904D01*
X143961904Y-83638095D01*
X143923809Y-83714285D01*
X143885714Y-83752380D01*
X143809523Y-83790476D01*
X143657142Y-83828571D01*
X143466666Y-83828571D01*
X143314285Y-83790476D01*
X143238095Y-83752380D01*
X143200000Y-83714285D01*
X143161904Y-83638095D01*
X143961904Y-82609523D02*
X143961904Y-83066666D01*
X143961904Y-82838095D02*
X143161904Y-82838095D01*
X143276190Y-82914285D01*
X143352380Y-82990476D01*
X143390476Y-83066666D01*
X143885714Y-88145238D02*
X143923809Y-88183333D01*
X143961904Y-88297619D01*
X143961904Y-88373809D01*
X143923809Y-88488095D01*
X143847619Y-88564285D01*
X143771428Y-88602380D01*
X143619047Y-88640476D01*
X143504761Y-88640476D01*
X143352380Y-88602380D01*
X143276190Y-88564285D01*
X143200000Y-88488095D01*
X143161904Y-88373809D01*
X143161904Y-88297619D01*
X143200000Y-88183333D01*
X143238095Y-88145238D01*
X143961904Y-87383333D02*
X143961904Y-87840476D01*
X143961904Y-87611904D02*
X143161904Y-87611904D01*
X143276190Y-87688095D01*
X143352380Y-87764285D01*
X143390476Y-87840476D01*
X143161904Y-86888095D02*
X143161904Y-86811904D01*
X143200000Y-86735714D01*
X143238095Y-86697619D01*
X143314285Y-86659523D01*
X143466666Y-86621428D01*
X143657142Y-86621428D01*
X143809523Y-86659523D01*
X143885714Y-86697619D01*
X143923809Y-86735714D01*
X143961904Y-86811904D01*
X143961904Y-86888095D01*
X143923809Y-86964285D01*
X143885714Y-87002380D01*
X143809523Y-87040476D01*
X143657142Y-87078571D01*
X143466666Y-87078571D01*
X143314285Y-87040476D01*
X143238095Y-87002380D01*
X143200000Y-86964285D01*
X143161904Y-86888095D01*
X143238095Y-86316666D02*
X143200000Y-86278571D01*
X143161904Y-86202380D01*
X143161904Y-86011904D01*
X143200000Y-85935714D01*
X143238095Y-85897619D01*
X143314285Y-85859523D01*
X143390476Y-85859523D01*
X143504761Y-85897619D01*
X143961904Y-86354761D01*
X143961904Y-85859523D01*
X148804761Y-89085714D02*
X148766666Y-89123809D01*
X148652380Y-89161904D01*
X148576190Y-89161904D01*
X148461904Y-89123809D01*
X148385714Y-89047619D01*
X148347619Y-88971428D01*
X148309523Y-88819047D01*
X148309523Y-88704761D01*
X148347619Y-88552380D01*
X148385714Y-88476190D01*
X148461904Y-88400000D01*
X148576190Y-88361904D01*
X148652380Y-88361904D01*
X148766666Y-88400000D01*
X148804761Y-88438095D01*
X149566666Y-89161904D02*
X149109523Y-89161904D01*
X149338095Y-89161904D02*
X149338095Y-88361904D01*
X149261904Y-88476190D01*
X149185714Y-88552380D01*
X149109523Y-88590476D01*
X150061904Y-88361904D02*
X150138095Y-88361904D01*
X150214285Y-88400000D01*
X150252380Y-88438095D01*
X150290476Y-88514285D01*
X150328571Y-88666666D01*
X150328571Y-88857142D01*
X150290476Y-89009523D01*
X150252380Y-89085714D01*
X150214285Y-89123809D01*
X150138095Y-89161904D01*
X150061904Y-89161904D01*
X149985714Y-89123809D01*
X149947619Y-89085714D01*
X149909523Y-89009523D01*
X149871428Y-88857142D01*
X149871428Y-88666666D01*
X149909523Y-88514285D01*
X149947619Y-88438095D01*
X149985714Y-88400000D01*
X150061904Y-88361904D01*
X150595238Y-88361904D02*
X151090476Y-88361904D01*
X150823809Y-88666666D01*
X150938095Y-88666666D01*
X151014285Y-88704761D01*
X151052380Y-88742857D01*
X151090476Y-88819047D01*
X151090476Y-89009523D01*
X151052380Y-89085714D01*
X151014285Y-89123809D01*
X150938095Y-89161904D01*
X150709523Y-89161904D01*
X150633333Y-89123809D01*
X150595238Y-89085714D01*
X151004761Y-95455714D02*
X150966666Y-95493809D01*
X150852380Y-95531904D01*
X150776190Y-95531904D01*
X150661904Y-95493809D01*
X150585714Y-95417619D01*
X150547619Y-95341428D01*
X150509523Y-95189047D01*
X150509523Y-95074761D01*
X150547619Y-94922380D01*
X150585714Y-94846190D01*
X150661904Y-94770000D01*
X150776190Y-94731904D01*
X150852380Y-94731904D01*
X150966666Y-94770000D01*
X151004761Y-94808095D01*
X151766666Y-95531904D02*
X151309523Y-95531904D01*
X151538095Y-95531904D02*
X151538095Y-94731904D01*
X151461904Y-94846190D01*
X151385714Y-94922380D01*
X151309523Y-94960476D01*
X152261904Y-94731904D02*
X152338095Y-94731904D01*
X152414285Y-94770000D01*
X152452380Y-94808095D01*
X152490476Y-94884285D01*
X152528571Y-95036666D01*
X152528571Y-95227142D01*
X152490476Y-95379523D01*
X152452380Y-95455714D01*
X152414285Y-95493809D01*
X152338095Y-95531904D01*
X152261904Y-95531904D01*
X152185714Y-95493809D01*
X152147619Y-95455714D01*
X152109523Y-95379523D01*
X152071428Y-95227142D01*
X152071428Y-95036666D01*
X152109523Y-94884285D01*
X152147619Y-94808095D01*
X152185714Y-94770000D01*
X152261904Y-94731904D01*
X153214285Y-94998571D02*
X153214285Y-95531904D01*
X153023809Y-94693809D02*
X152833333Y-95265238D01*
X153328571Y-95265238D01*
X149317261Y-85185714D02*
X149279166Y-85223809D01*
X149164880Y-85261904D01*
X149088690Y-85261904D01*
X148974404Y-85223809D01*
X148898214Y-85147619D01*
X148860119Y-85071428D01*
X148822023Y-84919047D01*
X148822023Y-84804761D01*
X148860119Y-84652380D01*
X148898214Y-84576190D01*
X148974404Y-84500000D01*
X149088690Y-84461904D01*
X149164880Y-84461904D01*
X149279166Y-84500000D01*
X149317261Y-84538095D01*
X150079166Y-85261904D02*
X149622023Y-85261904D01*
X149850595Y-85261904D02*
X149850595Y-84461904D01*
X149774404Y-84576190D01*
X149698214Y-84652380D01*
X149622023Y-84690476D01*
X150574404Y-84461904D02*
X150650595Y-84461904D01*
X150726785Y-84500000D01*
X150764880Y-84538095D01*
X150802976Y-84614285D01*
X150841071Y-84766666D01*
X150841071Y-84957142D01*
X150802976Y-85109523D01*
X150764880Y-85185714D01*
X150726785Y-85223809D01*
X150650595Y-85261904D01*
X150574404Y-85261904D01*
X150498214Y-85223809D01*
X150460119Y-85185714D01*
X150422023Y-85109523D01*
X150383928Y-84957142D01*
X150383928Y-84766666D01*
X150422023Y-84614285D01*
X150460119Y-84538095D01*
X150498214Y-84500000D01*
X150574404Y-84461904D01*
X151564880Y-84461904D02*
X151183928Y-84461904D01*
X151145833Y-84842857D01*
X151183928Y-84804761D01*
X151260119Y-84766666D01*
X151450595Y-84766666D01*
X151526785Y-84804761D01*
X151564880Y-84842857D01*
X151602976Y-84919047D01*
X151602976Y-85109523D01*
X151564880Y-85185714D01*
X151526785Y-85223809D01*
X151450595Y-85261904D01*
X151260119Y-85261904D01*
X151183928Y-85223809D01*
X151145833Y-85185714D01*
X154585714Y-85607738D02*
X154623809Y-85645833D01*
X154661904Y-85760119D01*
X154661904Y-85836309D01*
X154623809Y-85950595D01*
X154547619Y-86026785D01*
X154471428Y-86064880D01*
X154319047Y-86102976D01*
X154204761Y-86102976D01*
X154052380Y-86064880D01*
X153976190Y-86026785D01*
X153900000Y-85950595D01*
X153861904Y-85836309D01*
X153861904Y-85760119D01*
X153900000Y-85645833D01*
X153938095Y-85607738D01*
X154661904Y-84845833D02*
X154661904Y-85302976D01*
X154661904Y-85074404D02*
X153861904Y-85074404D01*
X153976190Y-85150595D01*
X154052380Y-85226785D01*
X154090476Y-85302976D01*
X153861904Y-84350595D02*
X153861904Y-84274404D01*
X153900000Y-84198214D01*
X153938095Y-84160119D01*
X154014285Y-84122023D01*
X154166666Y-84083928D01*
X154357142Y-84083928D01*
X154509523Y-84122023D01*
X154585714Y-84160119D01*
X154623809Y-84198214D01*
X154661904Y-84274404D01*
X154661904Y-84350595D01*
X154623809Y-84426785D01*
X154585714Y-84464880D01*
X154509523Y-84502976D01*
X154357142Y-84541071D01*
X154166666Y-84541071D01*
X154014285Y-84502976D01*
X153938095Y-84464880D01*
X153900000Y-84426785D01*
X153861904Y-84350595D01*
X153861904Y-83398214D02*
X153861904Y-83550595D01*
X153900000Y-83626785D01*
X153938095Y-83664880D01*
X154052380Y-83741071D01*
X154204761Y-83779166D01*
X154509523Y-83779166D01*
X154585714Y-83741071D01*
X154623809Y-83702976D01*
X154661904Y-83626785D01*
X154661904Y-83474404D01*
X154623809Y-83398214D01*
X154585714Y-83360119D01*
X154509523Y-83322023D01*
X154319047Y-83322023D01*
X154242857Y-83360119D01*
X154204761Y-83398214D01*
X154166666Y-83474404D01*
X154166666Y-83626785D01*
X154204761Y-83702976D01*
X154242857Y-83741071D01*
X154319047Y-83779166D01*
X156915714Y-85710238D02*
X156953809Y-85748333D01*
X156991904Y-85862619D01*
X156991904Y-85938809D01*
X156953809Y-86053095D01*
X156877619Y-86129285D01*
X156801428Y-86167380D01*
X156649047Y-86205476D01*
X156534761Y-86205476D01*
X156382380Y-86167380D01*
X156306190Y-86129285D01*
X156230000Y-86053095D01*
X156191904Y-85938809D01*
X156191904Y-85862619D01*
X156230000Y-85748333D01*
X156268095Y-85710238D01*
X156991904Y-84948333D02*
X156991904Y-85405476D01*
X156991904Y-85176904D02*
X156191904Y-85176904D01*
X156306190Y-85253095D01*
X156382380Y-85329285D01*
X156420476Y-85405476D01*
X156191904Y-84453095D02*
X156191904Y-84376904D01*
X156230000Y-84300714D01*
X156268095Y-84262619D01*
X156344285Y-84224523D01*
X156496666Y-84186428D01*
X156687142Y-84186428D01*
X156839523Y-84224523D01*
X156915714Y-84262619D01*
X156953809Y-84300714D01*
X156991904Y-84376904D01*
X156991904Y-84453095D01*
X156953809Y-84529285D01*
X156915714Y-84567380D01*
X156839523Y-84605476D01*
X156687142Y-84643571D01*
X156496666Y-84643571D01*
X156344285Y-84605476D01*
X156268095Y-84567380D01*
X156230000Y-84529285D01*
X156191904Y-84453095D01*
X156191904Y-83919761D02*
X156191904Y-83386428D01*
X156991904Y-83729285D01*
X164185714Y-86395238D02*
X164223809Y-86433333D01*
X164261904Y-86547619D01*
X164261904Y-86623809D01*
X164223809Y-86738095D01*
X164147619Y-86814285D01*
X164071428Y-86852380D01*
X163919047Y-86890476D01*
X163804761Y-86890476D01*
X163652380Y-86852380D01*
X163576190Y-86814285D01*
X163500000Y-86738095D01*
X163461904Y-86623809D01*
X163461904Y-86547619D01*
X163500000Y-86433333D01*
X163538095Y-86395238D01*
X164261904Y-85633333D02*
X164261904Y-86090476D01*
X164261904Y-85861904D02*
X163461904Y-85861904D01*
X163576190Y-85938095D01*
X163652380Y-86014285D01*
X163690476Y-86090476D01*
X164261904Y-84871428D02*
X164261904Y-85328571D01*
X164261904Y-85100000D02*
X163461904Y-85100000D01*
X163576190Y-85176190D01*
X163652380Y-85252380D01*
X163690476Y-85328571D01*
X163461904Y-84604761D02*
X163461904Y-84109523D01*
X163766666Y-84376190D01*
X163766666Y-84261904D01*
X163804761Y-84185714D01*
X163842857Y-84147619D01*
X163919047Y-84109523D01*
X164109523Y-84109523D01*
X164185714Y-84147619D01*
X164223809Y-84185714D01*
X164261904Y-84261904D01*
X164261904Y-84490476D01*
X164223809Y-84566666D01*
X164185714Y-84604761D01*
X153487976Y-89386904D02*
X153487976Y-90034523D01*
X153526071Y-90110714D01*
X153564166Y-90148809D01*
X153640357Y-90186904D01*
X153792738Y-90186904D01*
X153868928Y-90148809D01*
X153907023Y-90110714D01*
X153945119Y-90034523D01*
X153945119Y-89386904D01*
X154745119Y-90186904D02*
X154287976Y-90186904D01*
X154516547Y-90186904D02*
X154516547Y-89386904D01*
X154440357Y-89501190D01*
X154364166Y-89577380D01*
X154287976Y-89615476D01*
X155240357Y-89386904D02*
X155316547Y-89386904D01*
X155392738Y-89425000D01*
X155430833Y-89463095D01*
X155468928Y-89539285D01*
X155507023Y-89691666D01*
X155507023Y-89882142D01*
X155468928Y-90034523D01*
X155430833Y-90110714D01*
X155392738Y-90148809D01*
X155316547Y-90186904D01*
X155240357Y-90186904D01*
X155164166Y-90148809D01*
X155126071Y-90110714D01*
X155087976Y-90034523D01*
X155049880Y-89882142D01*
X155049880Y-89691666D01*
X155087976Y-89539285D01*
X155126071Y-89463095D01*
X155164166Y-89425000D01*
X155240357Y-89386904D01*
X156268928Y-90186904D02*
X155811785Y-90186904D01*
X156040357Y-90186904D02*
X156040357Y-89386904D01*
X155964166Y-89501190D01*
X155887976Y-89577380D01*
X155811785Y-89615476D01*
X147561904Y-88109523D02*
X148361904Y-87576190D01*
X147561904Y-87576190D02*
X148361904Y-88109523D01*
X148361904Y-86852380D02*
X148361904Y-87309523D01*
X148361904Y-87080952D02*
X147561904Y-87080952D01*
X147676190Y-87157142D01*
X147752380Y-87233333D01*
X147790476Y-87309523D01*
X147561904Y-86357142D02*
X147561904Y-86280952D01*
X147600000Y-86204761D01*
X147638095Y-86166666D01*
X147714285Y-86128571D01*
X147866666Y-86090476D01*
X148057142Y-86090476D01*
X148209523Y-86128571D01*
X148285714Y-86166666D01*
X148323809Y-86204761D01*
X148361904Y-86280952D01*
X148361904Y-86357142D01*
X148323809Y-86433333D01*
X148285714Y-86471428D01*
X148209523Y-86509523D01*
X148057142Y-86547619D01*
X147866666Y-86547619D01*
X147714285Y-86509523D01*
X147638095Y-86471428D01*
X147600000Y-86433333D01*
X147561904Y-86357142D01*
X148361904Y-85328571D02*
X148361904Y-85785714D01*
X148361904Y-85557142D02*
X147561904Y-85557142D01*
X147676190Y-85633333D01*
X147752380Y-85709523D01*
X147790476Y-85785714D01*
X159390476Y-82561904D02*
X159923809Y-83361904D01*
X159923809Y-82561904D02*
X159390476Y-83361904D01*
X160647619Y-83361904D02*
X160190476Y-83361904D01*
X160419047Y-83361904D02*
X160419047Y-82561904D01*
X160342857Y-82676190D01*
X160266666Y-82752380D01*
X160190476Y-82790476D01*
X161142857Y-82561904D02*
X161219047Y-82561904D01*
X161295238Y-82600000D01*
X161333333Y-82638095D01*
X161371428Y-82714285D01*
X161409523Y-82866666D01*
X161409523Y-83057142D01*
X161371428Y-83209523D01*
X161333333Y-83285714D01*
X161295238Y-83323809D01*
X161219047Y-83361904D01*
X161142857Y-83361904D01*
X161066666Y-83323809D01*
X161028571Y-83285714D01*
X160990476Y-83209523D01*
X160952380Y-83057142D01*
X160952380Y-82866666D01*
X160990476Y-82714285D01*
X161028571Y-82638095D01*
X161066666Y-82600000D01*
X161142857Y-82561904D01*
X161714285Y-82638095D02*
X161752380Y-82600000D01*
X161828571Y-82561904D01*
X162019047Y-82561904D01*
X162095238Y-82600000D01*
X162133333Y-82638095D01*
X162171428Y-82714285D01*
X162171428Y-82790476D01*
X162133333Y-82904761D01*
X161676190Y-83361904D01*
X162171428Y-83361904D01*
X148954761Y-107585714D02*
X148916666Y-107623809D01*
X148802380Y-107661904D01*
X148726190Y-107661904D01*
X148611904Y-107623809D01*
X148535714Y-107547619D01*
X148497619Y-107471428D01*
X148459523Y-107319047D01*
X148459523Y-107204761D01*
X148497619Y-107052380D01*
X148535714Y-106976190D01*
X148611904Y-106900000D01*
X148726190Y-106861904D01*
X148802380Y-106861904D01*
X148916666Y-106900000D01*
X148954761Y-106938095D01*
X149259523Y-106938095D02*
X149297619Y-106900000D01*
X149373809Y-106861904D01*
X149564285Y-106861904D01*
X149640476Y-106900000D01*
X149678571Y-106938095D01*
X149716666Y-107014285D01*
X149716666Y-107090476D01*
X149678571Y-107204761D01*
X149221428Y-107661904D01*
X149716666Y-107661904D01*
X150211904Y-106861904D02*
X150288095Y-106861904D01*
X150364285Y-106900000D01*
X150402380Y-106938095D01*
X150440476Y-107014285D01*
X150478571Y-107166666D01*
X150478571Y-107357142D01*
X150440476Y-107509523D01*
X150402380Y-107585714D01*
X150364285Y-107623809D01*
X150288095Y-107661904D01*
X150211904Y-107661904D01*
X150135714Y-107623809D01*
X150097619Y-107585714D01*
X150059523Y-107509523D01*
X150021428Y-107357142D01*
X150021428Y-107166666D01*
X150059523Y-107014285D01*
X150097619Y-106938095D01*
X150135714Y-106900000D01*
X150211904Y-106861904D01*
X150745238Y-106861904D02*
X151240476Y-106861904D01*
X150973809Y-107166666D01*
X151088095Y-107166666D01*
X151164285Y-107204761D01*
X151202380Y-107242857D01*
X151240476Y-107319047D01*
X151240476Y-107509523D01*
X151202380Y-107585714D01*
X151164285Y-107623809D01*
X151088095Y-107661904D01*
X150859523Y-107661904D01*
X150783333Y-107623809D01*
X150745238Y-107585714D01*
X167171428Y-105261904D02*
X167171428Y-105833333D01*
X167133333Y-105947619D01*
X167057142Y-106023809D01*
X166942857Y-106061904D01*
X166866666Y-106061904D01*
X167514285Y-105338095D02*
X167552380Y-105300000D01*
X167628571Y-105261904D01*
X167819047Y-105261904D01*
X167895238Y-105300000D01*
X167933333Y-105338095D01*
X167971428Y-105414285D01*
X167971428Y-105490476D01*
X167933333Y-105604761D01*
X167476190Y-106061904D01*
X167971428Y-106061904D01*
X168466666Y-105261904D02*
X168542857Y-105261904D01*
X168619047Y-105300000D01*
X168657142Y-105338095D01*
X168695238Y-105414285D01*
X168733333Y-105566666D01*
X168733333Y-105757142D01*
X168695238Y-105909523D01*
X168657142Y-105985714D01*
X168619047Y-106023809D01*
X168542857Y-106061904D01*
X168466666Y-106061904D01*
X168390476Y-106023809D01*
X168352380Y-105985714D01*
X168314285Y-105909523D01*
X168276190Y-105757142D01*
X168276190Y-105566666D01*
X168314285Y-105414285D01*
X168352380Y-105338095D01*
X168390476Y-105300000D01*
X168466666Y-105261904D01*
X169495238Y-106061904D02*
X169038095Y-106061904D01*
X169266666Y-106061904D02*
X169266666Y-105261904D01*
X169190476Y-105376190D01*
X169114285Y-105452380D01*
X169038095Y-105490476D01*
X156623809Y-104578571D02*
X156661904Y-104464285D01*
X156661904Y-104273809D01*
X156623809Y-104197619D01*
X156585714Y-104159523D01*
X156509523Y-104121428D01*
X156433333Y-104121428D01*
X156357142Y-104159523D01*
X156319047Y-104197619D01*
X156280952Y-104273809D01*
X156242857Y-104426190D01*
X156204761Y-104502380D01*
X156166666Y-104540476D01*
X156090476Y-104578571D01*
X156014285Y-104578571D01*
X155938095Y-104540476D01*
X155900000Y-104502380D01*
X155861904Y-104426190D01*
X155861904Y-104235714D01*
X155900000Y-104121428D01*
X155861904Y-103854761D02*
X156661904Y-103664285D01*
X156090476Y-103511904D01*
X156661904Y-103359523D01*
X155861904Y-103169047D01*
X155938095Y-102902380D02*
X155900000Y-102864285D01*
X155861904Y-102788095D01*
X155861904Y-102597619D01*
X155900000Y-102521428D01*
X155938095Y-102483333D01*
X156014285Y-102445238D01*
X156090476Y-102445238D01*
X156204761Y-102483333D01*
X156661904Y-102940476D01*
X156661904Y-102445238D01*
X155861904Y-101950000D02*
X155861904Y-101873809D01*
X155900000Y-101797619D01*
X155938095Y-101759523D01*
X156014285Y-101721428D01*
X156166666Y-101683333D01*
X156357142Y-101683333D01*
X156509523Y-101721428D01*
X156585714Y-101759523D01*
X156623809Y-101797619D01*
X156661904Y-101873809D01*
X156661904Y-101950000D01*
X156623809Y-102026190D01*
X156585714Y-102064285D01*
X156509523Y-102102380D01*
X156357142Y-102140476D01*
X156166666Y-102140476D01*
X156014285Y-102102380D01*
X155938095Y-102064285D01*
X155900000Y-102026190D01*
X155861904Y-101950000D01*
X156661904Y-100921428D02*
X156661904Y-101378571D01*
X156661904Y-101150000D02*
X155861904Y-101150000D01*
X155976190Y-101226190D01*
X156052380Y-101302380D01*
X156090476Y-101378571D01*
X161761904Y-100671428D02*
X162409523Y-100671428D01*
X162485714Y-100633333D01*
X162523809Y-100595238D01*
X162561904Y-100519047D01*
X162561904Y-100366666D01*
X162523809Y-100290476D01*
X162485714Y-100252380D01*
X162409523Y-100214285D01*
X161761904Y-100214285D01*
X161838095Y-99871428D02*
X161800000Y-99833333D01*
X161761904Y-99757142D01*
X161761904Y-99566666D01*
X161800000Y-99490476D01*
X161838095Y-99452380D01*
X161914285Y-99414285D01*
X161990476Y-99414285D01*
X162104761Y-99452380D01*
X162561904Y-99909523D01*
X162561904Y-99414285D01*
X161761904Y-98919047D02*
X161761904Y-98842857D01*
X161800000Y-98766666D01*
X161838095Y-98728571D01*
X161914285Y-98690476D01*
X162066666Y-98652380D01*
X162257142Y-98652380D01*
X162409523Y-98690476D01*
X162485714Y-98728571D01*
X162523809Y-98766666D01*
X162561904Y-98842857D01*
X162561904Y-98919047D01*
X162523809Y-98995238D01*
X162485714Y-99033333D01*
X162409523Y-99071428D01*
X162257142Y-99109523D01*
X162066666Y-99109523D01*
X161914285Y-99071428D01*
X161838095Y-99033333D01*
X161800000Y-98995238D01*
X161761904Y-98919047D01*
X162561904Y-97890476D02*
X162561904Y-98347619D01*
X162561904Y-98119047D02*
X161761904Y-98119047D01*
X161876190Y-98195238D01*
X161952380Y-98271428D01*
X161990476Y-98347619D01*
X149928571Y-103261904D02*
X149928571Y-103909523D01*
X149966666Y-103985714D01*
X150004761Y-104023809D01*
X150080952Y-104061904D01*
X150233333Y-104061904D01*
X150309523Y-104023809D01*
X150347619Y-103985714D01*
X150385714Y-103909523D01*
X150385714Y-103261904D01*
X150728571Y-103338095D02*
X150766666Y-103300000D01*
X150842857Y-103261904D01*
X151033333Y-103261904D01*
X151109523Y-103300000D01*
X151147619Y-103338095D01*
X151185714Y-103414285D01*
X151185714Y-103490476D01*
X151147619Y-103604761D01*
X150690476Y-104061904D01*
X151185714Y-104061904D01*
X151680952Y-103261904D02*
X151757142Y-103261904D01*
X151833333Y-103300000D01*
X151871428Y-103338095D01*
X151909523Y-103414285D01*
X151947619Y-103566666D01*
X151947619Y-103757142D01*
X151909523Y-103909523D01*
X151871428Y-103985714D01*
X151833333Y-104023809D01*
X151757142Y-104061904D01*
X151680952Y-104061904D01*
X151604761Y-104023809D01*
X151566666Y-103985714D01*
X151528571Y-103909523D01*
X151490476Y-103757142D01*
X151490476Y-103566666D01*
X151528571Y-103414285D01*
X151566666Y-103338095D01*
X151604761Y-103300000D01*
X151680952Y-103261904D01*
X152252380Y-103338095D02*
X152290476Y-103300000D01*
X152366666Y-103261904D01*
X152557142Y-103261904D01*
X152633333Y-103300000D01*
X152671428Y-103338095D01*
X152709523Y-103414285D01*
X152709523Y-103490476D01*
X152671428Y-103604761D01*
X152214285Y-104061904D01*
X152709523Y-104061904D01*
X144901208Y-93161904D02*
X144901208Y-93809523D01*
X144939303Y-93885714D01*
X144977398Y-93923809D01*
X145053589Y-93961904D01*
X145205970Y-93961904D01*
X145282160Y-93923809D01*
X145320256Y-93885714D01*
X145358351Y-93809523D01*
X145358351Y-93161904D01*
X145663113Y-93161904D02*
X146158351Y-93161904D01*
X145891684Y-93466666D01*
X146005970Y-93466666D01*
X146082160Y-93504761D01*
X146120256Y-93542857D01*
X146158351Y-93619047D01*
X146158351Y-93809523D01*
X146120256Y-93885714D01*
X146082160Y-93923809D01*
X146005970Y-93961904D01*
X145777398Y-93961904D01*
X145701208Y-93923809D01*
X145663113Y-93885714D01*
X146653589Y-93161904D02*
X146729779Y-93161904D01*
X146805970Y-93200000D01*
X146844065Y-93238095D01*
X146882160Y-93314285D01*
X146920256Y-93466666D01*
X146920256Y-93657142D01*
X146882160Y-93809523D01*
X146844065Y-93885714D01*
X146805970Y-93923809D01*
X146729779Y-93961904D01*
X146653589Y-93961904D01*
X146577398Y-93923809D01*
X146539303Y-93885714D01*
X146501208Y-93809523D01*
X146463113Y-93657142D01*
X146463113Y-93466666D01*
X146501208Y-93314285D01*
X146539303Y-93238095D01*
X146577398Y-93200000D01*
X146653589Y-93161904D01*
X147682160Y-93961904D02*
X147225017Y-93961904D01*
X147453589Y-93961904D02*
X147453589Y-93161904D01*
X147377398Y-93276190D01*
X147301208Y-93352380D01*
X147225017Y-93390476D01*
M02*
