M48
INCH,TZ
T1C0.0118
T2C0.0157
T3C0.0236
T4C0.0256
T5C0.0394
%
G90
G05
T1
X56614Y-33937
X58248Y-35079
X58622Y-35079
X58780Y-35709
X59016Y-35079
T2
X55472Y-40236
X55472Y-41496
X55630Y-35157
X55630Y-35551
X56378Y-42362
X56811Y-35157
X56929Y-32913
X57047Y-38701
X57323Y-35118
X57323Y-41142
X57362Y-34213
X57579Y-36043
X57598Y-37756
X57992Y-35945
X58031Y-40669
X58031Y-41299
X58346Y-37756
X58386Y-33937
X58425Y-35906
X58425Y-39843
X58445Y-41791
X58622Y-34409
X58780Y-39469
X58799Y-42165
X58819Y-33465
X58819Y-37283
X59134Y-35866
X59252Y-37008
X59409Y-38701
X59449Y-33504
X59606Y-36654
X59606Y-37362
X59764Y-33031
X60000Y-37362
X60236Y-32598
X60394Y-37520
X60394Y-37992
X61772Y-33189
X62008Y-38484
X62126Y-32835
X62126Y-33937
X62520Y-32835
X62736Y-38957
X62992Y-41339
X63031Y-32677
X63189Y-41732
X63681Y-41732
X63858Y-34134
X63858Y-34528
X63937Y-35197
X63937Y-36024
X64075Y-32776
X64134Y-33937
X64843Y-38740
X65197Y-33189
X65197Y-33701
X65197Y-34213
X65197Y-34724
X65197Y-35236
X65197Y-35748
X65197Y-36260
X65197Y-36772
X65197Y-37283
X65197Y-37795
X65197Y-38307
X65197Y-38819
X65551Y-39134
X66191Y-39764
X66890Y-39134
X67402Y-39134
X67913Y-39134
X60230Y-34695
X60230Y-35167
X60230Y-35640
X60230Y-36112
X60702Y-34695
X60702Y-35167
X60702Y-35640
X60702Y-36112
X61175Y-34695
X61175Y-35167
X61175Y-35640
X61175Y-36112
X61647Y-34695
X61647Y-35167
X61647Y-35640
X61647Y-36112
T4
X63504Y-40492
X63504Y-40992
T5
X61339Y-37520
X62339Y-37520
X63339Y-37520
X64339Y-37520
X55886Y-36720
X55886Y-37720
X55886Y-38720
T3
G00X64520Y-40264
M15
G01X64520Y-40697
M16
G05
G00X64520Y-41969
M15
G01X64520Y-42283
M16
G05
G00X67921Y-40264
M15
G01X67921Y-40697
M16
G05
G00X67921Y-41969
M15
G01X67921Y-42283
M16
G05
T0
M30
