G04 #@! TF.GenerationSoftware,KiCad,Pcbnew,(5.1.6)-1*
G04 #@! TF.CreationDate,2021-04-21T10:38:01+02:00*
G04 #@! TF.ProjectId,LactateStat_v1,4c616374-6174-4655-9374-61745f76312e,rev?*
G04 #@! TF.SameCoordinates,Original*
G04 #@! TF.FileFunction,Copper,L2,Bot*
G04 #@! TF.FilePolarity,Positive*
%FSLAX46Y46*%
G04 Gerber Fmt 4.6, Leading zero omitted, Abs format (unit mm)*
G04 Created by KiCad (PCBNEW (5.1.6)-1) date 2021-04-21 10:38:01*
%MOMM*%
%LPD*%
G01*
G04 APERTURE LIST*
G04 #@! TA.AperFunction,ComponentPad*
%ADD10C,0.908000*%
G04 #@! TD*
G04 #@! TA.AperFunction,ComponentPad*
%ADD11R,1.700000X1.700000*%
G04 #@! TD*
G04 #@! TA.AperFunction,ComponentPad*
%ADD12O,1.700000X1.700000*%
G04 #@! TD*
G04 #@! TA.AperFunction,ComponentPad*
%ADD13O,1.000000X2.000000*%
G04 #@! TD*
G04 #@! TA.AperFunction,ComponentPad*
%ADD14O,1.050000X2.100000*%
G04 #@! TD*
G04 #@! TA.AperFunction,ComponentPad*
%ADD15R,1.000000X1.000000*%
G04 #@! TD*
G04 #@! TA.AperFunction,ComponentPad*
%ADD16O,1.000000X1.000000*%
G04 #@! TD*
G04 #@! TA.AperFunction,ViaPad*
%ADD17C,0.800000*%
G04 #@! TD*
G04 #@! TA.AperFunction,ViaPad*
%ADD18C,0.600000*%
G04 #@! TD*
G04 #@! TA.AperFunction,Conductor*
%ADD19C,0.400000*%
G04 #@! TD*
G04 #@! TA.AperFunction,Conductor*
%ADD20C,0.254000*%
G04 #@! TD*
G04 APERTURE END LIST*
D10*
X156584001Y-91725000D03*
X156584001Y-90525000D03*
X156584001Y-89325000D03*
X156584001Y-88125000D03*
X155384001Y-91725000D03*
X155384001Y-90525000D03*
X155384001Y-89325000D03*
X155384001Y-88125000D03*
X154184001Y-91725000D03*
X154184001Y-90525000D03*
X154184001Y-89325000D03*
X154184001Y-88125000D03*
X152984001Y-91725000D03*
X152984001Y-90525000D03*
X152984001Y-89325000D03*
X152984001Y-88125000D03*
D11*
X155800000Y-95300000D03*
D12*
X158340000Y-95300000D03*
X160880000Y-95300000D03*
X163420000Y-95300000D03*
D13*
X163880000Y-107000000D03*
X172520000Y-107000000D03*
D14*
X163880000Y-102820000D03*
X172520000Y-102820000D03*
D15*
X161300000Y-102850000D03*
D16*
X161300000Y-104120000D03*
D11*
X141950000Y-98350000D03*
D12*
X141950000Y-95810000D03*
X141950000Y-93270000D03*
D17*
X148900000Y-87400000D03*
X148300000Y-86200000D03*
X153000000Y-82800000D03*
X151800000Y-83900000D03*
X157800000Y-83400000D03*
X156900000Y-84300000D03*
X158800000Y-83400000D03*
X160100000Y-83000000D03*
X162900000Y-86200000D03*
X151400000Y-93100000D03*
X150500000Y-94000000D03*
X151400000Y-94900000D03*
X162200000Y-86700000D03*
X162200000Y-87700000D03*
X162400000Y-89400000D03*
X162400000Y-91500000D03*
X145700000Y-86900000D03*
X144600000Y-83600000D03*
X149400000Y-85000000D03*
X165600000Y-84300000D03*
X165600000Y-85600000D03*
X165600000Y-86900000D03*
X165600000Y-88200000D03*
X165600000Y-89500000D03*
X165600000Y-90800000D03*
X165600000Y-92100000D03*
X165600000Y-93400000D03*
X165600000Y-94700000D03*
X165600000Y-96000000D03*
X165600000Y-97300000D03*
X165600000Y-98600000D03*
X171200000Y-99400000D03*
X172500000Y-99400000D03*
X162750000Y-83250000D03*
D18*
X143800000Y-86200000D03*
D17*
X169900000Y-99400000D03*
X168125000Y-101000000D03*
X148400000Y-91200000D03*
X147300000Y-91300000D03*
X146250000Y-91550000D03*
X145600000Y-89200000D03*
D18*
X148900000Y-89100000D03*
X149900000Y-89100000D03*
D17*
X149350000Y-107100000D03*
X148450000Y-106150000D03*
X149300000Y-100250000D03*
X148400000Y-101200000D03*
X164700000Y-98400000D03*
X160000000Y-105000000D03*
X160500000Y-106000000D03*
X161750000Y-106000000D03*
X157500000Y-97750000D03*
X166500000Y-99400000D03*
X147400000Y-103300000D03*
X147400000Y-104900000D03*
X144300000Y-89300000D03*
X141300000Y-89300000D03*
X141300000Y-90300000D03*
X149400000Y-94700000D03*
X148200000Y-95900000D03*
X146300000Y-95900000D03*
X153400000Y-96500000D03*
X153400000Y-95300000D03*
D18*
X149300000Y-90700000D03*
X147950000Y-89100000D03*
D17*
X143200000Y-107600000D03*
X140900000Y-105400000D03*
X140900000Y-102200000D03*
X144900000Y-98300000D03*
X150900000Y-98300000D03*
X152400000Y-94900000D03*
X157800000Y-86200000D03*
X151000000Y-85100000D03*
X150200000Y-91100000D03*
X145600000Y-104500000D03*
X159350000Y-98950000D03*
D19*
X156700000Y-85100000D02*
X157800000Y-86200000D01*
X151000000Y-85100000D02*
X156700000Y-85100000D01*
X152400000Y-92989998D02*
X151000000Y-91589998D01*
X152400000Y-94900000D02*
X152400000Y-92989998D01*
X151000000Y-91589998D02*
X151000000Y-91200000D01*
X151000000Y-91200000D02*
X151000000Y-90900000D01*
X151000000Y-90900000D02*
X151000000Y-85100000D01*
X150200000Y-91100000D02*
X150900000Y-91100000D01*
X150900000Y-91100000D02*
X151000000Y-91200000D01*
X159350000Y-98950000D02*
X159350000Y-104284002D01*
X155784001Y-107850001D02*
X148050001Y-107850001D01*
X159350000Y-104284002D02*
X155784001Y-107850001D01*
X145600000Y-105400000D02*
X145600000Y-104500000D01*
X148050001Y-107850001D02*
X145600000Y-105400000D01*
D20*
G36*
X165973000Y-98900000D02*
G01*
X165975440Y-98924776D01*
X165982667Y-98948601D01*
X165994403Y-98970557D01*
X166010197Y-98989803D01*
X166029443Y-99005597D01*
X166051399Y-99017333D01*
X166075224Y-99024560D01*
X166100000Y-99027000D01*
X172948001Y-99027000D01*
X172948001Y-101220025D01*
X172825810Y-101176036D01*
X172647000Y-101301837D01*
X172647000Y-102693000D01*
X172948001Y-102693000D01*
X172948001Y-102947000D01*
X172647000Y-102947000D01*
X172647000Y-104338163D01*
X172825810Y-104463964D01*
X172948001Y-104419974D01*
X172948001Y-105451019D01*
X172821874Y-105405881D01*
X172647000Y-105532046D01*
X172647000Y-106873000D01*
X172948001Y-106873000D01*
X172948001Y-107127000D01*
X172647000Y-107127000D01*
X172647000Y-107898000D01*
X172393000Y-107898000D01*
X172393000Y-107127000D01*
X171385000Y-107127000D01*
X171385000Y-107627000D01*
X171431585Y-107845987D01*
X171453942Y-107898000D01*
X164946058Y-107898000D01*
X164968415Y-107845987D01*
X165015000Y-107627000D01*
X165015000Y-107127000D01*
X164007000Y-107127000D01*
X164007000Y-107898000D01*
X163753000Y-107898000D01*
X163753000Y-107127000D01*
X162745000Y-107127000D01*
X162745000Y-107627000D01*
X162791585Y-107845987D01*
X162813942Y-107898000D01*
X156481291Y-107898000D01*
X158006291Y-106373000D01*
X162745000Y-106373000D01*
X162745000Y-106873000D01*
X163753000Y-106873000D01*
X163753000Y-105532046D01*
X164007000Y-105532046D01*
X164007000Y-106873000D01*
X165015000Y-106873000D01*
X165015000Y-106373000D01*
X171385000Y-106373000D01*
X171385000Y-106873000D01*
X172393000Y-106873000D01*
X172393000Y-105532046D01*
X172218126Y-105405881D01*
X171995024Y-105485724D01*
X171807236Y-105607631D01*
X171646839Y-105763831D01*
X171519997Y-105948322D01*
X171431585Y-106154013D01*
X171385000Y-106373000D01*
X165015000Y-106373000D01*
X164968415Y-106154013D01*
X164880003Y-105948322D01*
X164753161Y-105763831D01*
X164592764Y-105607631D01*
X164404976Y-105485724D01*
X164181874Y-105405881D01*
X164007000Y-105532046D01*
X163753000Y-105532046D01*
X163578126Y-105405881D01*
X163355024Y-105485724D01*
X163167236Y-105607631D01*
X163006839Y-105763831D01*
X162879997Y-105948322D01*
X162791585Y-106154013D01*
X162745000Y-106373000D01*
X158006291Y-106373000D01*
X159704339Y-104674953D01*
X159724448Y-104658450D01*
X159790304Y-104578204D01*
X159839239Y-104486652D01*
X159858889Y-104421874D01*
X160205881Y-104421874D01*
X160222554Y-104476864D01*
X160312877Y-104680206D01*
X160441135Y-104862020D01*
X160602399Y-105015318D01*
X160790471Y-105134210D01*
X160998124Y-105214126D01*
X161173000Y-105089129D01*
X161173000Y-104247000D01*
X161427000Y-104247000D01*
X161427000Y-105089129D01*
X161601876Y-105214126D01*
X161809529Y-105134210D01*
X161997601Y-105015318D01*
X162158865Y-104862020D01*
X162287123Y-104680206D01*
X162377446Y-104476864D01*
X162394119Y-104421874D01*
X162267954Y-104247000D01*
X161427000Y-104247000D01*
X161173000Y-104247000D01*
X160332046Y-104247000D01*
X160205881Y-104421874D01*
X159858889Y-104421874D01*
X159869374Y-104387312D01*
X159877000Y-104309883D01*
X159879549Y-104284003D01*
X159877000Y-104258122D01*
X159877000Y-103818126D01*
X160205881Y-103818126D01*
X160332046Y-103993000D01*
X161173000Y-103993000D01*
X161173000Y-103973000D01*
X161427000Y-103973000D01*
X161427000Y-103993000D01*
X162267954Y-103993000D01*
X162394119Y-103818126D01*
X162377446Y-103763136D01*
X162287123Y-103559794D01*
X162158865Y-103377980D01*
X162128582Y-103349193D01*
X162128582Y-102947000D01*
X162720000Y-102947000D01*
X162720000Y-103472000D01*
X162767066Y-103695865D01*
X162856901Y-103906246D01*
X162986053Y-104095059D01*
X163149559Y-104255047D01*
X163341136Y-104380063D01*
X163574190Y-104463964D01*
X163753000Y-104338163D01*
X163753000Y-102947000D01*
X162720000Y-102947000D01*
X162128582Y-102947000D01*
X162128582Y-102350000D01*
X162122268Y-102285897D01*
X162103570Y-102224257D01*
X162073500Y-102168000D01*
X162720000Y-102168000D01*
X162720000Y-102693000D01*
X163753000Y-102693000D01*
X163753000Y-101301837D01*
X164007000Y-101301837D01*
X164007000Y-102693000D01*
X164027000Y-102693000D01*
X164027000Y-102947000D01*
X164007000Y-102947000D01*
X164007000Y-104338163D01*
X164185810Y-104463964D01*
X164418864Y-104380063D01*
X164610441Y-104255047D01*
X164773947Y-104095059D01*
X164903099Y-103906246D01*
X164927675Y-103848693D01*
X165001162Y-103897795D01*
X165119819Y-103946944D01*
X165245784Y-103972000D01*
X165374216Y-103972000D01*
X165500181Y-103946944D01*
X165618838Y-103897795D01*
X165725626Y-103826442D01*
X165816442Y-103735626D01*
X165887795Y-103628838D01*
X165936944Y-103510181D01*
X165962000Y-103384216D01*
X165962000Y-103255784D01*
X170438000Y-103255784D01*
X170438000Y-103384216D01*
X170463056Y-103510181D01*
X170512205Y-103628838D01*
X170583558Y-103735626D01*
X170674374Y-103826442D01*
X170781162Y-103897795D01*
X170899819Y-103946944D01*
X171025784Y-103972000D01*
X171154216Y-103972000D01*
X171280181Y-103946944D01*
X171398838Y-103897795D01*
X171472325Y-103848693D01*
X171496901Y-103906246D01*
X171626053Y-104095059D01*
X171789559Y-104255047D01*
X171981136Y-104380063D01*
X172214190Y-104463964D01*
X172393000Y-104338163D01*
X172393000Y-102947000D01*
X172373000Y-102947000D01*
X172373000Y-102693000D01*
X172393000Y-102693000D01*
X172393000Y-101301837D01*
X172214190Y-101176036D01*
X171981136Y-101259937D01*
X171789559Y-101384953D01*
X171626053Y-101544941D01*
X171496901Y-101733754D01*
X171407066Y-101944135D01*
X171360000Y-102168000D01*
X171360000Y-102726118D01*
X171280181Y-102693056D01*
X171154216Y-102668000D01*
X171025784Y-102668000D01*
X170899819Y-102693056D01*
X170781162Y-102742205D01*
X170674374Y-102813558D01*
X170583558Y-102904374D01*
X170512205Y-103011162D01*
X170463056Y-103129819D01*
X170438000Y-103255784D01*
X165962000Y-103255784D01*
X165936944Y-103129819D01*
X165887795Y-103011162D01*
X165816442Y-102904374D01*
X165725626Y-102813558D01*
X165618838Y-102742205D01*
X165500181Y-102693056D01*
X165374216Y-102668000D01*
X165245784Y-102668000D01*
X165119819Y-102693056D01*
X165040000Y-102726118D01*
X165040000Y-102168000D01*
X164992934Y-101944135D01*
X164903099Y-101733754D01*
X164773947Y-101544941D01*
X164610441Y-101384953D01*
X164418864Y-101259937D01*
X164185810Y-101176036D01*
X164007000Y-101301837D01*
X163753000Y-101301837D01*
X163574190Y-101176036D01*
X163341136Y-101259937D01*
X163149559Y-101384953D01*
X162986053Y-101544941D01*
X162856901Y-101733754D01*
X162767066Y-101944135D01*
X162720000Y-102168000D01*
X162073500Y-102168000D01*
X162073206Y-102167450D01*
X162032343Y-102117657D01*
X161982550Y-102076794D01*
X161925743Y-102046430D01*
X161864103Y-102027732D01*
X161800000Y-102021418D01*
X160800000Y-102021418D01*
X160735897Y-102027732D01*
X160674257Y-102046430D01*
X160617450Y-102076794D01*
X160567657Y-102117657D01*
X160526794Y-102167450D01*
X160496430Y-102224257D01*
X160477732Y-102285897D01*
X160471418Y-102350000D01*
X160471418Y-103349193D01*
X160441135Y-103377980D01*
X160312877Y-103559794D01*
X160222554Y-103763136D01*
X160205881Y-103818126D01*
X159877000Y-103818126D01*
X159877000Y-99451134D01*
X159914698Y-99413436D01*
X159994259Y-99294364D01*
X160049062Y-99162058D01*
X160077000Y-99021603D01*
X160077000Y-98878397D01*
X160049062Y-98737942D01*
X159994259Y-98605636D01*
X159914698Y-98486564D01*
X159813436Y-98385302D01*
X159694364Y-98305741D01*
X159562058Y-98250938D01*
X159421603Y-98223000D01*
X159278397Y-98223000D01*
X159137942Y-98250938D01*
X159005636Y-98305741D01*
X158886564Y-98385302D01*
X158785302Y-98486564D01*
X158705741Y-98605636D01*
X158650938Y-98737942D01*
X158623000Y-98878397D01*
X158623000Y-99021603D01*
X158650938Y-99162058D01*
X158705741Y-99294364D01*
X158785302Y-99413436D01*
X158823000Y-99451134D01*
X158823001Y-104065711D01*
X157023187Y-105865526D01*
X156988569Y-105781952D01*
X156903536Y-105654691D01*
X156795309Y-105546464D01*
X156668048Y-105461431D01*
X156526643Y-105402859D01*
X156376528Y-105373000D01*
X156223472Y-105373000D01*
X156073357Y-105402859D01*
X155931952Y-105461431D01*
X155804691Y-105546464D01*
X155696464Y-105654691D01*
X155611431Y-105781952D01*
X155552859Y-105923357D01*
X155523000Y-106073472D01*
X155523000Y-106226528D01*
X155552859Y-106376643D01*
X155611431Y-106518048D01*
X155696464Y-106645309D01*
X155804691Y-106753536D01*
X155931952Y-106838569D01*
X156015526Y-106873187D01*
X155565712Y-107323001D01*
X148268292Y-107323001D01*
X146127000Y-105181711D01*
X146127000Y-105001134D01*
X146164698Y-104963436D01*
X146244259Y-104844364D01*
X146299062Y-104712058D01*
X146327000Y-104571603D01*
X146327000Y-104428397D01*
X146299062Y-104287942D01*
X146244259Y-104155636D01*
X146164698Y-104036564D01*
X146063436Y-103935302D01*
X145944364Y-103855741D01*
X145812058Y-103800938D01*
X145671603Y-103773000D01*
X145528397Y-103773000D01*
X145387942Y-103800938D01*
X145255636Y-103855741D01*
X145136564Y-103935302D01*
X145035302Y-104036564D01*
X144955741Y-104155636D01*
X144900938Y-104287942D01*
X144873000Y-104428397D01*
X144873000Y-104571603D01*
X144900938Y-104712058D01*
X144955741Y-104844364D01*
X145035302Y-104963436D01*
X145073000Y-105001134D01*
X145073000Y-105374119D01*
X145070451Y-105400000D01*
X145073000Y-105425880D01*
X145080626Y-105503309D01*
X145110761Y-105602649D01*
X145159696Y-105694202D01*
X145225552Y-105774448D01*
X145245666Y-105790955D01*
X147352709Y-107898000D01*
X139602000Y-107898000D01*
X139602000Y-97500000D01*
X140771418Y-97500000D01*
X140771418Y-99200000D01*
X140777732Y-99264103D01*
X140796430Y-99325743D01*
X140826794Y-99382550D01*
X140867657Y-99432343D01*
X140917450Y-99473206D01*
X140974257Y-99503570D01*
X141035897Y-99522268D01*
X141100000Y-99528582D01*
X142800000Y-99528582D01*
X142864103Y-99522268D01*
X142925743Y-99503570D01*
X142982550Y-99473206D01*
X143032343Y-99432343D01*
X143073206Y-99382550D01*
X143103570Y-99325743D01*
X143119425Y-99273472D01*
X155523000Y-99273472D01*
X155523000Y-99426528D01*
X155552859Y-99576643D01*
X155611431Y-99718048D01*
X155696464Y-99845309D01*
X155804691Y-99953536D01*
X155931952Y-100038569D01*
X156073357Y-100097141D01*
X156223472Y-100127000D01*
X156376528Y-100127000D01*
X156526643Y-100097141D01*
X156668048Y-100038569D01*
X156795309Y-99953536D01*
X156903536Y-99845309D01*
X156988569Y-99718048D01*
X157047141Y-99576643D01*
X157077000Y-99426528D01*
X157077000Y-99273472D01*
X157047141Y-99123357D01*
X156988569Y-98981952D01*
X156903536Y-98854691D01*
X156795309Y-98746464D01*
X156668048Y-98661431D01*
X156526643Y-98602859D01*
X156376528Y-98573000D01*
X156223472Y-98573000D01*
X156073357Y-98602859D01*
X155931952Y-98661431D01*
X155804691Y-98746464D01*
X155696464Y-98854691D01*
X155611431Y-98981952D01*
X155552859Y-99123357D01*
X155523000Y-99273472D01*
X143119425Y-99273472D01*
X143122268Y-99264103D01*
X143128582Y-99200000D01*
X143128582Y-97500000D01*
X143122268Y-97435897D01*
X143103570Y-97374257D01*
X143073206Y-97317450D01*
X143032343Y-97267657D01*
X142982550Y-97226794D01*
X142925743Y-97196430D01*
X142864103Y-97177732D01*
X142800000Y-97171418D01*
X141100000Y-97171418D01*
X141035897Y-97177732D01*
X140974257Y-97196430D01*
X140917450Y-97226794D01*
X140867657Y-97267657D01*
X140826794Y-97317450D01*
X140796430Y-97374257D01*
X140777732Y-97435897D01*
X140771418Y-97500000D01*
X139602000Y-97500000D01*
X139602000Y-95694076D01*
X140773000Y-95694076D01*
X140773000Y-95925924D01*
X140818231Y-96153318D01*
X140906956Y-96367519D01*
X141035764Y-96560294D01*
X141199706Y-96724236D01*
X141392481Y-96853044D01*
X141606682Y-96941769D01*
X141834076Y-96987000D01*
X142065924Y-96987000D01*
X142293318Y-96941769D01*
X142507519Y-96853044D01*
X142700294Y-96724236D01*
X142864236Y-96560294D01*
X142993044Y-96367519D01*
X143081769Y-96153318D01*
X143082428Y-96150000D01*
X154311928Y-96150000D01*
X154324188Y-96274482D01*
X154360498Y-96394180D01*
X154419463Y-96504494D01*
X154498815Y-96601185D01*
X154595506Y-96680537D01*
X154705820Y-96739502D01*
X154825518Y-96775812D01*
X154950000Y-96788072D01*
X155514250Y-96785000D01*
X155673000Y-96626250D01*
X155673000Y-95427000D01*
X154473750Y-95427000D01*
X154315000Y-95585750D01*
X154311928Y-96150000D01*
X143082428Y-96150000D01*
X143127000Y-95925924D01*
X143127000Y-95694076D01*
X143081769Y-95466682D01*
X142993044Y-95252481D01*
X142864236Y-95059706D01*
X142700294Y-94895764D01*
X142507519Y-94766956D01*
X142293318Y-94678231D01*
X142065924Y-94633000D01*
X141834076Y-94633000D01*
X141606682Y-94678231D01*
X141392481Y-94766956D01*
X141199706Y-94895764D01*
X141035764Y-95059706D01*
X140906956Y-95252481D01*
X140818231Y-95466682D01*
X140773000Y-95694076D01*
X139602000Y-95694076D01*
X139602000Y-93154076D01*
X140773000Y-93154076D01*
X140773000Y-93385924D01*
X140818231Y-93613318D01*
X140906956Y-93827519D01*
X141035764Y-94020294D01*
X141199706Y-94184236D01*
X141392481Y-94313044D01*
X141606682Y-94401769D01*
X141834076Y-94447000D01*
X142065924Y-94447000D01*
X142293318Y-94401769D01*
X142507519Y-94313044D01*
X142700294Y-94184236D01*
X142864236Y-94020294D01*
X142993044Y-93827519D01*
X143081769Y-93613318D01*
X143127000Y-93385924D01*
X143127000Y-93154076D01*
X143081769Y-92926682D01*
X142993044Y-92712481D01*
X142864236Y-92519706D01*
X142700294Y-92355764D01*
X142507519Y-92226956D01*
X142293318Y-92138231D01*
X142065924Y-92093000D01*
X141834076Y-92093000D01*
X141606682Y-92138231D01*
X141392481Y-92226956D01*
X141199706Y-92355764D01*
X141035764Y-92519706D01*
X140906956Y-92712481D01*
X140818231Y-92926682D01*
X140773000Y-93154076D01*
X139602000Y-93154076D01*
X139602000Y-91028397D01*
X149473000Y-91028397D01*
X149473000Y-91171603D01*
X149500938Y-91312058D01*
X149555741Y-91444364D01*
X149635302Y-91563436D01*
X149736564Y-91664698D01*
X149855636Y-91744259D01*
X149987942Y-91799062D01*
X150128397Y-91827000D01*
X150271603Y-91827000D01*
X150412058Y-91799062D01*
X150501472Y-91762026D01*
X150510761Y-91792647D01*
X150559696Y-91884200D01*
X150625552Y-91964446D01*
X150645666Y-91980953D01*
X151873001Y-93208289D01*
X151873000Y-94398866D01*
X151835302Y-94436564D01*
X151755741Y-94555636D01*
X151700938Y-94687942D01*
X151673000Y-94828397D01*
X151673000Y-94971603D01*
X151700938Y-95112058D01*
X151755741Y-95244364D01*
X151835302Y-95363436D01*
X151936564Y-95464698D01*
X152055636Y-95544259D01*
X152187942Y-95599062D01*
X152328397Y-95627000D01*
X152471603Y-95627000D01*
X152612058Y-95599062D01*
X152744364Y-95544259D01*
X152863436Y-95464698D01*
X152964698Y-95363436D01*
X153044259Y-95244364D01*
X153099062Y-95112058D01*
X153127000Y-94971603D01*
X153127000Y-94828397D01*
X153099062Y-94687942D01*
X153044259Y-94555636D01*
X152973676Y-94450000D01*
X154311928Y-94450000D01*
X154315000Y-95014250D01*
X154473750Y-95173000D01*
X155673000Y-95173000D01*
X155673000Y-93973750D01*
X155927000Y-93973750D01*
X155927000Y-95173000D01*
X155947000Y-95173000D01*
X155947000Y-95427000D01*
X155927000Y-95427000D01*
X155927000Y-96626250D01*
X156085750Y-96785000D01*
X156650000Y-96788072D01*
X156774482Y-96775812D01*
X156894180Y-96739502D01*
X157004494Y-96680537D01*
X157101185Y-96601185D01*
X157180537Y-96504494D01*
X157239502Y-96394180D01*
X157275812Y-96274482D01*
X157288072Y-96150000D01*
X157286340Y-95831890D01*
X157296956Y-95857519D01*
X157425764Y-96050294D01*
X157589706Y-96214236D01*
X157782481Y-96343044D01*
X157996682Y-96431769D01*
X158224076Y-96477000D01*
X158455924Y-96477000D01*
X158683318Y-96431769D01*
X158897519Y-96343044D01*
X159090294Y-96214236D01*
X159254236Y-96050294D01*
X159383044Y-95857519D01*
X159471769Y-95643318D01*
X159517000Y-95415924D01*
X159517000Y-95184076D01*
X159703000Y-95184076D01*
X159703000Y-95415924D01*
X159748231Y-95643318D01*
X159836956Y-95857519D01*
X159965764Y-96050294D01*
X160129706Y-96214236D01*
X160322481Y-96343044D01*
X160536682Y-96431769D01*
X160764076Y-96477000D01*
X160995924Y-96477000D01*
X161223318Y-96431769D01*
X161437519Y-96343044D01*
X161630294Y-96214236D01*
X161794236Y-96050294D01*
X161923044Y-95857519D01*
X162011769Y-95643318D01*
X162057000Y-95415924D01*
X162057000Y-95184076D01*
X162243000Y-95184076D01*
X162243000Y-95415924D01*
X162288231Y-95643318D01*
X162376956Y-95857519D01*
X162505764Y-96050294D01*
X162669706Y-96214236D01*
X162862481Y-96343044D01*
X163076682Y-96431769D01*
X163304076Y-96477000D01*
X163535924Y-96477000D01*
X163763318Y-96431769D01*
X163977519Y-96343044D01*
X164170294Y-96214236D01*
X164334236Y-96050294D01*
X164463044Y-95857519D01*
X164551769Y-95643318D01*
X164597000Y-95415924D01*
X164597000Y-95184076D01*
X164551769Y-94956682D01*
X164463044Y-94742481D01*
X164334236Y-94549706D01*
X164170294Y-94385764D01*
X163977519Y-94256956D01*
X163763318Y-94168231D01*
X163535924Y-94123000D01*
X163304076Y-94123000D01*
X163076682Y-94168231D01*
X162862481Y-94256956D01*
X162669706Y-94385764D01*
X162505764Y-94549706D01*
X162376956Y-94742481D01*
X162288231Y-94956682D01*
X162243000Y-95184076D01*
X162057000Y-95184076D01*
X162011769Y-94956682D01*
X161923044Y-94742481D01*
X161794236Y-94549706D01*
X161630294Y-94385764D01*
X161437519Y-94256956D01*
X161223318Y-94168231D01*
X160995924Y-94123000D01*
X160764076Y-94123000D01*
X160536682Y-94168231D01*
X160322481Y-94256956D01*
X160129706Y-94385764D01*
X159965764Y-94549706D01*
X159836956Y-94742481D01*
X159748231Y-94956682D01*
X159703000Y-95184076D01*
X159517000Y-95184076D01*
X159471769Y-94956682D01*
X159383044Y-94742481D01*
X159254236Y-94549706D01*
X159090294Y-94385764D01*
X158897519Y-94256956D01*
X158683318Y-94168231D01*
X158455924Y-94123000D01*
X158224076Y-94123000D01*
X157996682Y-94168231D01*
X157782481Y-94256956D01*
X157589706Y-94385764D01*
X157425764Y-94549706D01*
X157296956Y-94742481D01*
X157286340Y-94768110D01*
X157288072Y-94450000D01*
X157275812Y-94325518D01*
X157239502Y-94205820D01*
X157180537Y-94095506D01*
X157101185Y-93998815D01*
X157004494Y-93919463D01*
X156894180Y-93860498D01*
X156774482Y-93824188D01*
X156650000Y-93811928D01*
X156085750Y-93815000D01*
X155927000Y-93973750D01*
X155673000Y-93973750D01*
X155514250Y-93815000D01*
X154950000Y-93811928D01*
X154825518Y-93824188D01*
X154705820Y-93860498D01*
X154595506Y-93919463D01*
X154498815Y-93998815D01*
X154419463Y-94095506D01*
X154360498Y-94205820D01*
X154324188Y-94325518D01*
X154311928Y-94450000D01*
X152973676Y-94450000D01*
X152964698Y-94436564D01*
X152927000Y-94398866D01*
X152927000Y-93015879D01*
X152929549Y-92989998D01*
X152919374Y-92886688D01*
X152889239Y-92787348D01*
X152840304Y-92695796D01*
X152774448Y-92615550D01*
X152754339Y-92599047D01*
X151527000Y-91371709D01*
X151527000Y-91225877D01*
X151529549Y-91199999D01*
X151527000Y-91174119D01*
X151527000Y-85627000D01*
X156481711Y-85627000D01*
X157073000Y-86218290D01*
X157073000Y-86271603D01*
X157100938Y-86412058D01*
X157155741Y-86544364D01*
X157235302Y-86663436D01*
X157336564Y-86764698D01*
X157455636Y-86844259D01*
X157587942Y-86899062D01*
X157728397Y-86927000D01*
X157871603Y-86927000D01*
X158012058Y-86899062D01*
X158144364Y-86844259D01*
X158263436Y-86764698D01*
X158364698Y-86663436D01*
X158444259Y-86544364D01*
X158499062Y-86412058D01*
X158527000Y-86271603D01*
X158527000Y-86128397D01*
X158499062Y-85987942D01*
X158444259Y-85855636D01*
X158364698Y-85736564D01*
X158263436Y-85635302D01*
X158144364Y-85555741D01*
X158012058Y-85500938D01*
X157871603Y-85473000D01*
X157818290Y-85473000D01*
X157090955Y-84745666D01*
X157074448Y-84725552D01*
X156994202Y-84659696D01*
X156902650Y-84610761D01*
X156803310Y-84580626D01*
X156725881Y-84573000D01*
X156700000Y-84570451D01*
X156674119Y-84573000D01*
X151501134Y-84573000D01*
X151463436Y-84535302D01*
X151344364Y-84455741D01*
X151212058Y-84400938D01*
X151071603Y-84373000D01*
X150928397Y-84373000D01*
X150787942Y-84400938D01*
X150655636Y-84455741D01*
X150536564Y-84535302D01*
X150435302Y-84636564D01*
X150355741Y-84755636D01*
X150300938Y-84887942D01*
X150273000Y-85028397D01*
X150273000Y-85171603D01*
X150300938Y-85312058D01*
X150355741Y-85444364D01*
X150435302Y-85563436D01*
X150473001Y-85601135D01*
X150473000Y-90426181D01*
X150412058Y-90400938D01*
X150271603Y-90373000D01*
X150128397Y-90373000D01*
X149987942Y-90400938D01*
X149855636Y-90455741D01*
X149736564Y-90535302D01*
X149635302Y-90636564D01*
X149555741Y-90755636D01*
X149500938Y-90887942D01*
X149473000Y-91028397D01*
X139602000Y-91028397D01*
X139602000Y-82102000D01*
X165973000Y-82102000D01*
X165973000Y-98900000D01*
G37*
X165973000Y-98900000D02*
X165975440Y-98924776D01*
X165982667Y-98948601D01*
X165994403Y-98970557D01*
X166010197Y-98989803D01*
X166029443Y-99005597D01*
X166051399Y-99017333D01*
X166075224Y-99024560D01*
X166100000Y-99027000D01*
X172948001Y-99027000D01*
X172948001Y-101220025D01*
X172825810Y-101176036D01*
X172647000Y-101301837D01*
X172647000Y-102693000D01*
X172948001Y-102693000D01*
X172948001Y-102947000D01*
X172647000Y-102947000D01*
X172647000Y-104338163D01*
X172825810Y-104463964D01*
X172948001Y-104419974D01*
X172948001Y-105451019D01*
X172821874Y-105405881D01*
X172647000Y-105532046D01*
X172647000Y-106873000D01*
X172948001Y-106873000D01*
X172948001Y-107127000D01*
X172647000Y-107127000D01*
X172647000Y-107898000D01*
X172393000Y-107898000D01*
X172393000Y-107127000D01*
X171385000Y-107127000D01*
X171385000Y-107627000D01*
X171431585Y-107845987D01*
X171453942Y-107898000D01*
X164946058Y-107898000D01*
X164968415Y-107845987D01*
X165015000Y-107627000D01*
X165015000Y-107127000D01*
X164007000Y-107127000D01*
X164007000Y-107898000D01*
X163753000Y-107898000D01*
X163753000Y-107127000D01*
X162745000Y-107127000D01*
X162745000Y-107627000D01*
X162791585Y-107845987D01*
X162813942Y-107898000D01*
X156481291Y-107898000D01*
X158006291Y-106373000D01*
X162745000Y-106373000D01*
X162745000Y-106873000D01*
X163753000Y-106873000D01*
X163753000Y-105532046D01*
X164007000Y-105532046D01*
X164007000Y-106873000D01*
X165015000Y-106873000D01*
X165015000Y-106373000D01*
X171385000Y-106373000D01*
X171385000Y-106873000D01*
X172393000Y-106873000D01*
X172393000Y-105532046D01*
X172218126Y-105405881D01*
X171995024Y-105485724D01*
X171807236Y-105607631D01*
X171646839Y-105763831D01*
X171519997Y-105948322D01*
X171431585Y-106154013D01*
X171385000Y-106373000D01*
X165015000Y-106373000D01*
X164968415Y-106154013D01*
X164880003Y-105948322D01*
X164753161Y-105763831D01*
X164592764Y-105607631D01*
X164404976Y-105485724D01*
X164181874Y-105405881D01*
X164007000Y-105532046D01*
X163753000Y-105532046D01*
X163578126Y-105405881D01*
X163355024Y-105485724D01*
X163167236Y-105607631D01*
X163006839Y-105763831D01*
X162879997Y-105948322D01*
X162791585Y-106154013D01*
X162745000Y-106373000D01*
X158006291Y-106373000D01*
X159704339Y-104674953D01*
X159724448Y-104658450D01*
X159790304Y-104578204D01*
X159839239Y-104486652D01*
X159858889Y-104421874D01*
X160205881Y-104421874D01*
X160222554Y-104476864D01*
X160312877Y-104680206D01*
X160441135Y-104862020D01*
X160602399Y-105015318D01*
X160790471Y-105134210D01*
X160998124Y-105214126D01*
X161173000Y-105089129D01*
X161173000Y-104247000D01*
X161427000Y-104247000D01*
X161427000Y-105089129D01*
X161601876Y-105214126D01*
X161809529Y-105134210D01*
X161997601Y-105015318D01*
X162158865Y-104862020D01*
X162287123Y-104680206D01*
X162377446Y-104476864D01*
X162394119Y-104421874D01*
X162267954Y-104247000D01*
X161427000Y-104247000D01*
X161173000Y-104247000D01*
X160332046Y-104247000D01*
X160205881Y-104421874D01*
X159858889Y-104421874D01*
X159869374Y-104387312D01*
X159877000Y-104309883D01*
X159879549Y-104284003D01*
X159877000Y-104258122D01*
X159877000Y-103818126D01*
X160205881Y-103818126D01*
X160332046Y-103993000D01*
X161173000Y-103993000D01*
X161173000Y-103973000D01*
X161427000Y-103973000D01*
X161427000Y-103993000D01*
X162267954Y-103993000D01*
X162394119Y-103818126D01*
X162377446Y-103763136D01*
X162287123Y-103559794D01*
X162158865Y-103377980D01*
X162128582Y-103349193D01*
X162128582Y-102947000D01*
X162720000Y-102947000D01*
X162720000Y-103472000D01*
X162767066Y-103695865D01*
X162856901Y-103906246D01*
X162986053Y-104095059D01*
X163149559Y-104255047D01*
X163341136Y-104380063D01*
X163574190Y-104463964D01*
X163753000Y-104338163D01*
X163753000Y-102947000D01*
X162720000Y-102947000D01*
X162128582Y-102947000D01*
X162128582Y-102350000D01*
X162122268Y-102285897D01*
X162103570Y-102224257D01*
X162073500Y-102168000D01*
X162720000Y-102168000D01*
X162720000Y-102693000D01*
X163753000Y-102693000D01*
X163753000Y-101301837D01*
X164007000Y-101301837D01*
X164007000Y-102693000D01*
X164027000Y-102693000D01*
X164027000Y-102947000D01*
X164007000Y-102947000D01*
X164007000Y-104338163D01*
X164185810Y-104463964D01*
X164418864Y-104380063D01*
X164610441Y-104255047D01*
X164773947Y-104095059D01*
X164903099Y-103906246D01*
X164927675Y-103848693D01*
X165001162Y-103897795D01*
X165119819Y-103946944D01*
X165245784Y-103972000D01*
X165374216Y-103972000D01*
X165500181Y-103946944D01*
X165618838Y-103897795D01*
X165725626Y-103826442D01*
X165816442Y-103735626D01*
X165887795Y-103628838D01*
X165936944Y-103510181D01*
X165962000Y-103384216D01*
X165962000Y-103255784D01*
X170438000Y-103255784D01*
X170438000Y-103384216D01*
X170463056Y-103510181D01*
X170512205Y-103628838D01*
X170583558Y-103735626D01*
X170674374Y-103826442D01*
X170781162Y-103897795D01*
X170899819Y-103946944D01*
X171025784Y-103972000D01*
X171154216Y-103972000D01*
X171280181Y-103946944D01*
X171398838Y-103897795D01*
X171472325Y-103848693D01*
X171496901Y-103906246D01*
X171626053Y-104095059D01*
X171789559Y-104255047D01*
X171981136Y-104380063D01*
X172214190Y-104463964D01*
X172393000Y-104338163D01*
X172393000Y-102947000D01*
X172373000Y-102947000D01*
X172373000Y-102693000D01*
X172393000Y-102693000D01*
X172393000Y-101301837D01*
X172214190Y-101176036D01*
X171981136Y-101259937D01*
X171789559Y-101384953D01*
X171626053Y-101544941D01*
X171496901Y-101733754D01*
X171407066Y-101944135D01*
X171360000Y-102168000D01*
X171360000Y-102726118D01*
X171280181Y-102693056D01*
X171154216Y-102668000D01*
X171025784Y-102668000D01*
X170899819Y-102693056D01*
X170781162Y-102742205D01*
X170674374Y-102813558D01*
X170583558Y-102904374D01*
X170512205Y-103011162D01*
X170463056Y-103129819D01*
X170438000Y-103255784D01*
X165962000Y-103255784D01*
X165936944Y-103129819D01*
X165887795Y-103011162D01*
X165816442Y-102904374D01*
X165725626Y-102813558D01*
X165618838Y-102742205D01*
X165500181Y-102693056D01*
X165374216Y-102668000D01*
X165245784Y-102668000D01*
X165119819Y-102693056D01*
X165040000Y-102726118D01*
X165040000Y-102168000D01*
X164992934Y-101944135D01*
X164903099Y-101733754D01*
X164773947Y-101544941D01*
X164610441Y-101384953D01*
X164418864Y-101259937D01*
X164185810Y-101176036D01*
X164007000Y-101301837D01*
X163753000Y-101301837D01*
X163574190Y-101176036D01*
X163341136Y-101259937D01*
X163149559Y-101384953D01*
X162986053Y-101544941D01*
X162856901Y-101733754D01*
X162767066Y-101944135D01*
X162720000Y-102168000D01*
X162073500Y-102168000D01*
X162073206Y-102167450D01*
X162032343Y-102117657D01*
X161982550Y-102076794D01*
X161925743Y-102046430D01*
X161864103Y-102027732D01*
X161800000Y-102021418D01*
X160800000Y-102021418D01*
X160735897Y-102027732D01*
X160674257Y-102046430D01*
X160617450Y-102076794D01*
X160567657Y-102117657D01*
X160526794Y-102167450D01*
X160496430Y-102224257D01*
X160477732Y-102285897D01*
X160471418Y-102350000D01*
X160471418Y-103349193D01*
X160441135Y-103377980D01*
X160312877Y-103559794D01*
X160222554Y-103763136D01*
X160205881Y-103818126D01*
X159877000Y-103818126D01*
X159877000Y-99451134D01*
X159914698Y-99413436D01*
X159994259Y-99294364D01*
X160049062Y-99162058D01*
X160077000Y-99021603D01*
X160077000Y-98878397D01*
X160049062Y-98737942D01*
X159994259Y-98605636D01*
X159914698Y-98486564D01*
X159813436Y-98385302D01*
X159694364Y-98305741D01*
X159562058Y-98250938D01*
X159421603Y-98223000D01*
X159278397Y-98223000D01*
X159137942Y-98250938D01*
X159005636Y-98305741D01*
X158886564Y-98385302D01*
X158785302Y-98486564D01*
X158705741Y-98605636D01*
X158650938Y-98737942D01*
X158623000Y-98878397D01*
X158623000Y-99021603D01*
X158650938Y-99162058D01*
X158705741Y-99294364D01*
X158785302Y-99413436D01*
X158823000Y-99451134D01*
X158823001Y-104065711D01*
X157023187Y-105865526D01*
X156988569Y-105781952D01*
X156903536Y-105654691D01*
X156795309Y-105546464D01*
X156668048Y-105461431D01*
X156526643Y-105402859D01*
X156376528Y-105373000D01*
X156223472Y-105373000D01*
X156073357Y-105402859D01*
X155931952Y-105461431D01*
X155804691Y-105546464D01*
X155696464Y-105654691D01*
X155611431Y-105781952D01*
X155552859Y-105923357D01*
X155523000Y-106073472D01*
X155523000Y-106226528D01*
X155552859Y-106376643D01*
X155611431Y-106518048D01*
X155696464Y-106645309D01*
X155804691Y-106753536D01*
X155931952Y-106838569D01*
X156015526Y-106873187D01*
X155565712Y-107323001D01*
X148268292Y-107323001D01*
X146127000Y-105181711D01*
X146127000Y-105001134D01*
X146164698Y-104963436D01*
X146244259Y-104844364D01*
X146299062Y-104712058D01*
X146327000Y-104571603D01*
X146327000Y-104428397D01*
X146299062Y-104287942D01*
X146244259Y-104155636D01*
X146164698Y-104036564D01*
X146063436Y-103935302D01*
X145944364Y-103855741D01*
X145812058Y-103800938D01*
X145671603Y-103773000D01*
X145528397Y-103773000D01*
X145387942Y-103800938D01*
X145255636Y-103855741D01*
X145136564Y-103935302D01*
X145035302Y-104036564D01*
X144955741Y-104155636D01*
X144900938Y-104287942D01*
X144873000Y-104428397D01*
X144873000Y-104571603D01*
X144900938Y-104712058D01*
X144955741Y-104844364D01*
X145035302Y-104963436D01*
X145073000Y-105001134D01*
X145073000Y-105374119D01*
X145070451Y-105400000D01*
X145073000Y-105425880D01*
X145080626Y-105503309D01*
X145110761Y-105602649D01*
X145159696Y-105694202D01*
X145225552Y-105774448D01*
X145245666Y-105790955D01*
X147352709Y-107898000D01*
X139602000Y-107898000D01*
X139602000Y-97500000D01*
X140771418Y-97500000D01*
X140771418Y-99200000D01*
X140777732Y-99264103D01*
X140796430Y-99325743D01*
X140826794Y-99382550D01*
X140867657Y-99432343D01*
X140917450Y-99473206D01*
X140974257Y-99503570D01*
X141035897Y-99522268D01*
X141100000Y-99528582D01*
X142800000Y-99528582D01*
X142864103Y-99522268D01*
X142925743Y-99503570D01*
X142982550Y-99473206D01*
X143032343Y-99432343D01*
X143073206Y-99382550D01*
X143103570Y-99325743D01*
X143119425Y-99273472D01*
X155523000Y-99273472D01*
X155523000Y-99426528D01*
X155552859Y-99576643D01*
X155611431Y-99718048D01*
X155696464Y-99845309D01*
X155804691Y-99953536D01*
X155931952Y-100038569D01*
X156073357Y-100097141D01*
X156223472Y-100127000D01*
X156376528Y-100127000D01*
X156526643Y-100097141D01*
X156668048Y-100038569D01*
X156795309Y-99953536D01*
X156903536Y-99845309D01*
X156988569Y-99718048D01*
X157047141Y-99576643D01*
X157077000Y-99426528D01*
X157077000Y-99273472D01*
X157047141Y-99123357D01*
X156988569Y-98981952D01*
X156903536Y-98854691D01*
X156795309Y-98746464D01*
X156668048Y-98661431D01*
X156526643Y-98602859D01*
X156376528Y-98573000D01*
X156223472Y-98573000D01*
X156073357Y-98602859D01*
X155931952Y-98661431D01*
X155804691Y-98746464D01*
X155696464Y-98854691D01*
X155611431Y-98981952D01*
X155552859Y-99123357D01*
X155523000Y-99273472D01*
X143119425Y-99273472D01*
X143122268Y-99264103D01*
X143128582Y-99200000D01*
X143128582Y-97500000D01*
X143122268Y-97435897D01*
X143103570Y-97374257D01*
X143073206Y-97317450D01*
X143032343Y-97267657D01*
X142982550Y-97226794D01*
X142925743Y-97196430D01*
X142864103Y-97177732D01*
X142800000Y-97171418D01*
X141100000Y-97171418D01*
X141035897Y-97177732D01*
X140974257Y-97196430D01*
X140917450Y-97226794D01*
X140867657Y-97267657D01*
X140826794Y-97317450D01*
X140796430Y-97374257D01*
X140777732Y-97435897D01*
X140771418Y-97500000D01*
X139602000Y-97500000D01*
X139602000Y-95694076D01*
X140773000Y-95694076D01*
X140773000Y-95925924D01*
X140818231Y-96153318D01*
X140906956Y-96367519D01*
X141035764Y-96560294D01*
X141199706Y-96724236D01*
X141392481Y-96853044D01*
X141606682Y-96941769D01*
X141834076Y-96987000D01*
X142065924Y-96987000D01*
X142293318Y-96941769D01*
X142507519Y-96853044D01*
X142700294Y-96724236D01*
X142864236Y-96560294D01*
X142993044Y-96367519D01*
X143081769Y-96153318D01*
X143082428Y-96150000D01*
X154311928Y-96150000D01*
X154324188Y-96274482D01*
X154360498Y-96394180D01*
X154419463Y-96504494D01*
X154498815Y-96601185D01*
X154595506Y-96680537D01*
X154705820Y-96739502D01*
X154825518Y-96775812D01*
X154950000Y-96788072D01*
X155514250Y-96785000D01*
X155673000Y-96626250D01*
X155673000Y-95427000D01*
X154473750Y-95427000D01*
X154315000Y-95585750D01*
X154311928Y-96150000D01*
X143082428Y-96150000D01*
X143127000Y-95925924D01*
X143127000Y-95694076D01*
X143081769Y-95466682D01*
X142993044Y-95252481D01*
X142864236Y-95059706D01*
X142700294Y-94895764D01*
X142507519Y-94766956D01*
X142293318Y-94678231D01*
X142065924Y-94633000D01*
X141834076Y-94633000D01*
X141606682Y-94678231D01*
X141392481Y-94766956D01*
X141199706Y-94895764D01*
X141035764Y-95059706D01*
X140906956Y-95252481D01*
X140818231Y-95466682D01*
X140773000Y-95694076D01*
X139602000Y-95694076D01*
X139602000Y-93154076D01*
X140773000Y-93154076D01*
X140773000Y-93385924D01*
X140818231Y-93613318D01*
X140906956Y-93827519D01*
X141035764Y-94020294D01*
X141199706Y-94184236D01*
X141392481Y-94313044D01*
X141606682Y-94401769D01*
X141834076Y-94447000D01*
X142065924Y-94447000D01*
X142293318Y-94401769D01*
X142507519Y-94313044D01*
X142700294Y-94184236D01*
X142864236Y-94020294D01*
X142993044Y-93827519D01*
X143081769Y-93613318D01*
X143127000Y-93385924D01*
X143127000Y-93154076D01*
X143081769Y-92926682D01*
X142993044Y-92712481D01*
X142864236Y-92519706D01*
X142700294Y-92355764D01*
X142507519Y-92226956D01*
X142293318Y-92138231D01*
X142065924Y-92093000D01*
X141834076Y-92093000D01*
X141606682Y-92138231D01*
X141392481Y-92226956D01*
X141199706Y-92355764D01*
X141035764Y-92519706D01*
X140906956Y-92712481D01*
X140818231Y-92926682D01*
X140773000Y-93154076D01*
X139602000Y-93154076D01*
X139602000Y-91028397D01*
X149473000Y-91028397D01*
X149473000Y-91171603D01*
X149500938Y-91312058D01*
X149555741Y-91444364D01*
X149635302Y-91563436D01*
X149736564Y-91664698D01*
X149855636Y-91744259D01*
X149987942Y-91799062D01*
X150128397Y-91827000D01*
X150271603Y-91827000D01*
X150412058Y-91799062D01*
X150501472Y-91762026D01*
X150510761Y-91792647D01*
X150559696Y-91884200D01*
X150625552Y-91964446D01*
X150645666Y-91980953D01*
X151873001Y-93208289D01*
X151873000Y-94398866D01*
X151835302Y-94436564D01*
X151755741Y-94555636D01*
X151700938Y-94687942D01*
X151673000Y-94828397D01*
X151673000Y-94971603D01*
X151700938Y-95112058D01*
X151755741Y-95244364D01*
X151835302Y-95363436D01*
X151936564Y-95464698D01*
X152055636Y-95544259D01*
X152187942Y-95599062D01*
X152328397Y-95627000D01*
X152471603Y-95627000D01*
X152612058Y-95599062D01*
X152744364Y-95544259D01*
X152863436Y-95464698D01*
X152964698Y-95363436D01*
X153044259Y-95244364D01*
X153099062Y-95112058D01*
X153127000Y-94971603D01*
X153127000Y-94828397D01*
X153099062Y-94687942D01*
X153044259Y-94555636D01*
X152973676Y-94450000D01*
X154311928Y-94450000D01*
X154315000Y-95014250D01*
X154473750Y-95173000D01*
X155673000Y-95173000D01*
X155673000Y-93973750D01*
X155927000Y-93973750D01*
X155927000Y-95173000D01*
X155947000Y-95173000D01*
X155947000Y-95427000D01*
X155927000Y-95427000D01*
X155927000Y-96626250D01*
X156085750Y-96785000D01*
X156650000Y-96788072D01*
X156774482Y-96775812D01*
X156894180Y-96739502D01*
X157004494Y-96680537D01*
X157101185Y-96601185D01*
X157180537Y-96504494D01*
X157239502Y-96394180D01*
X157275812Y-96274482D01*
X157288072Y-96150000D01*
X157286340Y-95831890D01*
X157296956Y-95857519D01*
X157425764Y-96050294D01*
X157589706Y-96214236D01*
X157782481Y-96343044D01*
X157996682Y-96431769D01*
X158224076Y-96477000D01*
X158455924Y-96477000D01*
X158683318Y-96431769D01*
X158897519Y-96343044D01*
X159090294Y-96214236D01*
X159254236Y-96050294D01*
X159383044Y-95857519D01*
X159471769Y-95643318D01*
X159517000Y-95415924D01*
X159517000Y-95184076D01*
X159703000Y-95184076D01*
X159703000Y-95415924D01*
X159748231Y-95643318D01*
X159836956Y-95857519D01*
X159965764Y-96050294D01*
X160129706Y-96214236D01*
X160322481Y-96343044D01*
X160536682Y-96431769D01*
X160764076Y-96477000D01*
X160995924Y-96477000D01*
X161223318Y-96431769D01*
X161437519Y-96343044D01*
X161630294Y-96214236D01*
X161794236Y-96050294D01*
X161923044Y-95857519D01*
X162011769Y-95643318D01*
X162057000Y-95415924D01*
X162057000Y-95184076D01*
X162243000Y-95184076D01*
X162243000Y-95415924D01*
X162288231Y-95643318D01*
X162376956Y-95857519D01*
X162505764Y-96050294D01*
X162669706Y-96214236D01*
X162862481Y-96343044D01*
X163076682Y-96431769D01*
X163304076Y-96477000D01*
X163535924Y-96477000D01*
X163763318Y-96431769D01*
X163977519Y-96343044D01*
X164170294Y-96214236D01*
X164334236Y-96050294D01*
X164463044Y-95857519D01*
X164551769Y-95643318D01*
X164597000Y-95415924D01*
X164597000Y-95184076D01*
X164551769Y-94956682D01*
X164463044Y-94742481D01*
X164334236Y-94549706D01*
X164170294Y-94385764D01*
X163977519Y-94256956D01*
X163763318Y-94168231D01*
X163535924Y-94123000D01*
X163304076Y-94123000D01*
X163076682Y-94168231D01*
X162862481Y-94256956D01*
X162669706Y-94385764D01*
X162505764Y-94549706D01*
X162376956Y-94742481D01*
X162288231Y-94956682D01*
X162243000Y-95184076D01*
X162057000Y-95184076D01*
X162011769Y-94956682D01*
X161923044Y-94742481D01*
X161794236Y-94549706D01*
X161630294Y-94385764D01*
X161437519Y-94256956D01*
X161223318Y-94168231D01*
X160995924Y-94123000D01*
X160764076Y-94123000D01*
X160536682Y-94168231D01*
X160322481Y-94256956D01*
X160129706Y-94385764D01*
X159965764Y-94549706D01*
X159836956Y-94742481D01*
X159748231Y-94956682D01*
X159703000Y-95184076D01*
X159517000Y-95184076D01*
X159471769Y-94956682D01*
X159383044Y-94742481D01*
X159254236Y-94549706D01*
X159090294Y-94385764D01*
X158897519Y-94256956D01*
X158683318Y-94168231D01*
X158455924Y-94123000D01*
X158224076Y-94123000D01*
X157996682Y-94168231D01*
X157782481Y-94256956D01*
X157589706Y-94385764D01*
X157425764Y-94549706D01*
X157296956Y-94742481D01*
X157286340Y-94768110D01*
X157288072Y-94450000D01*
X157275812Y-94325518D01*
X157239502Y-94205820D01*
X157180537Y-94095506D01*
X157101185Y-93998815D01*
X157004494Y-93919463D01*
X156894180Y-93860498D01*
X156774482Y-93824188D01*
X156650000Y-93811928D01*
X156085750Y-93815000D01*
X155927000Y-93973750D01*
X155673000Y-93973750D01*
X155514250Y-93815000D01*
X154950000Y-93811928D01*
X154825518Y-93824188D01*
X154705820Y-93860498D01*
X154595506Y-93919463D01*
X154498815Y-93998815D01*
X154419463Y-94095506D01*
X154360498Y-94205820D01*
X154324188Y-94325518D01*
X154311928Y-94450000D01*
X152973676Y-94450000D01*
X152964698Y-94436564D01*
X152927000Y-94398866D01*
X152927000Y-93015879D01*
X152929549Y-92989998D01*
X152919374Y-92886688D01*
X152889239Y-92787348D01*
X152840304Y-92695796D01*
X152774448Y-92615550D01*
X152754339Y-92599047D01*
X151527000Y-91371709D01*
X151527000Y-91225877D01*
X151529549Y-91199999D01*
X151527000Y-91174119D01*
X151527000Y-85627000D01*
X156481711Y-85627000D01*
X157073000Y-86218290D01*
X157073000Y-86271603D01*
X157100938Y-86412058D01*
X157155741Y-86544364D01*
X157235302Y-86663436D01*
X157336564Y-86764698D01*
X157455636Y-86844259D01*
X157587942Y-86899062D01*
X157728397Y-86927000D01*
X157871603Y-86927000D01*
X158012058Y-86899062D01*
X158144364Y-86844259D01*
X158263436Y-86764698D01*
X158364698Y-86663436D01*
X158444259Y-86544364D01*
X158499062Y-86412058D01*
X158527000Y-86271603D01*
X158527000Y-86128397D01*
X158499062Y-85987942D01*
X158444259Y-85855636D01*
X158364698Y-85736564D01*
X158263436Y-85635302D01*
X158144364Y-85555741D01*
X158012058Y-85500938D01*
X157871603Y-85473000D01*
X157818290Y-85473000D01*
X157090955Y-84745666D01*
X157074448Y-84725552D01*
X156994202Y-84659696D01*
X156902650Y-84610761D01*
X156803310Y-84580626D01*
X156725881Y-84573000D01*
X156700000Y-84570451D01*
X156674119Y-84573000D01*
X151501134Y-84573000D01*
X151463436Y-84535302D01*
X151344364Y-84455741D01*
X151212058Y-84400938D01*
X151071603Y-84373000D01*
X150928397Y-84373000D01*
X150787942Y-84400938D01*
X150655636Y-84455741D01*
X150536564Y-84535302D01*
X150435302Y-84636564D01*
X150355741Y-84755636D01*
X150300938Y-84887942D01*
X150273000Y-85028397D01*
X150273000Y-85171603D01*
X150300938Y-85312058D01*
X150355741Y-85444364D01*
X150435302Y-85563436D01*
X150473001Y-85601135D01*
X150473000Y-90426181D01*
X150412058Y-90400938D01*
X150271603Y-90373000D01*
X150128397Y-90373000D01*
X149987942Y-90400938D01*
X149855636Y-90455741D01*
X149736564Y-90535302D01*
X149635302Y-90636564D01*
X149555741Y-90755636D01*
X149500938Y-90887942D01*
X149473000Y-91028397D01*
X139602000Y-91028397D01*
X139602000Y-82102000D01*
X165973000Y-82102000D01*
X165973000Y-98900000D01*
M02*
