G04 #@! TF.GenerationSoftware,KiCad,Pcbnew,(5.1.6)-1*
G04 #@! TF.CreationDate,2021-04-21T10:38:01+02:00*
G04 #@! TF.ProjectId,LactateStat_v1,4c616374-6174-4655-9374-61745f76312e,rev?*
G04 #@! TF.SameCoordinates,Original*
G04 #@! TF.FileFunction,Legend,Bot*
G04 #@! TF.FilePolarity,Positive*
%FSLAX46Y46*%
G04 Gerber Fmt 4.6, Leading zero omitted, Abs format (unit mm)*
G04 Created by KiCad (PCBNEW (5.1.6)-1) date 2021-04-21 10:38:01*
%MOMM*%
%LPD*%
G01*
G04 APERTURE LIST*
%ADD10C,0.180000*%
G04 APERTURE END LIST*
D10*
X152714285Y-105052857D02*
X153285714Y-105052857D01*
X153285714Y-103852857D01*
X151800000Y-105052857D02*
X151800000Y-104424285D01*
X151857142Y-104310000D01*
X151971428Y-104252857D01*
X152200000Y-104252857D01*
X152314285Y-104310000D01*
X151800000Y-104995714D02*
X151914285Y-105052857D01*
X152200000Y-105052857D01*
X152314285Y-104995714D01*
X152371428Y-104881428D01*
X152371428Y-104767142D01*
X152314285Y-104652857D01*
X152200000Y-104595714D01*
X151914285Y-104595714D01*
X151800000Y-104538571D01*
X150714285Y-104995714D02*
X150828571Y-105052857D01*
X151057142Y-105052857D01*
X151171428Y-104995714D01*
X151228571Y-104938571D01*
X151285714Y-104824285D01*
X151285714Y-104481428D01*
X151228571Y-104367142D01*
X151171428Y-104310000D01*
X151057142Y-104252857D01*
X150828571Y-104252857D01*
X150714285Y-104310000D01*
X150371428Y-104252857D02*
X149914285Y-104252857D01*
X150200000Y-103852857D02*
X150200000Y-104881428D01*
X150142857Y-104995714D01*
X150028571Y-105052857D01*
X149914285Y-105052857D01*
X149000000Y-105052857D02*
X149000000Y-104424285D01*
X149057142Y-104310000D01*
X149171428Y-104252857D01*
X149400000Y-104252857D01*
X149514285Y-104310000D01*
X149000000Y-104995714D02*
X149114285Y-105052857D01*
X149400000Y-105052857D01*
X149514285Y-104995714D01*
X149571428Y-104881428D01*
X149571428Y-104767142D01*
X149514285Y-104652857D01*
X149400000Y-104595714D01*
X149114285Y-104595714D01*
X149000000Y-104538571D01*
X148600000Y-104252857D02*
X148142857Y-104252857D01*
X148428571Y-103852857D02*
X148428571Y-104881428D01*
X148371428Y-104995714D01*
X148257142Y-105052857D01*
X148142857Y-105052857D01*
X147285714Y-104995714D02*
X147400000Y-105052857D01*
X147628571Y-105052857D01*
X147742857Y-104995714D01*
X147800000Y-104881428D01*
X147800000Y-104424285D01*
X147742857Y-104310000D01*
X147628571Y-104252857D01*
X147400000Y-104252857D01*
X147285714Y-104310000D01*
X147228571Y-104424285D01*
X147228571Y-104538571D01*
X147800000Y-104652857D01*
X146771428Y-104995714D02*
X146600000Y-105052857D01*
X146314285Y-105052857D01*
X146200000Y-104995714D01*
X146142857Y-104938571D01*
X146085714Y-104824285D01*
X146085714Y-104710000D01*
X146142857Y-104595714D01*
X146200000Y-104538571D01*
X146314285Y-104481428D01*
X146542857Y-104424285D01*
X146657142Y-104367142D01*
X146714285Y-104310000D01*
X146771428Y-104195714D01*
X146771428Y-104081428D01*
X146714285Y-103967142D01*
X146657142Y-103910000D01*
X146542857Y-103852857D01*
X146257142Y-103852857D01*
X146085714Y-103910000D01*
X145742857Y-104252857D02*
X145285714Y-104252857D01*
X145571428Y-103852857D02*
X145571428Y-104881428D01*
X145514285Y-104995714D01*
X145400000Y-105052857D01*
X145285714Y-105052857D01*
X144371428Y-105052857D02*
X144371428Y-104424285D01*
X144428571Y-104310000D01*
X144542857Y-104252857D01*
X144771428Y-104252857D01*
X144885714Y-104310000D01*
X144371428Y-104995714D02*
X144485714Y-105052857D01*
X144771428Y-105052857D01*
X144885714Y-104995714D01*
X144942857Y-104881428D01*
X144942857Y-104767142D01*
X144885714Y-104652857D01*
X144771428Y-104595714D01*
X144485714Y-104595714D01*
X144371428Y-104538571D01*
X143971428Y-104252857D02*
X143514285Y-104252857D01*
X143800000Y-103852857D02*
X143800000Y-104881428D01*
X143742857Y-104995714D01*
X143628571Y-105052857D01*
X143514285Y-105052857D01*
X142314285Y-104252857D02*
X142028571Y-105052857D01*
X141742857Y-104252857D01*
X140657142Y-105052857D02*
X141342857Y-105052857D01*
X141000000Y-105052857D02*
X141000000Y-103852857D01*
X141114285Y-104024285D01*
X141228571Y-104138571D01*
X141342857Y-104195714D01*
X152600000Y-106404285D02*
X152200000Y-106404285D01*
X152028571Y-107032857D02*
X152600000Y-107032857D01*
X152600000Y-105832857D01*
X152028571Y-105832857D01*
X151514285Y-107032857D02*
X151514285Y-106232857D01*
X151514285Y-106347142D02*
X151457142Y-106290000D01*
X151342857Y-106232857D01*
X151171428Y-106232857D01*
X151057142Y-106290000D01*
X151000000Y-106404285D01*
X151000000Y-107032857D01*
X151000000Y-106404285D02*
X150942857Y-106290000D01*
X150828571Y-106232857D01*
X150657142Y-106232857D01*
X150542857Y-106290000D01*
X150485714Y-106404285D01*
X150485714Y-107032857D01*
X149914285Y-107032857D02*
X149914285Y-106232857D01*
X149914285Y-105832857D02*
X149971428Y-105890000D01*
X149914285Y-105947142D01*
X149857142Y-105890000D01*
X149914285Y-105832857D01*
X149914285Y-105947142D01*
X149171428Y-107032857D02*
X149285714Y-106975714D01*
X149342857Y-106861428D01*
X149342857Y-105832857D01*
X147800000Y-106404285D02*
X147400000Y-106404285D01*
X147228571Y-107032857D02*
X147800000Y-107032857D01*
X147800000Y-105832857D01*
X147228571Y-105832857D01*
X146714285Y-107032857D02*
X146714285Y-105832857D01*
X146600000Y-106575714D02*
X146257142Y-107032857D01*
X146257142Y-106232857D02*
X146714285Y-106690000D01*
X145285714Y-106975714D02*
X145400000Y-107032857D01*
X145628571Y-107032857D01*
X145742857Y-106975714D01*
X145800000Y-106861428D01*
X145800000Y-106404285D01*
X145742857Y-106290000D01*
X145628571Y-106232857D01*
X145400000Y-106232857D01*
X145285714Y-106290000D01*
X145228571Y-106404285D01*
X145228571Y-106518571D01*
X145800000Y-106632857D01*
X144542857Y-107032857D02*
X144657142Y-106975714D01*
X144714285Y-106861428D01*
X144714285Y-105832857D01*
X143571428Y-106232857D02*
X143571428Y-107032857D01*
X144085714Y-106232857D02*
X144085714Y-106861428D01*
X144028571Y-106975714D01*
X143914285Y-107032857D01*
X143742857Y-107032857D01*
X143628571Y-106975714D01*
X143571428Y-106918571D01*
X143000000Y-106232857D02*
X143000000Y-107032857D01*
X143000000Y-106347142D02*
X142942857Y-106290000D01*
X142828571Y-106232857D01*
X142657142Y-106232857D01*
X142542857Y-106290000D01*
X142485714Y-106404285D01*
X142485714Y-107032857D01*
X141400000Y-107032857D02*
X141400000Y-105832857D01*
X141400000Y-106975714D02*
X141514285Y-107032857D01*
X141742857Y-107032857D01*
X141857142Y-106975714D01*
X141914285Y-106918571D01*
X141971428Y-106804285D01*
X141971428Y-106461428D01*
X141914285Y-106347142D01*
X141857142Y-106290000D01*
X141742857Y-106232857D01*
X141514285Y-106232857D01*
X141400000Y-106290000D01*
M02*
