G04 #@! TF.GenerationSoftware,KiCad,Pcbnew,(5.1.6)-1*
G04 #@! TF.CreationDate,2021-04-21T10:38:01+02:00*
G04 #@! TF.ProjectId,LactateStat_v1,4c616374-6174-4655-9374-61745f76312e,rev?*
G04 #@! TF.SameCoordinates,Original*
G04 #@! TF.FileFunction,Soldermask,Top*
G04 #@! TF.FilePolarity,Negative*
%FSLAX46Y46*%
G04 Gerber Fmt 4.6, Leading zero omitted, Abs format (unit mm)*
G04 Created by KiCad (PCBNEW (5.1.6)-1) date 2021-04-21 10:38:01*
%MOMM*%
%LPD*%
G01*
G04 APERTURE LIST*
%ADD10C,0.100000*%
G04 APERTURE END LIST*
D10*
G36*
X163987618Y-105958943D02*
G01*
X163987621Y-105958944D01*
X163987622Y-105958944D01*
X164091109Y-105990336D01*
X164091111Y-105990337D01*
X164186485Y-106041315D01*
X164259032Y-106100853D01*
X164270080Y-106109920D01*
X164315817Y-106165651D01*
X164338686Y-106193517D01*
X164341695Y-106199147D01*
X164389664Y-106288890D01*
X164417470Y-106380556D01*
X164421057Y-106392381D01*
X164429000Y-106473028D01*
X164429000Y-107526972D01*
X164421057Y-107607619D01*
X164389663Y-107711112D01*
X164338686Y-107806483D01*
X164270080Y-107890080D01*
X164186483Y-107958686D01*
X164091112Y-108009663D01*
X164091110Y-108009664D01*
X163987623Y-108041056D01*
X163987622Y-108041056D01*
X163987619Y-108041057D01*
X163880000Y-108051657D01*
X163772382Y-108041057D01*
X163772379Y-108041056D01*
X163772378Y-108041056D01*
X163668891Y-108009664D01*
X163668889Y-108009663D01*
X163573518Y-107958686D01*
X163489921Y-107890080D01*
X163421315Y-107806483D01*
X163370338Y-107711112D01*
X163338944Y-107607619D01*
X163331001Y-107526972D01*
X163331000Y-106473029D01*
X163338943Y-106392382D01*
X163338944Y-106392378D01*
X163370336Y-106288891D01*
X163418305Y-106199147D01*
X163421315Y-106193515D01*
X163489918Y-106109922D01*
X163489923Y-106109918D01*
X163573516Y-106041315D01*
X163573515Y-106041315D01*
X163573517Y-106041314D01*
X163668888Y-105990337D01*
X163668890Y-105990336D01*
X163772377Y-105958944D01*
X163772378Y-105958944D01*
X163772381Y-105958943D01*
X163880000Y-105948343D01*
X163987618Y-105958943D01*
G37*
G36*
X172627618Y-105958943D02*
G01*
X172627621Y-105958944D01*
X172627622Y-105958944D01*
X172731109Y-105990336D01*
X172731111Y-105990337D01*
X172826485Y-106041315D01*
X172899032Y-106100853D01*
X172910080Y-106109920D01*
X172955817Y-106165651D01*
X172978686Y-106193517D01*
X172981695Y-106199147D01*
X173029664Y-106288890D01*
X173057470Y-106380556D01*
X173061057Y-106392381D01*
X173069000Y-106473028D01*
X173069000Y-107526972D01*
X173061057Y-107607619D01*
X173029663Y-107711112D01*
X172978686Y-107806483D01*
X172910080Y-107890080D01*
X172826483Y-107958686D01*
X172731112Y-108009663D01*
X172731110Y-108009664D01*
X172627623Y-108041056D01*
X172627622Y-108041056D01*
X172627619Y-108041057D01*
X172520000Y-108051657D01*
X172412382Y-108041057D01*
X172412379Y-108041056D01*
X172412378Y-108041056D01*
X172308891Y-108009664D01*
X172308889Y-108009663D01*
X172213518Y-107958686D01*
X172129921Y-107890080D01*
X172061315Y-107806483D01*
X172010338Y-107711112D01*
X171978944Y-107607619D01*
X171971001Y-107526972D01*
X171971000Y-106473029D01*
X171978943Y-106392382D01*
X171978944Y-106392378D01*
X172010336Y-106288891D01*
X172058305Y-106199147D01*
X172061315Y-106193515D01*
X172129918Y-106109922D01*
X172129923Y-106109918D01*
X172213516Y-106041315D01*
X172213515Y-106041315D01*
X172213517Y-106041314D01*
X172308888Y-105990337D01*
X172308890Y-105990336D01*
X172412377Y-105958944D01*
X172412378Y-105958944D01*
X172412381Y-105958943D01*
X172520000Y-105948343D01*
X172627618Y-105958943D01*
G37*
G36*
X156397350Y-105660589D02*
G01*
X156445554Y-105670177D01*
X156536365Y-105707792D01*
X156618095Y-105762402D01*
X156687598Y-105831905D01*
X156742208Y-105913635D01*
X156779823Y-106004446D01*
X156799000Y-106100854D01*
X156799000Y-106199146D01*
X156779823Y-106295554D01*
X156742208Y-106386365D01*
X156687598Y-106468095D01*
X156618095Y-106537598D01*
X156536365Y-106592208D01*
X156445554Y-106629823D01*
X156397350Y-106639412D01*
X156349147Y-106649000D01*
X156250853Y-106649000D01*
X156202650Y-106639411D01*
X156154446Y-106629823D01*
X156063635Y-106592208D01*
X155981905Y-106537598D01*
X155912402Y-106468095D01*
X155857792Y-106386365D01*
X155820177Y-106295554D01*
X155801000Y-106199146D01*
X155801000Y-106100854D01*
X155820177Y-106004446D01*
X155857792Y-105913635D01*
X155912402Y-105831905D01*
X155981905Y-105762402D01*
X156063635Y-105707792D01*
X156154446Y-105670177D01*
X156202650Y-105660589D01*
X156250853Y-105651000D01*
X156349147Y-105651000D01*
X156397350Y-105660589D01*
G37*
G36*
X150560949Y-105784057D02*
G01*
X150588406Y-105792386D01*
X150613711Y-105805912D01*
X150635888Y-105824112D01*
X150654088Y-105846289D01*
X150667614Y-105871594D01*
X150675943Y-105899051D01*
X150679000Y-105930091D01*
X150679000Y-106369909D01*
X150675943Y-106400949D01*
X150667614Y-106428406D01*
X150654088Y-106453711D01*
X150635888Y-106475888D01*
X150613711Y-106494088D01*
X150588406Y-106507614D01*
X150560949Y-106515943D01*
X150529909Y-106519000D01*
X150140091Y-106519000D01*
X150109051Y-106515943D01*
X150081594Y-106507614D01*
X150056289Y-106494088D01*
X150034112Y-106475888D01*
X150015912Y-106453711D01*
X150002386Y-106428406D01*
X149994057Y-106400949D01*
X149991000Y-106369909D01*
X149991000Y-105930091D01*
X149994057Y-105899051D01*
X150002386Y-105871594D01*
X150015912Y-105846289D01*
X150034112Y-105824112D01*
X150056289Y-105805912D01*
X150081594Y-105792386D01*
X150109051Y-105784057D01*
X150140091Y-105781000D01*
X150529909Y-105781000D01*
X150560949Y-105784057D01*
G37*
G36*
X149590949Y-105784057D02*
G01*
X149618406Y-105792386D01*
X149643711Y-105805912D01*
X149665888Y-105824112D01*
X149684088Y-105846289D01*
X149697614Y-105871594D01*
X149705943Y-105899051D01*
X149709000Y-105930091D01*
X149709000Y-106369909D01*
X149705943Y-106400949D01*
X149697614Y-106428406D01*
X149684088Y-106453711D01*
X149665888Y-106475888D01*
X149643711Y-106494088D01*
X149618406Y-106507614D01*
X149590949Y-106515943D01*
X149559909Y-106519000D01*
X149170091Y-106519000D01*
X149139051Y-106515943D01*
X149111594Y-106507614D01*
X149086289Y-106494088D01*
X149064112Y-106475888D01*
X149045912Y-106453711D01*
X149032386Y-106428406D01*
X149024057Y-106400949D01*
X149021000Y-106369909D01*
X149021000Y-105930091D01*
X149024057Y-105899051D01*
X149032386Y-105871594D01*
X149045912Y-105846289D01*
X149064112Y-105824112D01*
X149086289Y-105805912D01*
X149111594Y-105792386D01*
X149139051Y-105784057D01*
X149170091Y-105781000D01*
X149559909Y-105781000D01*
X149590949Y-105784057D01*
G37*
G36*
X145295949Y-105234057D02*
G01*
X145323406Y-105242386D01*
X145348711Y-105255912D01*
X145370888Y-105274112D01*
X145389088Y-105296289D01*
X145402614Y-105321594D01*
X145410943Y-105349051D01*
X145414000Y-105380091D01*
X145414000Y-105819909D01*
X145410943Y-105850949D01*
X145402614Y-105878406D01*
X145389088Y-105903711D01*
X145370888Y-105925888D01*
X145348711Y-105944088D01*
X145323406Y-105957614D01*
X145295949Y-105965943D01*
X145264909Y-105969000D01*
X144875091Y-105969000D01*
X144844051Y-105965943D01*
X144816594Y-105957614D01*
X144791289Y-105944088D01*
X144769112Y-105925888D01*
X144750912Y-105903711D01*
X144737386Y-105878406D01*
X144729057Y-105850949D01*
X144726000Y-105819909D01*
X144726000Y-105380091D01*
X144729057Y-105349051D01*
X144737386Y-105321594D01*
X144750912Y-105296289D01*
X144769112Y-105274112D01*
X144791289Y-105255912D01*
X144816594Y-105242386D01*
X144844051Y-105234057D01*
X144875091Y-105231000D01*
X145264909Y-105231000D01*
X145295949Y-105234057D01*
G37*
G36*
X144325949Y-105234057D02*
G01*
X144353406Y-105242386D01*
X144378711Y-105255912D01*
X144400888Y-105274112D01*
X144419088Y-105296289D01*
X144432614Y-105321594D01*
X144440943Y-105349051D01*
X144444000Y-105380091D01*
X144444000Y-105819909D01*
X144440943Y-105850949D01*
X144432614Y-105878406D01*
X144419088Y-105903711D01*
X144400888Y-105925888D01*
X144378711Y-105944088D01*
X144353406Y-105957614D01*
X144325949Y-105965943D01*
X144294909Y-105969000D01*
X143905091Y-105969000D01*
X143874051Y-105965943D01*
X143846594Y-105957614D01*
X143821289Y-105944088D01*
X143799112Y-105925888D01*
X143780912Y-105903711D01*
X143767386Y-105878406D01*
X143759057Y-105850949D01*
X143756000Y-105819909D01*
X143756000Y-105380091D01*
X143759057Y-105349051D01*
X143767386Y-105321594D01*
X143780912Y-105296289D01*
X143799112Y-105274112D01*
X143821289Y-105255912D01*
X143846594Y-105242386D01*
X143874051Y-105234057D01*
X143905091Y-105231000D01*
X144294909Y-105231000D01*
X144325949Y-105234057D01*
G37*
G36*
X154799000Y-105899000D02*
G01*
X153301000Y-105899000D01*
X153301000Y-104601000D01*
X154799000Y-104601000D01*
X154799000Y-105899000D01*
G37*
G36*
X150724000Y-105379000D02*
G01*
X149976000Y-105379000D01*
X149976000Y-104221000D01*
X150724000Y-104221000D01*
X150724000Y-105379000D01*
G37*
G36*
X151674000Y-105379000D02*
G01*
X150926000Y-105379000D01*
X150926000Y-104221000D01*
X151674000Y-104221000D01*
X151674000Y-105379000D01*
G37*
G36*
X152624000Y-105379000D02*
G01*
X151876000Y-105379000D01*
X151876000Y-104221000D01*
X152624000Y-104221000D01*
X152624000Y-105379000D01*
G37*
G36*
X144259182Y-104453144D02*
G01*
X144277730Y-104458771D01*
X144294822Y-104467907D01*
X144309801Y-104480199D01*
X144322093Y-104495178D01*
X144331229Y-104512269D01*
X144331388Y-104512793D01*
X144335199Y-104521993D01*
X144340731Y-104530273D01*
X144347773Y-104537315D01*
X144356053Y-104542847D01*
X144365253Y-104546658D01*
X144375020Y-104548601D01*
X144384979Y-104548601D01*
X144394746Y-104546659D01*
X144403946Y-104542848D01*
X144412226Y-104537316D01*
X144419268Y-104530274D01*
X144424800Y-104521994D01*
X144428612Y-104512793D01*
X144428771Y-104512269D01*
X144437907Y-104495178D01*
X144450199Y-104480199D01*
X144465178Y-104467907D01*
X144482270Y-104458771D01*
X144500818Y-104453144D01*
X144522591Y-104451000D01*
X144877409Y-104451000D01*
X144899182Y-104453144D01*
X144917730Y-104458771D01*
X144934822Y-104467907D01*
X144949801Y-104480199D01*
X144962093Y-104495178D01*
X144971229Y-104512270D01*
X144976856Y-104530818D01*
X144979000Y-104552591D01*
X144979000Y-104847409D01*
X144976856Y-104869182D01*
X144971229Y-104887730D01*
X144962093Y-104904822D01*
X144949801Y-104919801D01*
X144934822Y-104932093D01*
X144917730Y-104941229D01*
X144899182Y-104946856D01*
X144877409Y-104949000D01*
X144522591Y-104949000D01*
X144500818Y-104946856D01*
X144482270Y-104941229D01*
X144465178Y-104932093D01*
X144450199Y-104919801D01*
X144437907Y-104904822D01*
X144428771Y-104887731D01*
X144428612Y-104887207D01*
X144424801Y-104878007D01*
X144419269Y-104869727D01*
X144412227Y-104862685D01*
X144403947Y-104857153D01*
X144394747Y-104853342D01*
X144384980Y-104851399D01*
X144375021Y-104851399D01*
X144365254Y-104853341D01*
X144356054Y-104857152D01*
X144347774Y-104862684D01*
X144340732Y-104869726D01*
X144335200Y-104878006D01*
X144331388Y-104887207D01*
X144331229Y-104887731D01*
X144322093Y-104904822D01*
X144309801Y-104919801D01*
X144294822Y-104932093D01*
X144277730Y-104941229D01*
X144259182Y-104946856D01*
X144237409Y-104949000D01*
X143882591Y-104949000D01*
X143860818Y-104946856D01*
X143842270Y-104941229D01*
X143825178Y-104932093D01*
X143810199Y-104919801D01*
X143797907Y-104904822D01*
X143788771Y-104887730D01*
X143783144Y-104869182D01*
X143781000Y-104847409D01*
X143781000Y-104552591D01*
X143783144Y-104530818D01*
X143788771Y-104512270D01*
X143797907Y-104495178D01*
X143810199Y-104480199D01*
X143825178Y-104467907D01*
X143842270Y-104458771D01*
X143860818Y-104453144D01*
X143882591Y-104451000D01*
X144237409Y-104451000D01*
X144259182Y-104453144D01*
G37*
G36*
X161460138Y-103592098D02*
G01*
X161560046Y-103633481D01*
X161560049Y-103633483D01*
X161649967Y-103693564D01*
X161726436Y-103770033D01*
X161762878Y-103824573D01*
X161786519Y-103859954D01*
X161827902Y-103959862D01*
X161849000Y-104065928D01*
X161849000Y-104174072D01*
X161827902Y-104280138D01*
X161786519Y-104380046D01*
X161786517Y-104380049D01*
X161726436Y-104469967D01*
X161649967Y-104546436D01*
X161606469Y-104575500D01*
X161560046Y-104606519D01*
X161460138Y-104647902D01*
X161354072Y-104669000D01*
X161245928Y-104669000D01*
X161139862Y-104647902D01*
X161039954Y-104606519D01*
X160993531Y-104575500D01*
X160950033Y-104546436D01*
X160873564Y-104469967D01*
X160813483Y-104380049D01*
X160813481Y-104380046D01*
X160772098Y-104280138D01*
X160751000Y-104174072D01*
X160751000Y-104065928D01*
X160772098Y-103959862D01*
X160813481Y-103859954D01*
X160837122Y-103824573D01*
X160873564Y-103770033D01*
X160950033Y-103693564D01*
X161039951Y-103633483D01*
X161039954Y-103633481D01*
X161139862Y-103592098D01*
X161245928Y-103571000D01*
X161354072Y-103571000D01*
X161460138Y-103592098D01*
G37*
G36*
X163992519Y-101729304D02*
G01*
X164100721Y-101762127D01*
X164135690Y-101780818D01*
X164200439Y-101815427D01*
X164287843Y-101887157D01*
X164359573Y-101974560D01*
X164361415Y-101978007D01*
X164412873Y-102074278D01*
X164445696Y-102182480D01*
X164454000Y-102266797D01*
X164454000Y-103373203D01*
X164445696Y-103457520D01*
X164412873Y-103565722D01*
X164388938Y-103610502D01*
X164359573Y-103665440D01*
X164287843Y-103752843D01*
X164200440Y-103824573D01*
X164150582Y-103851222D01*
X164100722Y-103877873D01*
X163992520Y-103910696D01*
X163880000Y-103921778D01*
X163767481Y-103910696D01*
X163659279Y-103877873D01*
X163609419Y-103851222D01*
X163559561Y-103824573D01*
X163472158Y-103752843D01*
X163400428Y-103665440D01*
X163371063Y-103610502D01*
X163347128Y-103565722D01*
X163314305Y-103457520D01*
X163306001Y-103373203D01*
X163306000Y-102266798D01*
X163314304Y-102182481D01*
X163347127Y-102074279D01*
X163380130Y-102012535D01*
X163400427Y-101974561D01*
X163400430Y-101974557D01*
X163472155Y-101887159D01*
X163472160Y-101887155D01*
X163559560Y-101815427D01*
X163609418Y-101788778D01*
X163659278Y-101762127D01*
X163767480Y-101729304D01*
X163880000Y-101718222D01*
X163992519Y-101729304D01*
G37*
G36*
X172632519Y-101729304D02*
G01*
X172740721Y-101762127D01*
X172775690Y-101780818D01*
X172840439Y-101815427D01*
X172927843Y-101887157D01*
X172999573Y-101974560D01*
X173001415Y-101978007D01*
X173052873Y-102074278D01*
X173085696Y-102182480D01*
X173094000Y-102266797D01*
X173094000Y-103373203D01*
X173085696Y-103457520D01*
X173052873Y-103565722D01*
X173028938Y-103610502D01*
X172999573Y-103665440D01*
X172927843Y-103752843D01*
X172840440Y-103824573D01*
X172790582Y-103851222D01*
X172740722Y-103877873D01*
X172632520Y-103910696D01*
X172520000Y-103921778D01*
X172407481Y-103910696D01*
X172299279Y-103877873D01*
X172249419Y-103851222D01*
X172199561Y-103824573D01*
X172112158Y-103752843D01*
X172040428Y-103665440D01*
X172011063Y-103610502D01*
X171987128Y-103565722D01*
X171954305Y-103457520D01*
X171946001Y-103373203D01*
X171946000Y-102266798D01*
X171954304Y-102182481D01*
X171987127Y-102074279D01*
X172020130Y-102012535D01*
X172040427Y-101974561D01*
X172040430Y-101974557D01*
X172112155Y-101887159D01*
X172112160Y-101887155D01*
X172199560Y-101815427D01*
X172249418Y-101788778D01*
X172299278Y-101762127D01*
X172407480Y-101729304D01*
X172520000Y-101718222D01*
X172632519Y-101729304D01*
G37*
G36*
X165349000Y-102904741D02*
G01*
X165349976Y-102914651D01*
X165352867Y-102924181D01*
X165357561Y-102932963D01*
X165363879Y-102940661D01*
X165371577Y-102946979D01*
X165380359Y-102951673D01*
X165389878Y-102954561D01*
X165390292Y-102954644D01*
X165400196Y-102955620D01*
X165410107Y-102954645D01*
X165415691Y-102952952D01*
X165417962Y-102955719D01*
X165425660Y-102962037D01*
X165434435Y-102966727D01*
X165487156Y-102988565D01*
X165548411Y-103029495D01*
X165600505Y-103081589D01*
X165641435Y-103142844D01*
X165669628Y-103210908D01*
X165684000Y-103283164D01*
X165684000Y-103356836D01*
X165669628Y-103429092D01*
X165641435Y-103497156D01*
X165600505Y-103558411D01*
X165548411Y-103610505D01*
X165487156Y-103651435D01*
X165419092Y-103679628D01*
X165346836Y-103694000D01*
X165273164Y-103694000D01*
X165200908Y-103679628D01*
X165132844Y-103651435D01*
X165071589Y-103610505D01*
X165019495Y-103558411D01*
X164978565Y-103497156D01*
X164950372Y-103429092D01*
X164936000Y-103356836D01*
X164936000Y-103283164D01*
X164950372Y-103210908D01*
X164978565Y-103142844D01*
X165019495Y-103081589D01*
X165071589Y-103029495D01*
X165132844Y-102988565D01*
X165185565Y-102966727D01*
X165194340Y-102962037D01*
X165202038Y-102955720D01*
X165208356Y-102948022D01*
X165213050Y-102939239D01*
X165215941Y-102929710D01*
X165216917Y-102919799D01*
X165215941Y-102909889D01*
X165213050Y-102900359D01*
X165208356Y-102891577D01*
X165202039Y-102883879D01*
X165194341Y-102877561D01*
X165185558Y-102872867D01*
X165176029Y-102869976D01*
X165166118Y-102869000D01*
X164651000Y-102869000D01*
X164651000Y-101621000D01*
X165349000Y-101621000D01*
X165349000Y-102904741D01*
G37*
G36*
X171749000Y-102869000D02*
G01*
X171233882Y-102869000D01*
X171223972Y-102869976D01*
X171214442Y-102872867D01*
X171205660Y-102877561D01*
X171197962Y-102883879D01*
X171191644Y-102891577D01*
X171186950Y-102900359D01*
X171184059Y-102909889D01*
X171183083Y-102919799D01*
X171184059Y-102929709D01*
X171186950Y-102939239D01*
X171191644Y-102948021D01*
X171197962Y-102955719D01*
X171205660Y-102962037D01*
X171214435Y-102966727D01*
X171267156Y-102988565D01*
X171328411Y-103029495D01*
X171380505Y-103081589D01*
X171421435Y-103142844D01*
X171449628Y-103210908D01*
X171464000Y-103283164D01*
X171464000Y-103356836D01*
X171449628Y-103429092D01*
X171421435Y-103497156D01*
X171380505Y-103558411D01*
X171328411Y-103610505D01*
X171267156Y-103651435D01*
X171199092Y-103679628D01*
X171126836Y-103694000D01*
X171053164Y-103694000D01*
X170980908Y-103679628D01*
X170912844Y-103651435D01*
X170851589Y-103610505D01*
X170799495Y-103558411D01*
X170758565Y-103497156D01*
X170730372Y-103429092D01*
X170716000Y-103356836D01*
X170716000Y-103283164D01*
X170730372Y-103210908D01*
X170758565Y-103142844D01*
X170799495Y-103081589D01*
X170851589Y-103029495D01*
X170912844Y-102988565D01*
X170965565Y-102966727D01*
X170974340Y-102962037D01*
X170982038Y-102955720D01*
X170984310Y-102952952D01*
X170989889Y-102954644D01*
X170999799Y-102955620D01*
X171009708Y-102954644D01*
X171010122Y-102954561D01*
X171019645Y-102951671D01*
X171028427Y-102946976D01*
X171036125Y-102940658D01*
X171042441Y-102932960D01*
X171047135Y-102924177D01*
X171050025Y-102914647D01*
X171051000Y-102904741D01*
X171051000Y-101621000D01*
X171749000Y-101621000D01*
X171749000Y-102869000D01*
G37*
G36*
X161849000Y-103399000D02*
G01*
X160751000Y-103399000D01*
X160751000Y-102301000D01*
X161849000Y-102301000D01*
X161849000Y-103399000D01*
G37*
G36*
X159299000Y-103399000D02*
G01*
X157801000Y-103399000D01*
X157801000Y-102101000D01*
X159299000Y-102101000D01*
X159299000Y-103399000D01*
G37*
G36*
X150724000Y-103179000D02*
G01*
X149976000Y-103179000D01*
X149976000Y-102021000D01*
X150724000Y-102021000D01*
X150724000Y-103179000D01*
G37*
G36*
X152624000Y-103179000D02*
G01*
X151876000Y-103179000D01*
X151876000Y-102021000D01*
X152624000Y-102021000D01*
X152624000Y-103179000D01*
G37*
G36*
X145295949Y-102334057D02*
G01*
X145323406Y-102342386D01*
X145348711Y-102355912D01*
X145370888Y-102374112D01*
X145389088Y-102396289D01*
X145402614Y-102421594D01*
X145410943Y-102449051D01*
X145414000Y-102480091D01*
X145414000Y-102919909D01*
X145410943Y-102950949D01*
X145402614Y-102978406D01*
X145389088Y-103003711D01*
X145370888Y-103025888D01*
X145348711Y-103044088D01*
X145323406Y-103057614D01*
X145295949Y-103065943D01*
X145264909Y-103069000D01*
X144875091Y-103069000D01*
X144844051Y-103065943D01*
X144816594Y-103057614D01*
X144791289Y-103044088D01*
X144769112Y-103025888D01*
X144750912Y-103003711D01*
X144737386Y-102978406D01*
X144729057Y-102950949D01*
X144726000Y-102919909D01*
X144726000Y-102480091D01*
X144729057Y-102449051D01*
X144737386Y-102421594D01*
X144750912Y-102396289D01*
X144769112Y-102374112D01*
X144791289Y-102355912D01*
X144816594Y-102342386D01*
X144844051Y-102334057D01*
X144875091Y-102331000D01*
X145264909Y-102331000D01*
X145295949Y-102334057D01*
G37*
G36*
X144325949Y-102334057D02*
G01*
X144353406Y-102342386D01*
X144378711Y-102355912D01*
X144400888Y-102374112D01*
X144419088Y-102396289D01*
X144432614Y-102421594D01*
X144440943Y-102449051D01*
X144444000Y-102480091D01*
X144444000Y-102919909D01*
X144440943Y-102950949D01*
X144432614Y-102978406D01*
X144419088Y-103003711D01*
X144400888Y-103025888D01*
X144378711Y-103044088D01*
X144353406Y-103057614D01*
X144325949Y-103065943D01*
X144294909Y-103069000D01*
X143905091Y-103069000D01*
X143874051Y-103065943D01*
X143846594Y-103057614D01*
X143821289Y-103044088D01*
X143799112Y-103025888D01*
X143780912Y-103003711D01*
X143767386Y-102978406D01*
X143759057Y-102950949D01*
X143756000Y-102919909D01*
X143756000Y-102480091D01*
X143759057Y-102449051D01*
X143767386Y-102421594D01*
X143780912Y-102396289D01*
X143799112Y-102374112D01*
X143821289Y-102355912D01*
X143846594Y-102342386D01*
X143874051Y-102334057D01*
X143905091Y-102331000D01*
X144294909Y-102331000D01*
X144325949Y-102334057D01*
G37*
G36*
X166149000Y-102869000D02*
G01*
X165453882Y-102869000D01*
X165451000Y-102869284D01*
X165451000Y-101621000D01*
X166149000Y-101621000D01*
X166149000Y-102869000D01*
G37*
G36*
X170949000Y-102869284D02*
G01*
X170946118Y-102869000D01*
X170251000Y-102869000D01*
X170251000Y-101621000D01*
X170949000Y-101621000D01*
X170949000Y-102869284D01*
G37*
G36*
X167149000Y-102869000D02*
G01*
X166751000Y-102869000D01*
X166751000Y-101621000D01*
X167149000Y-101621000D01*
X167149000Y-102869000D01*
G37*
G36*
X168649000Y-102869000D02*
G01*
X168251000Y-102869000D01*
X168251000Y-101621000D01*
X168649000Y-101621000D01*
X168649000Y-102869000D01*
G37*
G36*
X168149000Y-102869000D02*
G01*
X167751000Y-102869000D01*
X167751000Y-101621000D01*
X168149000Y-101621000D01*
X168149000Y-102869000D01*
G37*
G36*
X169149000Y-102869000D02*
G01*
X168751000Y-102869000D01*
X168751000Y-101621000D01*
X169149000Y-101621000D01*
X169149000Y-102869000D01*
G37*
G36*
X169649000Y-102869000D02*
G01*
X169251000Y-102869000D01*
X169251000Y-101621000D01*
X169649000Y-101621000D01*
X169649000Y-102869000D01*
G37*
G36*
X166649000Y-102869000D02*
G01*
X166251000Y-102869000D01*
X166251000Y-101621000D01*
X166649000Y-101621000D01*
X166649000Y-102869000D01*
G37*
G36*
X170149000Y-102869000D02*
G01*
X169751000Y-102869000D01*
X169751000Y-101621000D01*
X170149000Y-101621000D01*
X170149000Y-102869000D01*
G37*
G36*
X167649000Y-102869000D02*
G01*
X167251000Y-102869000D01*
X167251000Y-101621000D01*
X167649000Y-101621000D01*
X167649000Y-102869000D01*
G37*
G36*
X144299182Y-101553144D02*
G01*
X144317730Y-101558771D01*
X144334822Y-101567907D01*
X144349801Y-101580199D01*
X144362093Y-101595178D01*
X144371229Y-101612269D01*
X144371388Y-101612793D01*
X144375199Y-101621993D01*
X144380731Y-101630273D01*
X144387773Y-101637315D01*
X144396053Y-101642847D01*
X144405253Y-101646658D01*
X144415020Y-101648601D01*
X144424979Y-101648601D01*
X144434746Y-101646659D01*
X144443946Y-101642848D01*
X144452226Y-101637316D01*
X144459268Y-101630274D01*
X144464800Y-101621994D01*
X144468612Y-101612793D01*
X144468771Y-101612269D01*
X144477907Y-101595178D01*
X144490199Y-101580199D01*
X144505178Y-101567907D01*
X144522270Y-101558771D01*
X144540818Y-101553144D01*
X144562591Y-101551000D01*
X144917409Y-101551000D01*
X144939182Y-101553144D01*
X144957730Y-101558771D01*
X144974822Y-101567907D01*
X144989801Y-101580199D01*
X145002093Y-101595178D01*
X145011229Y-101612270D01*
X145016856Y-101630818D01*
X145019000Y-101652591D01*
X145019000Y-101947409D01*
X145016856Y-101969182D01*
X145011229Y-101987730D01*
X145002093Y-102004822D01*
X144989801Y-102019801D01*
X144974822Y-102032093D01*
X144957730Y-102041229D01*
X144939182Y-102046856D01*
X144917409Y-102049000D01*
X144562591Y-102049000D01*
X144540818Y-102046856D01*
X144522270Y-102041229D01*
X144505178Y-102032093D01*
X144490199Y-102019801D01*
X144477907Y-102004822D01*
X144468771Y-101987731D01*
X144468612Y-101987207D01*
X144464801Y-101978007D01*
X144459269Y-101969727D01*
X144452227Y-101962685D01*
X144443947Y-101957153D01*
X144434747Y-101953342D01*
X144424980Y-101951399D01*
X144415021Y-101951399D01*
X144405254Y-101953341D01*
X144396054Y-101957152D01*
X144387774Y-101962684D01*
X144380732Y-101969726D01*
X144375200Y-101978006D01*
X144371388Y-101987207D01*
X144371229Y-101987731D01*
X144362093Y-102004822D01*
X144349801Y-102019801D01*
X144334822Y-102032093D01*
X144317730Y-102041229D01*
X144299182Y-102046856D01*
X144277409Y-102049000D01*
X143922591Y-102049000D01*
X143900818Y-102046856D01*
X143882270Y-102041229D01*
X143865178Y-102032093D01*
X143850199Y-102019801D01*
X143837907Y-102004822D01*
X143828771Y-101987730D01*
X143823144Y-101969182D01*
X143821000Y-101947409D01*
X143821000Y-101652591D01*
X143823144Y-101630818D01*
X143828771Y-101612270D01*
X143837907Y-101595178D01*
X143850199Y-101580199D01*
X143865178Y-101567907D01*
X143882270Y-101558771D01*
X143900818Y-101553144D01*
X143922591Y-101551000D01*
X144277409Y-101551000D01*
X144299182Y-101553144D01*
G37*
G36*
X149540949Y-100834057D02*
G01*
X149568406Y-100842386D01*
X149593711Y-100855912D01*
X149615888Y-100874112D01*
X149634088Y-100896289D01*
X149647614Y-100921594D01*
X149655943Y-100949051D01*
X149659000Y-100980091D01*
X149659000Y-101419909D01*
X149655943Y-101450949D01*
X149647614Y-101478406D01*
X149634088Y-101503711D01*
X149615888Y-101525888D01*
X149593711Y-101544088D01*
X149568406Y-101557614D01*
X149540949Y-101565943D01*
X149509909Y-101569000D01*
X149120091Y-101569000D01*
X149089051Y-101565943D01*
X149061594Y-101557614D01*
X149036289Y-101544088D01*
X149014112Y-101525888D01*
X148995912Y-101503711D01*
X148982386Y-101478406D01*
X148974057Y-101450949D01*
X148971000Y-101419909D01*
X148971000Y-100980091D01*
X148974057Y-100949051D01*
X148982386Y-100921594D01*
X148995912Y-100896289D01*
X149014112Y-100874112D01*
X149036289Y-100855912D01*
X149061594Y-100842386D01*
X149089051Y-100834057D01*
X149120091Y-100831000D01*
X149509909Y-100831000D01*
X149540949Y-100834057D01*
G37*
G36*
X150510949Y-100834057D02*
G01*
X150538406Y-100842386D01*
X150563711Y-100855912D01*
X150585888Y-100874112D01*
X150604088Y-100896289D01*
X150617614Y-100921594D01*
X150625943Y-100949051D01*
X150629000Y-100980091D01*
X150629000Y-101419909D01*
X150625943Y-101450949D01*
X150617614Y-101478406D01*
X150604088Y-101503711D01*
X150585888Y-101525888D01*
X150563711Y-101544088D01*
X150538406Y-101557614D01*
X150510949Y-101565943D01*
X150479909Y-101569000D01*
X150090091Y-101569000D01*
X150059051Y-101565943D01*
X150031594Y-101557614D01*
X150006289Y-101544088D01*
X149984112Y-101525888D01*
X149965912Y-101503711D01*
X149952386Y-101478406D01*
X149944057Y-101450949D01*
X149941000Y-101419909D01*
X149941000Y-100980091D01*
X149944057Y-100949051D01*
X149952386Y-100921594D01*
X149965912Y-100896289D01*
X149984112Y-100874112D01*
X150006289Y-100855912D01*
X150031594Y-100842386D01*
X150059051Y-100834057D01*
X150090091Y-100831000D01*
X150479909Y-100831000D01*
X150510949Y-100834057D01*
G37*
G36*
X169159182Y-100753144D02*
G01*
X169177730Y-100758771D01*
X169194822Y-100767907D01*
X169209801Y-100780199D01*
X169222093Y-100795178D01*
X169231229Y-100812269D01*
X169231388Y-100812793D01*
X169235199Y-100821993D01*
X169240731Y-100830273D01*
X169247773Y-100837315D01*
X169256053Y-100842847D01*
X169265253Y-100846658D01*
X169275020Y-100848601D01*
X169284979Y-100848601D01*
X169294746Y-100846659D01*
X169303946Y-100842848D01*
X169312226Y-100837316D01*
X169319268Y-100830274D01*
X169324800Y-100821994D01*
X169328612Y-100812793D01*
X169328771Y-100812269D01*
X169337907Y-100795178D01*
X169350199Y-100780199D01*
X169365178Y-100767907D01*
X169382270Y-100758771D01*
X169400818Y-100753144D01*
X169422591Y-100751000D01*
X169777409Y-100751000D01*
X169799182Y-100753144D01*
X169817730Y-100758771D01*
X169834822Y-100767907D01*
X169849801Y-100780199D01*
X169862093Y-100795178D01*
X169871229Y-100812270D01*
X169876856Y-100830818D01*
X169879000Y-100852591D01*
X169879000Y-101147409D01*
X169876856Y-101169182D01*
X169871229Y-101187730D01*
X169862093Y-101204822D01*
X169849801Y-101219801D01*
X169834822Y-101232093D01*
X169817730Y-101241229D01*
X169799182Y-101246856D01*
X169777409Y-101249000D01*
X169422591Y-101249000D01*
X169400818Y-101246856D01*
X169382270Y-101241229D01*
X169365178Y-101232093D01*
X169350199Y-101219801D01*
X169337907Y-101204822D01*
X169328771Y-101187731D01*
X169328612Y-101187207D01*
X169324801Y-101178007D01*
X169319269Y-101169727D01*
X169312227Y-101162685D01*
X169303947Y-101157153D01*
X169294747Y-101153342D01*
X169284980Y-101151399D01*
X169275021Y-101151399D01*
X169265254Y-101153341D01*
X169256054Y-101157152D01*
X169247774Y-101162684D01*
X169240732Y-101169726D01*
X169235200Y-101178006D01*
X169231388Y-101187207D01*
X169231229Y-101187731D01*
X169222093Y-101204822D01*
X169209801Y-101219801D01*
X169194822Y-101232093D01*
X169177730Y-101241229D01*
X169159182Y-101246856D01*
X169137409Y-101249000D01*
X168782591Y-101249000D01*
X168760818Y-101246856D01*
X168742270Y-101241229D01*
X168725178Y-101232093D01*
X168710199Y-101219801D01*
X168697907Y-101204822D01*
X168688771Y-101187730D01*
X168683144Y-101169182D01*
X168681000Y-101147409D01*
X168681000Y-100852591D01*
X168683144Y-100830818D01*
X168688771Y-100812270D01*
X168697907Y-100795178D01*
X168710199Y-100780199D01*
X168725178Y-100767907D01*
X168742270Y-100758771D01*
X168760818Y-100753144D01*
X168782591Y-100751000D01*
X169137409Y-100751000D01*
X169159182Y-100753144D01*
G37*
G36*
X166859182Y-100753144D02*
G01*
X166877730Y-100758771D01*
X166894822Y-100767907D01*
X166909801Y-100780199D01*
X166922093Y-100795178D01*
X166931229Y-100812269D01*
X166931388Y-100812793D01*
X166935199Y-100821993D01*
X166940731Y-100830273D01*
X166947773Y-100837315D01*
X166956053Y-100842847D01*
X166965253Y-100846658D01*
X166975020Y-100848601D01*
X166984979Y-100848601D01*
X166994746Y-100846659D01*
X167003946Y-100842848D01*
X167012226Y-100837316D01*
X167019268Y-100830274D01*
X167024800Y-100821994D01*
X167028612Y-100812793D01*
X167028771Y-100812269D01*
X167037907Y-100795178D01*
X167050199Y-100780199D01*
X167065178Y-100767907D01*
X167082270Y-100758771D01*
X167100818Y-100753144D01*
X167122591Y-100751000D01*
X167477409Y-100751000D01*
X167499182Y-100753144D01*
X167517730Y-100758771D01*
X167534822Y-100767907D01*
X167549801Y-100780199D01*
X167562093Y-100795178D01*
X167571229Y-100812270D01*
X167576856Y-100830818D01*
X167579000Y-100852591D01*
X167579000Y-101147409D01*
X167576856Y-101169182D01*
X167571229Y-101187730D01*
X167562093Y-101204822D01*
X167549801Y-101219801D01*
X167534822Y-101232093D01*
X167517730Y-101241229D01*
X167499182Y-101246856D01*
X167477409Y-101249000D01*
X167122591Y-101249000D01*
X167100818Y-101246856D01*
X167082270Y-101241229D01*
X167065178Y-101232093D01*
X167050199Y-101219801D01*
X167037907Y-101204822D01*
X167028771Y-101187731D01*
X167028612Y-101187207D01*
X167024801Y-101178007D01*
X167019269Y-101169727D01*
X167012227Y-101162685D01*
X167003947Y-101157153D01*
X166994747Y-101153342D01*
X166984980Y-101151399D01*
X166975021Y-101151399D01*
X166965254Y-101153341D01*
X166956054Y-101157152D01*
X166947774Y-101162684D01*
X166940732Y-101169726D01*
X166935200Y-101178006D01*
X166931388Y-101187207D01*
X166931229Y-101187731D01*
X166922093Y-101204822D01*
X166909801Y-101219801D01*
X166894822Y-101232093D01*
X166877730Y-101241229D01*
X166859182Y-101246856D01*
X166837409Y-101249000D01*
X166482591Y-101249000D01*
X166460818Y-101246856D01*
X166442270Y-101241229D01*
X166425178Y-101232093D01*
X166410199Y-101219801D01*
X166397907Y-101204822D01*
X166388771Y-101187730D01*
X166383144Y-101169182D01*
X166381000Y-101147409D01*
X166381000Y-100852591D01*
X166383144Y-100830818D01*
X166388771Y-100812270D01*
X166397907Y-100795178D01*
X166410199Y-100780199D01*
X166425178Y-100767907D01*
X166442270Y-100758771D01*
X166460818Y-100753144D01*
X166482591Y-100751000D01*
X166837409Y-100751000D01*
X166859182Y-100753144D01*
G37*
G36*
X154799000Y-100899000D02*
G01*
X153301000Y-100899000D01*
X153301000Y-99601000D01*
X154799000Y-99601000D01*
X154799000Y-100899000D01*
G37*
G36*
X160025949Y-99934057D02*
G01*
X160053406Y-99942386D01*
X160078711Y-99955912D01*
X160100888Y-99974112D01*
X160119088Y-99996289D01*
X160132614Y-100021594D01*
X160140943Y-100049051D01*
X160144000Y-100080091D01*
X160144000Y-100519909D01*
X160140943Y-100550949D01*
X160132614Y-100578406D01*
X160119088Y-100603711D01*
X160100888Y-100625888D01*
X160078711Y-100644088D01*
X160053406Y-100657614D01*
X160025949Y-100665943D01*
X159994909Y-100669000D01*
X159605091Y-100669000D01*
X159574051Y-100665943D01*
X159546594Y-100657614D01*
X159521289Y-100644088D01*
X159499112Y-100625888D01*
X159480912Y-100603711D01*
X159467386Y-100578406D01*
X159459057Y-100550949D01*
X159456000Y-100519909D01*
X159456000Y-100080091D01*
X159459057Y-100049051D01*
X159467386Y-100021594D01*
X159480912Y-99996289D01*
X159499112Y-99974112D01*
X159521289Y-99955912D01*
X159546594Y-99942386D01*
X159574051Y-99934057D01*
X159605091Y-99931000D01*
X159994909Y-99931000D01*
X160025949Y-99934057D01*
G37*
G36*
X159055949Y-99934057D02*
G01*
X159083406Y-99942386D01*
X159108711Y-99955912D01*
X159130888Y-99974112D01*
X159149088Y-99996289D01*
X159162614Y-100021594D01*
X159170943Y-100049051D01*
X159174000Y-100080091D01*
X159174000Y-100519909D01*
X159170943Y-100550949D01*
X159162614Y-100578406D01*
X159149088Y-100603711D01*
X159130888Y-100625888D01*
X159108711Y-100644088D01*
X159083406Y-100657614D01*
X159055949Y-100665943D01*
X159024909Y-100669000D01*
X158635091Y-100669000D01*
X158604051Y-100665943D01*
X158576594Y-100657614D01*
X158551289Y-100644088D01*
X158529112Y-100625888D01*
X158510912Y-100603711D01*
X158497386Y-100578406D01*
X158489057Y-100550949D01*
X158486000Y-100519909D01*
X158486000Y-100080091D01*
X158489057Y-100049051D01*
X158497386Y-100021594D01*
X158510912Y-99996289D01*
X158529112Y-99974112D01*
X158551289Y-99955912D01*
X158576594Y-99942386D01*
X158604051Y-99934057D01*
X158635091Y-99931000D01*
X159024909Y-99931000D01*
X159055949Y-99934057D01*
G37*
G36*
X161679000Y-100624000D02*
G01*
X160521000Y-100624000D01*
X160521000Y-99876000D01*
X161679000Y-99876000D01*
X161679000Y-100624000D01*
G37*
G36*
X163879000Y-100624000D02*
G01*
X162721000Y-100624000D01*
X162721000Y-99876000D01*
X163879000Y-99876000D01*
X163879000Y-100624000D01*
G37*
G36*
X164950949Y-99929057D02*
G01*
X164978406Y-99937386D01*
X165003711Y-99950912D01*
X165025888Y-99969112D01*
X165044088Y-99991289D01*
X165057614Y-100016594D01*
X165065943Y-100044051D01*
X165069000Y-100075091D01*
X165069000Y-100464909D01*
X165065943Y-100495949D01*
X165057614Y-100523406D01*
X165044088Y-100548711D01*
X165025888Y-100570888D01*
X165003711Y-100589088D01*
X164978406Y-100602614D01*
X164950949Y-100610943D01*
X164919909Y-100614000D01*
X164480091Y-100614000D01*
X164449051Y-100610943D01*
X164421594Y-100602614D01*
X164396289Y-100589088D01*
X164374112Y-100570888D01*
X164355912Y-100548711D01*
X164342386Y-100523406D01*
X164334057Y-100495949D01*
X164331000Y-100464909D01*
X164331000Y-100075091D01*
X164334057Y-100044051D01*
X164342386Y-100016594D01*
X164355912Y-99991289D01*
X164374112Y-99969112D01*
X164396289Y-99950912D01*
X164421594Y-99937386D01*
X164449051Y-99929057D01*
X164480091Y-99926000D01*
X164919909Y-99926000D01*
X164950949Y-99929057D01*
G37*
G36*
X156397350Y-98860588D02*
G01*
X156445554Y-98870177D01*
X156536365Y-98907792D01*
X156618095Y-98962402D01*
X156687598Y-99031905D01*
X156742208Y-99113635D01*
X156779823Y-99204446D01*
X156799000Y-99300854D01*
X156799000Y-99399146D01*
X156779823Y-99495554D01*
X156742208Y-99586365D01*
X156687598Y-99668095D01*
X156618095Y-99737598D01*
X156536365Y-99792208D01*
X156445554Y-99829823D01*
X156397350Y-99839412D01*
X156349147Y-99849000D01*
X156250853Y-99849000D01*
X156202650Y-99839412D01*
X156154446Y-99829823D01*
X156063635Y-99792208D01*
X155981905Y-99737598D01*
X155912402Y-99668095D01*
X155857792Y-99586365D01*
X155820177Y-99495554D01*
X155801000Y-99399146D01*
X155801000Y-99300854D01*
X155820177Y-99204446D01*
X155857792Y-99113635D01*
X155912402Y-99031905D01*
X155981905Y-98962402D01*
X156063635Y-98907792D01*
X156154446Y-98870177D01*
X156202650Y-98860589D01*
X156250853Y-98851000D01*
X156349147Y-98851000D01*
X156397350Y-98860588D01*
G37*
G36*
X161679000Y-99674000D02*
G01*
X160521000Y-99674000D01*
X160521000Y-98926000D01*
X161679000Y-98926000D01*
X161679000Y-99674000D01*
G37*
G36*
X164950949Y-98959057D02*
G01*
X164978406Y-98967386D01*
X165003711Y-98980912D01*
X165025888Y-98999112D01*
X165044088Y-99021289D01*
X165057614Y-99046594D01*
X165065943Y-99074051D01*
X165069000Y-99105091D01*
X165069000Y-99494909D01*
X165065943Y-99525949D01*
X165057614Y-99553406D01*
X165044088Y-99578711D01*
X165025888Y-99600888D01*
X165003711Y-99619088D01*
X164978406Y-99632614D01*
X164950949Y-99640943D01*
X164919909Y-99644000D01*
X164480091Y-99644000D01*
X164449051Y-99640943D01*
X164421594Y-99632614D01*
X164396289Y-99619088D01*
X164374112Y-99600888D01*
X164355912Y-99578711D01*
X164342386Y-99553406D01*
X164334057Y-99525949D01*
X164331000Y-99494909D01*
X164331000Y-99105091D01*
X164334057Y-99074051D01*
X164342386Y-99046594D01*
X164355912Y-99021289D01*
X164374112Y-98999112D01*
X164396289Y-98980912D01*
X164421594Y-98967386D01*
X164449051Y-98959057D01*
X164480091Y-98956000D01*
X164919909Y-98956000D01*
X164950949Y-98959057D01*
G37*
G36*
X142849000Y-99249000D02*
G01*
X141051000Y-99249000D01*
X141051000Y-97451000D01*
X142849000Y-97451000D01*
X142849000Y-99249000D01*
G37*
G36*
X163879000Y-98724000D02*
G01*
X162721000Y-98724000D01*
X162721000Y-97976000D01*
X163879000Y-97976000D01*
X163879000Y-98724000D01*
G37*
G36*
X161679000Y-98724000D02*
G01*
X160521000Y-98724000D01*
X160521000Y-97976000D01*
X161679000Y-97976000D01*
X161679000Y-98724000D01*
G37*
G36*
X159625949Y-97334057D02*
G01*
X159653406Y-97342386D01*
X159678711Y-97355912D01*
X159700888Y-97374112D01*
X159719088Y-97396289D01*
X159732614Y-97421594D01*
X159740943Y-97449051D01*
X159744000Y-97480091D01*
X159744000Y-97919909D01*
X159740943Y-97950949D01*
X159732614Y-97978406D01*
X159719088Y-98003711D01*
X159700888Y-98025888D01*
X159678711Y-98044088D01*
X159653406Y-98057614D01*
X159625949Y-98065943D01*
X159594909Y-98069000D01*
X159205091Y-98069000D01*
X159174051Y-98065943D01*
X159146594Y-98057614D01*
X159121289Y-98044088D01*
X159099112Y-98025888D01*
X159080912Y-98003711D01*
X159067386Y-97978406D01*
X159059057Y-97950949D01*
X159056000Y-97919909D01*
X159056000Y-97480091D01*
X159059057Y-97449051D01*
X159067386Y-97421594D01*
X159080912Y-97396289D01*
X159099112Y-97374112D01*
X159121289Y-97355912D01*
X159146594Y-97342386D01*
X159174051Y-97334057D01*
X159205091Y-97331000D01*
X159594909Y-97331000D01*
X159625949Y-97334057D01*
G37*
G36*
X158655949Y-97334057D02*
G01*
X158683406Y-97342386D01*
X158708711Y-97355912D01*
X158730888Y-97374112D01*
X158749088Y-97396289D01*
X158762614Y-97421594D01*
X158770943Y-97449051D01*
X158774000Y-97480091D01*
X158774000Y-97919909D01*
X158770943Y-97950949D01*
X158762614Y-97978406D01*
X158749088Y-98003711D01*
X158730888Y-98025888D01*
X158708711Y-98044088D01*
X158683406Y-98057614D01*
X158655949Y-98065943D01*
X158624909Y-98069000D01*
X158235091Y-98069000D01*
X158204051Y-98065943D01*
X158176594Y-98057614D01*
X158151289Y-98044088D01*
X158129112Y-98025888D01*
X158110912Y-98003711D01*
X158097386Y-97978406D01*
X158089057Y-97950949D01*
X158086000Y-97919909D01*
X158086000Y-97480091D01*
X158089057Y-97449051D01*
X158097386Y-97421594D01*
X158110912Y-97396289D01*
X158129112Y-97374112D01*
X158151289Y-97355912D01*
X158176594Y-97342386D01*
X158204051Y-97334057D01*
X158235091Y-97331000D01*
X158624909Y-97331000D01*
X158655949Y-97334057D01*
G37*
G36*
X142212229Y-94945548D02*
G01*
X142375837Y-95013316D01*
X142523081Y-95111702D01*
X142648298Y-95236919D01*
X142746684Y-95384163D01*
X142814452Y-95547771D01*
X142849000Y-95721456D01*
X142849000Y-95898544D01*
X142814452Y-96072229D01*
X142746684Y-96235837D01*
X142648298Y-96383081D01*
X142523081Y-96508298D01*
X142375837Y-96606684D01*
X142212229Y-96674452D01*
X142038544Y-96709000D01*
X141861456Y-96709000D01*
X141687771Y-96674452D01*
X141524163Y-96606684D01*
X141376919Y-96508298D01*
X141251702Y-96383081D01*
X141153316Y-96235837D01*
X141085548Y-96072229D01*
X141051000Y-95898544D01*
X141051000Y-95721456D01*
X141085548Y-95547771D01*
X141153316Y-95384163D01*
X141251702Y-95236919D01*
X141376919Y-95111702D01*
X141524163Y-95013316D01*
X141687771Y-94945548D01*
X141861456Y-94911000D01*
X142038544Y-94911000D01*
X142212229Y-94945548D01*
G37*
G36*
X161142229Y-94435548D02*
G01*
X161305837Y-94503316D01*
X161453081Y-94601702D01*
X161578298Y-94726919D01*
X161676684Y-94874163D01*
X161744452Y-95037771D01*
X161779000Y-95211456D01*
X161779000Y-95388544D01*
X161744452Y-95562229D01*
X161676684Y-95725837D01*
X161578298Y-95873081D01*
X161453081Y-95998298D01*
X161305837Y-96096684D01*
X161142229Y-96164452D01*
X160968544Y-96199000D01*
X160791456Y-96199000D01*
X160617771Y-96164452D01*
X160454163Y-96096684D01*
X160306919Y-95998298D01*
X160181702Y-95873081D01*
X160083316Y-95725837D01*
X160015548Y-95562229D01*
X159981000Y-95388544D01*
X159981000Y-95211456D01*
X160015548Y-95037771D01*
X160083316Y-94874163D01*
X160181702Y-94726919D01*
X160306919Y-94601702D01*
X160454163Y-94503316D01*
X160617771Y-94435548D01*
X160791456Y-94401000D01*
X160968544Y-94401000D01*
X161142229Y-94435548D01*
G37*
G36*
X158602229Y-94435548D02*
G01*
X158765837Y-94503316D01*
X158913081Y-94601702D01*
X159038298Y-94726919D01*
X159136684Y-94874163D01*
X159204452Y-95037771D01*
X159239000Y-95211456D01*
X159239000Y-95388544D01*
X159204452Y-95562229D01*
X159136684Y-95725837D01*
X159038298Y-95873081D01*
X158913081Y-95998298D01*
X158765837Y-96096684D01*
X158602229Y-96164452D01*
X158428544Y-96199000D01*
X158251456Y-96199000D01*
X158077771Y-96164452D01*
X157914163Y-96096684D01*
X157766919Y-95998298D01*
X157641702Y-95873081D01*
X157543316Y-95725837D01*
X157475548Y-95562229D01*
X157441000Y-95388544D01*
X157441000Y-95211456D01*
X157475548Y-95037771D01*
X157543316Y-94874163D01*
X157641702Y-94726919D01*
X157766919Y-94601702D01*
X157914163Y-94503316D01*
X158077771Y-94435548D01*
X158251456Y-94401000D01*
X158428544Y-94401000D01*
X158602229Y-94435548D01*
G37*
G36*
X163682229Y-94435548D02*
G01*
X163845837Y-94503316D01*
X163993081Y-94601702D01*
X164118298Y-94726919D01*
X164216684Y-94874163D01*
X164284452Y-95037771D01*
X164319000Y-95211456D01*
X164319000Y-95388544D01*
X164284452Y-95562229D01*
X164216684Y-95725837D01*
X164118298Y-95873081D01*
X163993081Y-95998298D01*
X163845837Y-96096684D01*
X163682229Y-96164452D01*
X163508544Y-96199000D01*
X163331456Y-96199000D01*
X163157771Y-96164452D01*
X162994163Y-96096684D01*
X162846919Y-95998298D01*
X162721702Y-95873081D01*
X162623316Y-95725837D01*
X162555548Y-95562229D01*
X162521000Y-95388544D01*
X162521000Y-95211456D01*
X162555548Y-95037771D01*
X162623316Y-94874163D01*
X162721702Y-94726919D01*
X162846919Y-94601702D01*
X162994163Y-94503316D01*
X163157771Y-94435548D01*
X163331456Y-94401000D01*
X163508544Y-94401000D01*
X163682229Y-94435548D01*
G37*
G36*
X156699000Y-96199000D02*
G01*
X154901000Y-96199000D01*
X154901000Y-94401000D01*
X156699000Y-94401000D01*
X156699000Y-96199000D01*
G37*
G36*
X148549000Y-95174000D02*
G01*
X147851000Y-95174000D01*
X147851000Y-94826000D01*
X148549000Y-94826000D01*
X148549000Y-95174000D01*
G37*
G36*
X144749000Y-95174000D02*
G01*
X144051000Y-95174000D01*
X144051000Y-94826000D01*
X144749000Y-94826000D01*
X144749000Y-95174000D01*
G37*
G36*
X147624000Y-94849000D02*
G01*
X144926000Y-94849000D01*
X144926000Y-92151000D01*
X147624000Y-92151000D01*
X147624000Y-94849000D01*
G37*
G36*
X148549000Y-94674000D02*
G01*
X147851000Y-94674000D01*
X147851000Y-94326000D01*
X148549000Y-94326000D01*
X148549000Y-94674000D01*
G37*
G36*
X144749000Y-94674000D02*
G01*
X144051000Y-94674000D01*
X144051000Y-94326000D01*
X144749000Y-94326000D01*
X144749000Y-94674000D01*
G37*
G36*
X151640949Y-93634057D02*
G01*
X151668406Y-93642386D01*
X151693711Y-93655912D01*
X151715888Y-93674112D01*
X151734088Y-93696289D01*
X151747614Y-93721594D01*
X151755943Y-93749051D01*
X151759000Y-93780091D01*
X151759000Y-94219909D01*
X151755943Y-94250949D01*
X151747614Y-94278406D01*
X151734088Y-94303711D01*
X151715888Y-94325888D01*
X151693711Y-94344088D01*
X151668406Y-94357614D01*
X151640949Y-94365943D01*
X151609909Y-94369000D01*
X151220091Y-94369000D01*
X151189051Y-94365943D01*
X151161594Y-94357614D01*
X151136289Y-94344088D01*
X151114112Y-94325888D01*
X151095912Y-94303711D01*
X151082386Y-94278406D01*
X151074057Y-94250949D01*
X151071000Y-94219909D01*
X151071000Y-93780091D01*
X151074057Y-93749051D01*
X151082386Y-93721594D01*
X151095912Y-93696289D01*
X151114112Y-93674112D01*
X151136289Y-93655912D01*
X151161594Y-93642386D01*
X151189051Y-93634057D01*
X151220091Y-93631000D01*
X151609909Y-93631000D01*
X151640949Y-93634057D01*
G37*
G36*
X152610949Y-93634057D02*
G01*
X152638406Y-93642386D01*
X152663711Y-93655912D01*
X152685888Y-93674112D01*
X152704088Y-93696289D01*
X152717614Y-93721594D01*
X152725943Y-93749051D01*
X152729000Y-93780091D01*
X152729000Y-94219909D01*
X152725943Y-94250949D01*
X152717614Y-94278406D01*
X152704088Y-94303711D01*
X152685888Y-94325888D01*
X152663711Y-94344088D01*
X152638406Y-94357614D01*
X152610949Y-94365943D01*
X152579909Y-94369000D01*
X152190091Y-94369000D01*
X152159051Y-94365943D01*
X152131594Y-94357614D01*
X152106289Y-94344088D01*
X152084112Y-94325888D01*
X152065912Y-94303711D01*
X152052386Y-94278406D01*
X152044057Y-94250949D01*
X152041000Y-94219909D01*
X152041000Y-93780091D01*
X152044057Y-93749051D01*
X152052386Y-93721594D01*
X152065912Y-93696289D01*
X152084112Y-93674112D01*
X152106289Y-93655912D01*
X152131594Y-93642386D01*
X152159051Y-93634057D01*
X152190091Y-93631000D01*
X152579909Y-93631000D01*
X152610949Y-93634057D01*
G37*
G36*
X148549000Y-94174000D02*
G01*
X147851000Y-94174000D01*
X147851000Y-93826000D01*
X148549000Y-93826000D01*
X148549000Y-94174000D01*
G37*
G36*
X144749000Y-94174000D02*
G01*
X144051000Y-94174000D01*
X144051000Y-93826000D01*
X144749000Y-93826000D01*
X144749000Y-94174000D01*
G37*
G36*
X142212229Y-92405548D02*
G01*
X142375837Y-92473316D01*
X142523081Y-92571702D01*
X142648298Y-92696919D01*
X142746684Y-92844163D01*
X142814452Y-93007771D01*
X142849000Y-93181456D01*
X142849000Y-93358544D01*
X142814452Y-93532229D01*
X142746684Y-93695837D01*
X142648298Y-93843081D01*
X142523081Y-93968298D01*
X142375837Y-94066684D01*
X142212229Y-94134452D01*
X142038544Y-94169000D01*
X141861456Y-94169000D01*
X141687771Y-94134452D01*
X141524163Y-94066684D01*
X141376919Y-93968298D01*
X141251702Y-93843081D01*
X141153316Y-93695837D01*
X141085548Y-93532229D01*
X141051000Y-93358544D01*
X141051000Y-93181456D01*
X141085548Y-93007771D01*
X141153316Y-92844163D01*
X141251702Y-92696919D01*
X141376919Y-92571702D01*
X141524163Y-92473316D01*
X141687771Y-92405548D01*
X141861456Y-92371000D01*
X142038544Y-92371000D01*
X142212229Y-92405548D01*
G37*
G36*
X144749000Y-93674000D02*
G01*
X144051000Y-93674000D01*
X144051000Y-93326000D01*
X144749000Y-93326000D01*
X144749000Y-93674000D01*
G37*
G36*
X148549000Y-93674000D02*
G01*
X147851000Y-93674000D01*
X147851000Y-93326000D01*
X148549000Y-93326000D01*
X148549000Y-93674000D01*
G37*
G36*
X155125596Y-92551417D02*
G01*
X155127262Y-92551922D01*
X155128801Y-92552744D01*
X155130150Y-92553851D01*
X155131257Y-92555200D01*
X155132079Y-92556739D01*
X155132584Y-92558405D01*
X155133001Y-92562633D01*
X155133001Y-93287367D01*
X155132584Y-93291595D01*
X155132079Y-93293261D01*
X155131257Y-93294800D01*
X155130150Y-93296149D01*
X155128801Y-93297256D01*
X155127262Y-93298078D01*
X155125596Y-93298583D01*
X155121368Y-93299000D01*
X154846634Y-93299000D01*
X154842406Y-93298583D01*
X154840740Y-93298078D01*
X154839201Y-93297256D01*
X154837852Y-93296149D01*
X154836745Y-93294800D01*
X154835923Y-93293261D01*
X154835418Y-93291595D01*
X154835001Y-93287367D01*
X154835001Y-92562633D01*
X154835418Y-92558405D01*
X154835923Y-92556739D01*
X154836745Y-92555200D01*
X154837852Y-92553851D01*
X154839201Y-92552744D01*
X154840740Y-92551922D01*
X154842406Y-92551417D01*
X154846634Y-92551000D01*
X155121368Y-92551000D01*
X155125596Y-92551417D01*
G37*
G36*
X154725596Y-92551417D02*
G01*
X154727262Y-92551922D01*
X154728801Y-92552744D01*
X154730150Y-92553851D01*
X154731257Y-92555200D01*
X154732079Y-92556739D01*
X154732584Y-92558405D01*
X154733001Y-92562633D01*
X154733001Y-93287367D01*
X154732584Y-93291595D01*
X154732079Y-93293261D01*
X154731257Y-93294800D01*
X154730150Y-93296149D01*
X154728801Y-93297256D01*
X154727262Y-93298078D01*
X154725596Y-93298583D01*
X154721368Y-93299000D01*
X154446634Y-93299000D01*
X154442406Y-93298583D01*
X154440740Y-93298078D01*
X154439201Y-93297256D01*
X154437852Y-93296149D01*
X154436745Y-93294800D01*
X154435923Y-93293261D01*
X154435418Y-93291595D01*
X154435001Y-93287367D01*
X154435001Y-92562633D01*
X154435418Y-92558405D01*
X154435923Y-92556739D01*
X154436745Y-92555200D01*
X154437852Y-92553851D01*
X154439201Y-92552744D01*
X154440740Y-92551922D01*
X154442406Y-92551417D01*
X154446634Y-92551000D01*
X154721368Y-92551000D01*
X154725596Y-92551417D01*
G37*
G36*
X156725596Y-92551417D02*
G01*
X156727262Y-92551922D01*
X156728801Y-92552744D01*
X156730150Y-92553851D01*
X156731257Y-92555200D01*
X156732079Y-92556739D01*
X156732584Y-92558405D01*
X156733001Y-92562633D01*
X156733001Y-93287367D01*
X156732584Y-93291595D01*
X156732079Y-93293261D01*
X156731257Y-93294800D01*
X156730150Y-93296149D01*
X156728801Y-93297256D01*
X156727262Y-93298078D01*
X156725596Y-93298583D01*
X156721368Y-93299000D01*
X156446634Y-93299000D01*
X156442406Y-93298583D01*
X156440740Y-93298078D01*
X156439201Y-93297256D01*
X156437852Y-93296149D01*
X156436745Y-93294800D01*
X156435923Y-93293261D01*
X156435418Y-93291595D01*
X156435001Y-93287367D01*
X156435001Y-92562633D01*
X156435418Y-92558405D01*
X156435923Y-92556739D01*
X156436745Y-92555200D01*
X156437852Y-92553851D01*
X156439201Y-92552744D01*
X156440740Y-92551922D01*
X156442406Y-92551417D01*
X156446634Y-92551000D01*
X156721368Y-92551000D01*
X156725596Y-92551417D01*
G37*
G36*
X156325596Y-92551417D02*
G01*
X156327262Y-92551922D01*
X156328801Y-92552744D01*
X156330150Y-92553851D01*
X156331257Y-92555200D01*
X156332079Y-92556739D01*
X156332584Y-92558405D01*
X156333001Y-92562633D01*
X156333001Y-93287367D01*
X156332584Y-93291595D01*
X156332079Y-93293261D01*
X156331257Y-93294800D01*
X156330150Y-93296149D01*
X156328801Y-93297256D01*
X156327262Y-93298078D01*
X156325596Y-93298583D01*
X156321368Y-93299000D01*
X156046634Y-93299000D01*
X156042406Y-93298583D01*
X156040740Y-93298078D01*
X156039201Y-93297256D01*
X156037852Y-93296149D01*
X156036745Y-93294800D01*
X156035923Y-93293261D01*
X156035418Y-93291595D01*
X156035001Y-93287367D01*
X156035001Y-92562633D01*
X156035418Y-92558405D01*
X156035923Y-92556739D01*
X156036745Y-92555200D01*
X156037852Y-92553851D01*
X156039201Y-92552744D01*
X156040740Y-92551922D01*
X156042406Y-92551417D01*
X156046634Y-92551000D01*
X156321368Y-92551000D01*
X156325596Y-92551417D01*
G37*
G36*
X155925596Y-92551417D02*
G01*
X155927262Y-92551922D01*
X155928801Y-92552744D01*
X155930150Y-92553851D01*
X155931257Y-92555200D01*
X155932079Y-92556739D01*
X155932584Y-92558405D01*
X155933001Y-92562633D01*
X155933001Y-93287367D01*
X155932584Y-93291595D01*
X155932079Y-93293261D01*
X155931257Y-93294800D01*
X155930150Y-93296149D01*
X155928801Y-93297256D01*
X155927262Y-93298078D01*
X155925596Y-93298583D01*
X155921368Y-93299000D01*
X155646634Y-93299000D01*
X155642406Y-93298583D01*
X155640740Y-93298078D01*
X155639201Y-93297256D01*
X155637852Y-93296149D01*
X155636745Y-93294800D01*
X155635923Y-93293261D01*
X155635418Y-93291595D01*
X155635001Y-93287367D01*
X155635001Y-92562633D01*
X155635418Y-92558405D01*
X155635923Y-92556739D01*
X155636745Y-92555200D01*
X155637852Y-92553851D01*
X155639201Y-92552744D01*
X155640740Y-92551922D01*
X155642406Y-92551417D01*
X155646634Y-92551000D01*
X155921368Y-92551000D01*
X155925596Y-92551417D01*
G37*
G36*
X155525596Y-92551417D02*
G01*
X155527262Y-92551922D01*
X155528801Y-92552744D01*
X155530150Y-92553851D01*
X155531257Y-92555200D01*
X155532079Y-92556739D01*
X155532584Y-92558405D01*
X155533001Y-92562633D01*
X155533001Y-93287367D01*
X155532584Y-93291595D01*
X155532079Y-93293261D01*
X155531257Y-93294800D01*
X155530150Y-93296149D01*
X155528801Y-93297256D01*
X155527262Y-93298078D01*
X155525596Y-93298583D01*
X155521368Y-93299000D01*
X155246634Y-93299000D01*
X155242406Y-93298583D01*
X155240740Y-93298078D01*
X155239201Y-93297256D01*
X155237852Y-93296149D01*
X155236745Y-93294800D01*
X155235923Y-93293261D01*
X155235418Y-93291595D01*
X155235001Y-93287367D01*
X155235001Y-92562633D01*
X155235418Y-92558405D01*
X155235923Y-92556739D01*
X155236745Y-92555200D01*
X155237852Y-92553851D01*
X155239201Y-92552744D01*
X155240740Y-92551922D01*
X155242406Y-92551417D01*
X155246634Y-92551000D01*
X155521368Y-92551000D01*
X155525596Y-92551417D01*
G37*
G36*
X157125596Y-92551417D02*
G01*
X157127262Y-92551922D01*
X157128801Y-92552744D01*
X157130150Y-92553851D01*
X157131257Y-92555200D01*
X157132079Y-92556739D01*
X157132584Y-92558405D01*
X157133001Y-92562633D01*
X157133001Y-93287367D01*
X157132584Y-93291595D01*
X157132079Y-93293261D01*
X157131257Y-93294800D01*
X157130150Y-93296149D01*
X157128801Y-93297256D01*
X157127262Y-93298078D01*
X157125596Y-93298583D01*
X157121368Y-93299000D01*
X156846634Y-93299000D01*
X156842406Y-93298583D01*
X156840740Y-93298078D01*
X156839201Y-93297256D01*
X156837852Y-93296149D01*
X156836745Y-93294800D01*
X156835923Y-93293261D01*
X156835418Y-93291595D01*
X156835001Y-93287367D01*
X156835001Y-92562633D01*
X156835418Y-92558405D01*
X156835923Y-92556739D01*
X156836745Y-92555200D01*
X156837852Y-92553851D01*
X156839201Y-92552744D01*
X156840740Y-92551922D01*
X156842406Y-92551417D01*
X156846634Y-92551000D01*
X157121368Y-92551000D01*
X157125596Y-92551417D01*
G37*
G36*
X154325596Y-92551417D02*
G01*
X154327262Y-92551922D01*
X154328801Y-92552744D01*
X154330150Y-92553851D01*
X154331257Y-92555200D01*
X154332079Y-92556739D01*
X154332584Y-92558405D01*
X154333001Y-92562633D01*
X154333001Y-93287367D01*
X154332584Y-93291595D01*
X154332079Y-93293261D01*
X154331257Y-93294800D01*
X154330150Y-93296149D01*
X154328801Y-93297256D01*
X154327262Y-93298078D01*
X154325596Y-93298583D01*
X154321368Y-93299000D01*
X154046634Y-93299000D01*
X154042406Y-93298583D01*
X154040740Y-93298078D01*
X154039201Y-93297256D01*
X154037852Y-93296149D01*
X154036745Y-93294800D01*
X154035923Y-93293261D01*
X154035418Y-93291595D01*
X154035001Y-93287367D01*
X154035001Y-92562633D01*
X154035418Y-92558405D01*
X154035923Y-92556739D01*
X154036745Y-92555200D01*
X154037852Y-92553851D01*
X154039201Y-92552744D01*
X154040740Y-92551922D01*
X154042406Y-92551417D01*
X154046634Y-92551000D01*
X154321368Y-92551000D01*
X154325596Y-92551417D01*
G37*
G36*
X153125596Y-92551417D02*
G01*
X153127262Y-92551922D01*
X153128801Y-92552744D01*
X153130150Y-92553851D01*
X153131257Y-92555200D01*
X153132079Y-92556739D01*
X153132584Y-92558405D01*
X153133001Y-92562633D01*
X153133001Y-93287367D01*
X153132584Y-93291595D01*
X153132079Y-93293261D01*
X153131257Y-93294800D01*
X153130150Y-93296149D01*
X153128801Y-93297256D01*
X153127262Y-93298078D01*
X153125596Y-93298583D01*
X153121368Y-93299000D01*
X152846634Y-93299000D01*
X152842406Y-93298583D01*
X152840740Y-93298078D01*
X152839201Y-93297256D01*
X152837852Y-93296149D01*
X152836745Y-93294800D01*
X152835923Y-93293261D01*
X152835418Y-93291595D01*
X152835001Y-93287367D01*
X152835001Y-92562633D01*
X152835418Y-92558405D01*
X152835923Y-92556739D01*
X152836745Y-92555200D01*
X152837852Y-92553851D01*
X152839201Y-92552744D01*
X152840740Y-92551922D01*
X152842406Y-92551417D01*
X152846634Y-92551000D01*
X153121368Y-92551000D01*
X153125596Y-92551417D01*
G37*
G36*
X153925596Y-92551417D02*
G01*
X153927262Y-92551922D01*
X153928801Y-92552744D01*
X153930150Y-92553851D01*
X153931257Y-92555200D01*
X153932079Y-92556739D01*
X153932584Y-92558405D01*
X153933001Y-92562633D01*
X153933001Y-93287367D01*
X153932584Y-93291595D01*
X153932079Y-93293261D01*
X153931257Y-93294800D01*
X153930150Y-93296149D01*
X153928801Y-93297256D01*
X153927262Y-93298078D01*
X153925596Y-93298583D01*
X153921368Y-93299000D01*
X153646634Y-93299000D01*
X153642406Y-93298583D01*
X153640740Y-93298078D01*
X153639201Y-93297256D01*
X153637852Y-93296149D01*
X153636745Y-93294800D01*
X153635923Y-93293261D01*
X153635418Y-93291595D01*
X153635001Y-93287367D01*
X153635001Y-92562633D01*
X153635418Y-92558405D01*
X153635923Y-92556739D01*
X153636745Y-92555200D01*
X153637852Y-92553851D01*
X153639201Y-92552744D01*
X153640740Y-92551922D01*
X153642406Y-92551417D01*
X153646634Y-92551000D01*
X153921368Y-92551000D01*
X153925596Y-92551417D01*
G37*
G36*
X153525596Y-92551417D02*
G01*
X153527262Y-92551922D01*
X153528801Y-92552744D01*
X153530150Y-92553851D01*
X153531257Y-92555200D01*
X153532079Y-92556739D01*
X153532584Y-92558405D01*
X153533001Y-92562633D01*
X153533001Y-93287367D01*
X153532584Y-93291595D01*
X153532079Y-93293261D01*
X153531257Y-93294800D01*
X153530150Y-93296149D01*
X153528801Y-93297256D01*
X153527262Y-93298078D01*
X153525596Y-93298583D01*
X153521368Y-93299000D01*
X153246634Y-93299000D01*
X153242406Y-93298583D01*
X153240740Y-93298078D01*
X153239201Y-93297256D01*
X153237852Y-93296149D01*
X153236745Y-93294800D01*
X153235923Y-93293261D01*
X153235418Y-93291595D01*
X153235001Y-93287367D01*
X153235001Y-92562633D01*
X153235418Y-92558405D01*
X153235923Y-92556739D01*
X153236745Y-92555200D01*
X153237852Y-92553851D01*
X153239201Y-92552744D01*
X153240740Y-92551922D01*
X153242406Y-92551417D01*
X153246634Y-92551000D01*
X153521368Y-92551000D01*
X153525596Y-92551417D01*
G37*
G36*
X152725596Y-92551417D02*
G01*
X152727262Y-92551922D01*
X152728801Y-92552744D01*
X152730150Y-92553851D01*
X152731257Y-92555200D01*
X152732079Y-92556739D01*
X152732584Y-92558405D01*
X152733001Y-92562633D01*
X152733001Y-93287367D01*
X152732584Y-93291595D01*
X152732079Y-93293261D01*
X152731257Y-93294800D01*
X152730150Y-93296149D01*
X152728801Y-93297256D01*
X152727262Y-93298078D01*
X152725596Y-93298583D01*
X152721368Y-93299000D01*
X152446634Y-93299000D01*
X152442406Y-93298583D01*
X152440740Y-93298078D01*
X152439201Y-93297256D01*
X152437852Y-93296149D01*
X152436745Y-93294800D01*
X152435923Y-93293261D01*
X152435418Y-93291595D01*
X152435001Y-93287367D01*
X152435001Y-92562633D01*
X152435418Y-92558405D01*
X152435923Y-92556739D01*
X152436745Y-92555200D01*
X152437852Y-92553851D01*
X152439201Y-92552744D01*
X152440740Y-92551922D01*
X152442406Y-92551417D01*
X152446634Y-92551000D01*
X152721368Y-92551000D01*
X152725596Y-92551417D01*
G37*
G36*
X144749000Y-93174000D02*
G01*
X144051000Y-93174000D01*
X144051000Y-92826000D01*
X144749000Y-92826000D01*
X144749000Y-93174000D01*
G37*
G36*
X148549000Y-93174000D02*
G01*
X147851000Y-93174000D01*
X147851000Y-92826000D01*
X148549000Y-92826000D01*
X148549000Y-93174000D01*
G37*
G36*
X149550949Y-92059057D02*
G01*
X149578406Y-92067386D01*
X149603711Y-92080912D01*
X149625888Y-92099112D01*
X149644088Y-92121289D01*
X149657614Y-92146594D01*
X149665943Y-92174051D01*
X149669000Y-92205091D01*
X149669000Y-92594909D01*
X149665943Y-92625949D01*
X149657614Y-92653406D01*
X149644088Y-92678711D01*
X149625888Y-92700888D01*
X149603711Y-92719088D01*
X149578406Y-92732614D01*
X149550949Y-92740943D01*
X149519909Y-92744000D01*
X149080091Y-92744000D01*
X149049051Y-92740943D01*
X149021594Y-92732614D01*
X148996289Y-92719088D01*
X148974112Y-92700888D01*
X148955912Y-92678711D01*
X148942386Y-92653406D01*
X148934057Y-92625949D01*
X148931000Y-92594909D01*
X148931000Y-92205091D01*
X148934057Y-92174051D01*
X148942386Y-92146594D01*
X148955912Y-92121289D01*
X148974112Y-92099112D01*
X148996289Y-92080912D01*
X149021594Y-92067386D01*
X149049051Y-92059057D01*
X149080091Y-92056000D01*
X149519909Y-92056000D01*
X149550949Y-92059057D01*
G37*
G36*
X144749000Y-92674000D02*
G01*
X144051000Y-92674000D01*
X144051000Y-92326000D01*
X144749000Y-92326000D01*
X144749000Y-92674000D01*
G37*
G36*
X148549000Y-92674000D02*
G01*
X147851000Y-92674000D01*
X147851000Y-92326000D01*
X148549000Y-92326000D01*
X148549000Y-92674000D01*
G37*
G36*
X157183001Y-92324000D02*
G01*
X152385001Y-92324000D01*
X152385001Y-87526000D01*
X157183001Y-87526000D01*
X157183001Y-92324000D01*
G37*
G36*
X158150596Y-91976417D02*
G01*
X158152262Y-91976922D01*
X158153801Y-91977744D01*
X158155150Y-91978851D01*
X158156257Y-91980200D01*
X158157079Y-91981739D01*
X158157584Y-91983405D01*
X158158001Y-91987633D01*
X158158001Y-92262367D01*
X158157584Y-92266595D01*
X158157079Y-92268261D01*
X158156257Y-92269800D01*
X158155150Y-92271149D01*
X158153801Y-92272256D01*
X158152262Y-92273078D01*
X158150596Y-92273583D01*
X158146368Y-92274000D01*
X157421634Y-92274000D01*
X157417406Y-92273583D01*
X157415740Y-92273078D01*
X157414201Y-92272256D01*
X157412852Y-92271149D01*
X157411745Y-92269800D01*
X157410923Y-92268261D01*
X157410418Y-92266595D01*
X157410001Y-92262367D01*
X157410001Y-91987633D01*
X157410418Y-91983405D01*
X157410923Y-91981739D01*
X157411745Y-91980200D01*
X157412852Y-91978851D01*
X157414201Y-91977744D01*
X157415740Y-91976922D01*
X157417406Y-91976417D01*
X157421634Y-91976000D01*
X158146368Y-91976000D01*
X158150596Y-91976417D01*
G37*
G36*
X152150596Y-91976417D02*
G01*
X152152262Y-91976922D01*
X152153801Y-91977744D01*
X152155150Y-91978851D01*
X152156257Y-91980200D01*
X152157079Y-91981739D01*
X152157584Y-91983405D01*
X152158001Y-91987633D01*
X152158001Y-92262367D01*
X152157584Y-92266595D01*
X152157079Y-92268261D01*
X152156257Y-92269800D01*
X152155150Y-92271149D01*
X152153801Y-92272256D01*
X152152262Y-92273078D01*
X152150596Y-92273583D01*
X152146368Y-92274000D01*
X151421634Y-92274000D01*
X151417406Y-92273583D01*
X151415740Y-92273078D01*
X151414201Y-92272256D01*
X151412852Y-92271149D01*
X151411745Y-92269800D01*
X151410923Y-92268261D01*
X151410418Y-92266595D01*
X151410001Y-92262367D01*
X151410001Y-91987633D01*
X151410418Y-91983405D01*
X151410923Y-91981739D01*
X151411745Y-91980200D01*
X151412852Y-91978851D01*
X151414201Y-91977744D01*
X151415740Y-91976922D01*
X151417406Y-91976417D01*
X151421634Y-91976000D01*
X152146368Y-91976000D01*
X152150596Y-91976417D01*
G37*
G36*
X144749000Y-92174000D02*
G01*
X144051000Y-92174000D01*
X144051000Y-91826000D01*
X144749000Y-91826000D01*
X144749000Y-92174000D01*
G37*
G36*
X148549000Y-92174000D02*
G01*
X147851000Y-92174000D01*
X147851000Y-91826000D01*
X148549000Y-91826000D01*
X148549000Y-92174000D01*
G37*
G36*
X152150596Y-91576417D02*
G01*
X152152262Y-91576922D01*
X152153801Y-91577744D01*
X152155150Y-91578851D01*
X152156257Y-91580200D01*
X152157079Y-91581739D01*
X152157584Y-91583405D01*
X152158001Y-91587633D01*
X152158001Y-91862367D01*
X152157584Y-91866595D01*
X152157079Y-91868261D01*
X152156257Y-91869800D01*
X152155150Y-91871149D01*
X152153801Y-91872256D01*
X152152262Y-91873078D01*
X152150596Y-91873583D01*
X152146368Y-91874000D01*
X151421634Y-91874000D01*
X151417406Y-91873583D01*
X151415740Y-91873078D01*
X151414201Y-91872256D01*
X151412852Y-91871149D01*
X151411745Y-91869800D01*
X151410923Y-91868261D01*
X151410418Y-91866595D01*
X151410001Y-91862367D01*
X151410001Y-91587633D01*
X151410418Y-91583405D01*
X151410923Y-91581739D01*
X151411745Y-91580200D01*
X151412852Y-91578851D01*
X151414201Y-91577744D01*
X151415740Y-91576922D01*
X151417406Y-91576417D01*
X151421634Y-91576000D01*
X152146368Y-91576000D01*
X152150596Y-91576417D01*
G37*
G36*
X158150596Y-91576417D02*
G01*
X158152262Y-91576922D01*
X158153801Y-91577744D01*
X158155150Y-91578851D01*
X158156257Y-91580200D01*
X158157079Y-91581739D01*
X158157584Y-91583405D01*
X158158001Y-91587633D01*
X158158001Y-91862367D01*
X158157584Y-91866595D01*
X158157079Y-91868261D01*
X158156257Y-91869800D01*
X158155150Y-91871149D01*
X158153801Y-91872256D01*
X158152262Y-91873078D01*
X158150596Y-91873583D01*
X158146368Y-91874000D01*
X157421634Y-91874000D01*
X157417406Y-91873583D01*
X157415740Y-91873078D01*
X157414201Y-91872256D01*
X157412852Y-91871149D01*
X157411745Y-91869800D01*
X157410923Y-91868261D01*
X157410418Y-91866595D01*
X157410001Y-91862367D01*
X157410001Y-91587633D01*
X157410418Y-91583405D01*
X157410923Y-91581739D01*
X157411745Y-91580200D01*
X157412852Y-91578851D01*
X157414201Y-91577744D01*
X157415740Y-91576922D01*
X157417406Y-91576417D01*
X157421634Y-91576000D01*
X158146368Y-91576000D01*
X158150596Y-91576417D01*
G37*
G36*
X149550949Y-91089057D02*
G01*
X149578406Y-91097386D01*
X149603711Y-91110912D01*
X149625888Y-91129112D01*
X149644088Y-91151289D01*
X149657614Y-91176594D01*
X149665943Y-91204051D01*
X149669000Y-91235091D01*
X149669000Y-91624909D01*
X149665943Y-91655949D01*
X149657614Y-91683406D01*
X149644088Y-91708711D01*
X149625888Y-91730888D01*
X149603711Y-91749088D01*
X149578406Y-91762614D01*
X149550949Y-91770943D01*
X149519909Y-91774000D01*
X149080091Y-91774000D01*
X149049051Y-91770943D01*
X149021594Y-91762614D01*
X148996289Y-91749088D01*
X148974112Y-91730888D01*
X148955912Y-91708711D01*
X148942386Y-91683406D01*
X148934057Y-91655949D01*
X148931000Y-91624909D01*
X148931000Y-91235091D01*
X148934057Y-91204051D01*
X148942386Y-91176594D01*
X148955912Y-91151289D01*
X148974112Y-91129112D01*
X148996289Y-91110912D01*
X149021594Y-91097386D01*
X149049051Y-91089057D01*
X149080091Y-91086000D01*
X149519909Y-91086000D01*
X149550949Y-91089057D01*
G37*
G36*
X152150596Y-91176417D02*
G01*
X152152262Y-91176922D01*
X152153801Y-91177744D01*
X152155150Y-91178851D01*
X152156257Y-91180200D01*
X152157079Y-91181739D01*
X152157584Y-91183405D01*
X152158001Y-91187633D01*
X152158001Y-91462367D01*
X152157584Y-91466595D01*
X152157079Y-91468261D01*
X152156257Y-91469800D01*
X152155150Y-91471149D01*
X152153801Y-91472256D01*
X152152262Y-91473078D01*
X152150596Y-91473583D01*
X152146368Y-91474000D01*
X151421634Y-91474000D01*
X151417406Y-91473583D01*
X151415740Y-91473078D01*
X151414201Y-91472256D01*
X151412852Y-91471149D01*
X151411745Y-91469800D01*
X151410923Y-91468261D01*
X151410418Y-91466595D01*
X151410001Y-91462367D01*
X151410001Y-91187633D01*
X151410418Y-91183405D01*
X151410923Y-91181739D01*
X151411745Y-91180200D01*
X151412852Y-91178851D01*
X151414201Y-91177744D01*
X151415740Y-91176922D01*
X151417406Y-91176417D01*
X151421634Y-91176000D01*
X152146368Y-91176000D01*
X152150596Y-91176417D01*
G37*
G36*
X158150596Y-91176417D02*
G01*
X158152262Y-91176922D01*
X158153801Y-91177744D01*
X158155150Y-91178851D01*
X158156257Y-91180200D01*
X158157079Y-91181739D01*
X158157584Y-91183405D01*
X158158001Y-91187633D01*
X158158001Y-91462367D01*
X158157584Y-91466595D01*
X158157079Y-91468261D01*
X158156257Y-91469800D01*
X158155150Y-91471149D01*
X158153801Y-91472256D01*
X158152262Y-91473078D01*
X158150596Y-91473583D01*
X158146368Y-91474000D01*
X157421634Y-91474000D01*
X157417406Y-91473583D01*
X157415740Y-91473078D01*
X157414201Y-91472256D01*
X157412852Y-91471149D01*
X157411745Y-91469800D01*
X157410923Y-91468261D01*
X157410418Y-91466595D01*
X157410001Y-91462367D01*
X157410001Y-91187633D01*
X157410418Y-91183405D01*
X157410923Y-91181739D01*
X157411745Y-91180200D01*
X157412852Y-91178851D01*
X157414201Y-91177744D01*
X157415740Y-91176922D01*
X157417406Y-91176417D01*
X157421634Y-91176000D01*
X158146368Y-91176000D01*
X158150596Y-91176417D01*
G37*
G36*
X158150596Y-90776417D02*
G01*
X158152262Y-90776922D01*
X158153801Y-90777744D01*
X158155150Y-90778851D01*
X158156257Y-90780200D01*
X158157079Y-90781739D01*
X158157584Y-90783405D01*
X158158001Y-90787633D01*
X158158001Y-91062367D01*
X158157584Y-91066595D01*
X158157079Y-91068261D01*
X158156257Y-91069800D01*
X158155150Y-91071149D01*
X158153801Y-91072256D01*
X158152262Y-91073078D01*
X158150596Y-91073583D01*
X158146368Y-91074000D01*
X157421634Y-91074000D01*
X157417406Y-91073583D01*
X157415740Y-91073078D01*
X157414201Y-91072256D01*
X157412852Y-91071149D01*
X157411745Y-91069800D01*
X157410923Y-91068261D01*
X157410418Y-91066595D01*
X157410001Y-91062367D01*
X157410001Y-90787633D01*
X157410418Y-90783405D01*
X157410923Y-90781739D01*
X157411745Y-90780200D01*
X157412852Y-90778851D01*
X157414201Y-90777744D01*
X157415740Y-90776922D01*
X157417406Y-90776417D01*
X157421634Y-90776000D01*
X158146368Y-90776000D01*
X158150596Y-90776417D01*
G37*
G36*
X152150596Y-90776417D02*
G01*
X152152262Y-90776922D01*
X152153801Y-90777744D01*
X152155150Y-90778851D01*
X152156257Y-90780200D01*
X152157079Y-90781739D01*
X152157584Y-90783405D01*
X152158001Y-90787633D01*
X152158001Y-91062367D01*
X152157584Y-91066595D01*
X152157079Y-91068261D01*
X152156257Y-91069800D01*
X152155150Y-91071149D01*
X152153801Y-91072256D01*
X152152262Y-91073078D01*
X152150596Y-91073583D01*
X152146368Y-91074000D01*
X151421634Y-91074000D01*
X151417406Y-91073583D01*
X151415740Y-91073078D01*
X151414201Y-91072256D01*
X151412852Y-91071149D01*
X151411745Y-91069800D01*
X151410923Y-91068261D01*
X151410418Y-91066595D01*
X151410001Y-91062367D01*
X151410001Y-90787633D01*
X151410418Y-90783405D01*
X151410923Y-90781739D01*
X151411745Y-90780200D01*
X151412852Y-90778851D01*
X151414201Y-90777744D01*
X151415740Y-90776922D01*
X151417406Y-90776417D01*
X151421634Y-90776000D01*
X152146368Y-90776000D01*
X152150596Y-90776417D01*
G37*
G36*
X160575949Y-90034057D02*
G01*
X160603406Y-90042386D01*
X160628711Y-90055912D01*
X160650888Y-90074112D01*
X160669088Y-90096289D01*
X160682614Y-90121594D01*
X160690943Y-90149051D01*
X160694000Y-90180091D01*
X160694000Y-90619909D01*
X160690943Y-90650949D01*
X160682614Y-90678406D01*
X160669088Y-90703711D01*
X160650888Y-90725888D01*
X160628711Y-90744088D01*
X160603406Y-90757614D01*
X160575949Y-90765943D01*
X160544909Y-90769000D01*
X160155091Y-90769000D01*
X160124051Y-90765943D01*
X160096594Y-90757614D01*
X160071289Y-90744088D01*
X160049112Y-90725888D01*
X160030912Y-90703711D01*
X160017386Y-90678406D01*
X160009057Y-90650949D01*
X160006000Y-90619909D01*
X160006000Y-90180091D01*
X160009057Y-90149051D01*
X160017386Y-90121594D01*
X160030912Y-90096289D01*
X160049112Y-90074112D01*
X160071289Y-90055912D01*
X160096594Y-90042386D01*
X160124051Y-90034057D01*
X160155091Y-90031000D01*
X160544909Y-90031000D01*
X160575949Y-90034057D01*
G37*
G36*
X161545949Y-90034057D02*
G01*
X161573406Y-90042386D01*
X161598711Y-90055912D01*
X161620888Y-90074112D01*
X161639088Y-90096289D01*
X161652614Y-90121594D01*
X161660943Y-90149051D01*
X161664000Y-90180091D01*
X161664000Y-90619909D01*
X161660943Y-90650949D01*
X161652614Y-90678406D01*
X161639088Y-90703711D01*
X161620888Y-90725888D01*
X161598711Y-90744088D01*
X161573406Y-90757614D01*
X161545949Y-90765943D01*
X161514909Y-90769000D01*
X161125091Y-90769000D01*
X161094051Y-90765943D01*
X161066594Y-90757614D01*
X161041289Y-90744088D01*
X161019112Y-90725888D01*
X161000912Y-90703711D01*
X160987386Y-90678406D01*
X160979057Y-90650949D01*
X160976000Y-90619909D01*
X160976000Y-90180091D01*
X160979057Y-90149051D01*
X160987386Y-90121594D01*
X161000912Y-90096289D01*
X161019112Y-90074112D01*
X161041289Y-90055912D01*
X161066594Y-90042386D01*
X161094051Y-90034057D01*
X161125091Y-90031000D01*
X161514909Y-90031000D01*
X161545949Y-90034057D01*
G37*
G36*
X159600949Y-90059057D02*
G01*
X159628406Y-90067386D01*
X159653711Y-90080912D01*
X159675888Y-90099112D01*
X159694088Y-90121289D01*
X159707614Y-90146594D01*
X159715943Y-90174051D01*
X159719000Y-90205091D01*
X159719000Y-90594909D01*
X159715943Y-90625949D01*
X159707614Y-90653406D01*
X159694088Y-90678711D01*
X159675888Y-90700888D01*
X159653711Y-90719088D01*
X159628406Y-90732614D01*
X159600949Y-90740943D01*
X159569909Y-90744000D01*
X159130091Y-90744000D01*
X159099051Y-90740943D01*
X159071594Y-90732614D01*
X159046289Y-90719088D01*
X159024112Y-90700888D01*
X159005912Y-90678711D01*
X158992386Y-90653406D01*
X158984057Y-90625949D01*
X158981000Y-90594909D01*
X158981000Y-90205091D01*
X158984057Y-90174051D01*
X158992386Y-90146594D01*
X159005912Y-90121289D01*
X159024112Y-90099112D01*
X159046289Y-90080912D01*
X159071594Y-90067386D01*
X159099051Y-90059057D01*
X159130091Y-90056000D01*
X159569909Y-90056000D01*
X159600949Y-90059057D01*
G37*
G36*
X152150596Y-90376417D02*
G01*
X152152262Y-90376922D01*
X152153801Y-90377744D01*
X152155150Y-90378851D01*
X152156257Y-90380200D01*
X152157079Y-90381739D01*
X152157584Y-90383405D01*
X152158001Y-90387633D01*
X152158001Y-90662367D01*
X152157584Y-90666595D01*
X152157079Y-90668261D01*
X152156257Y-90669800D01*
X152155150Y-90671149D01*
X152153801Y-90672256D01*
X152152262Y-90673078D01*
X152150596Y-90673583D01*
X152146368Y-90674000D01*
X151421634Y-90674000D01*
X151417406Y-90673583D01*
X151415740Y-90673078D01*
X151414201Y-90672256D01*
X151412852Y-90671149D01*
X151411745Y-90669800D01*
X151410923Y-90668261D01*
X151410418Y-90666595D01*
X151410001Y-90662367D01*
X151410001Y-90387633D01*
X151410418Y-90383405D01*
X151410923Y-90381739D01*
X151411745Y-90380200D01*
X151412852Y-90378851D01*
X151414201Y-90377744D01*
X151415740Y-90376922D01*
X151417406Y-90376417D01*
X151421634Y-90376000D01*
X152146368Y-90376000D01*
X152150596Y-90376417D01*
G37*
G36*
X158150596Y-90376417D02*
G01*
X158152262Y-90376922D01*
X158153801Y-90377744D01*
X158155150Y-90378851D01*
X158156257Y-90380200D01*
X158157079Y-90381739D01*
X158157584Y-90383405D01*
X158158001Y-90387633D01*
X158158001Y-90662367D01*
X158157584Y-90666595D01*
X158157079Y-90668261D01*
X158156257Y-90669800D01*
X158155150Y-90671149D01*
X158153801Y-90672256D01*
X158152262Y-90673078D01*
X158150596Y-90673583D01*
X158146368Y-90674000D01*
X157421634Y-90674000D01*
X157417406Y-90673583D01*
X157415740Y-90673078D01*
X157414201Y-90672256D01*
X157412852Y-90671149D01*
X157411745Y-90669800D01*
X157410923Y-90668261D01*
X157410418Y-90666595D01*
X157410001Y-90662367D01*
X157410001Y-90387633D01*
X157410418Y-90383405D01*
X157410923Y-90381739D01*
X157411745Y-90380200D01*
X157412852Y-90378851D01*
X157414201Y-90377744D01*
X157415740Y-90376922D01*
X157417406Y-90376417D01*
X157421634Y-90376000D01*
X158146368Y-90376000D01*
X158150596Y-90376417D01*
G37*
G36*
X142575949Y-89934057D02*
G01*
X142603406Y-89942386D01*
X142628711Y-89955912D01*
X142650888Y-89974112D01*
X142669088Y-89996289D01*
X142682614Y-90021594D01*
X142690943Y-90049051D01*
X142694000Y-90080091D01*
X142694000Y-90519909D01*
X142690943Y-90550949D01*
X142682614Y-90578406D01*
X142669088Y-90603711D01*
X142650888Y-90625888D01*
X142628711Y-90644088D01*
X142603406Y-90657614D01*
X142575949Y-90665943D01*
X142544909Y-90669000D01*
X142155091Y-90669000D01*
X142124051Y-90665943D01*
X142096594Y-90657614D01*
X142071289Y-90644088D01*
X142049112Y-90625888D01*
X142030912Y-90603711D01*
X142017386Y-90578406D01*
X142009057Y-90550949D01*
X142006000Y-90519909D01*
X142006000Y-90080091D01*
X142009057Y-90049051D01*
X142017386Y-90021594D01*
X142030912Y-89996289D01*
X142049112Y-89974112D01*
X142071289Y-89955912D01*
X142096594Y-89942386D01*
X142124051Y-89934057D01*
X142155091Y-89931000D01*
X142544909Y-89931000D01*
X142575949Y-89934057D01*
G37*
G36*
X143545949Y-89934057D02*
G01*
X143573406Y-89942386D01*
X143598711Y-89955912D01*
X143620888Y-89974112D01*
X143639088Y-89996289D01*
X143652614Y-90021594D01*
X143660943Y-90049051D01*
X143664000Y-90080091D01*
X143664000Y-90519909D01*
X143660943Y-90550949D01*
X143652614Y-90578406D01*
X143639088Y-90603711D01*
X143620888Y-90625888D01*
X143598711Y-90644088D01*
X143573406Y-90657614D01*
X143545949Y-90665943D01*
X143514909Y-90669000D01*
X143125091Y-90669000D01*
X143094051Y-90665943D01*
X143066594Y-90657614D01*
X143041289Y-90644088D01*
X143019112Y-90625888D01*
X143000912Y-90603711D01*
X142987386Y-90578406D01*
X142979057Y-90550949D01*
X142976000Y-90519909D01*
X142976000Y-90080091D01*
X142979057Y-90049051D01*
X142987386Y-90021594D01*
X143000912Y-89996289D01*
X143019112Y-89974112D01*
X143041289Y-89955912D01*
X143066594Y-89942386D01*
X143094051Y-89934057D01*
X143125091Y-89931000D01*
X143514909Y-89931000D01*
X143545949Y-89934057D01*
G37*
G36*
X158150596Y-89976417D02*
G01*
X158152262Y-89976922D01*
X158153801Y-89977744D01*
X158155150Y-89978851D01*
X158156257Y-89980200D01*
X158157079Y-89981739D01*
X158157584Y-89983405D01*
X158158001Y-89987633D01*
X158158001Y-90262367D01*
X158157584Y-90266595D01*
X158157079Y-90268261D01*
X158156257Y-90269800D01*
X158155150Y-90271149D01*
X158153801Y-90272256D01*
X158152262Y-90273078D01*
X158150596Y-90273583D01*
X158146368Y-90274000D01*
X157421634Y-90274000D01*
X157417406Y-90273583D01*
X157415740Y-90273078D01*
X157414201Y-90272256D01*
X157412852Y-90271149D01*
X157411745Y-90269800D01*
X157410923Y-90268261D01*
X157410418Y-90266595D01*
X157410001Y-90262367D01*
X157410001Y-89987633D01*
X157410418Y-89983405D01*
X157410923Y-89981739D01*
X157411745Y-89980200D01*
X157412852Y-89978851D01*
X157414201Y-89977744D01*
X157415740Y-89976922D01*
X157417406Y-89976417D01*
X157421634Y-89976000D01*
X158146368Y-89976000D01*
X158150596Y-89976417D01*
G37*
G36*
X152150596Y-89976417D02*
G01*
X152152262Y-89976922D01*
X152153801Y-89977744D01*
X152155150Y-89978851D01*
X152156257Y-89980200D01*
X152157079Y-89981739D01*
X152157584Y-89983405D01*
X152158001Y-89987633D01*
X152158001Y-90262367D01*
X152157584Y-90266595D01*
X152157079Y-90268261D01*
X152156257Y-90269800D01*
X152155150Y-90271149D01*
X152153801Y-90272256D01*
X152152262Y-90273078D01*
X152150596Y-90273583D01*
X152146368Y-90274000D01*
X151421634Y-90274000D01*
X151417406Y-90273583D01*
X151415740Y-90273078D01*
X151414201Y-90272256D01*
X151412852Y-90271149D01*
X151411745Y-90269800D01*
X151410923Y-90268261D01*
X151410418Y-90266595D01*
X151410001Y-90262367D01*
X151410001Y-89987633D01*
X151410418Y-89983405D01*
X151410923Y-89981739D01*
X151411745Y-89980200D01*
X151412852Y-89978851D01*
X151414201Y-89977744D01*
X151415740Y-89976922D01*
X151417406Y-89976417D01*
X151421634Y-89976000D01*
X152146368Y-89976000D01*
X152150596Y-89976417D01*
G37*
G36*
X146569182Y-89058144D02*
G01*
X146587730Y-89063771D01*
X146604822Y-89072907D01*
X146619801Y-89085199D01*
X146632093Y-89100178D01*
X146641229Y-89117270D01*
X146646856Y-89135818D01*
X146649000Y-89157591D01*
X146649000Y-89512409D01*
X146646856Y-89534182D01*
X146641229Y-89552730D01*
X146632093Y-89569822D01*
X146619801Y-89584801D01*
X146604822Y-89597093D01*
X146587731Y-89606229D01*
X146587207Y-89606388D01*
X146578007Y-89610199D01*
X146569727Y-89615731D01*
X146562685Y-89622773D01*
X146557153Y-89631053D01*
X146553342Y-89640253D01*
X146551399Y-89650020D01*
X146551399Y-89659979D01*
X146553341Y-89669746D01*
X146557152Y-89678946D01*
X146562684Y-89687226D01*
X146569726Y-89694268D01*
X146578006Y-89699800D01*
X146587207Y-89703612D01*
X146587731Y-89703771D01*
X146604822Y-89712907D01*
X146619801Y-89725199D01*
X146632093Y-89740178D01*
X146641229Y-89757270D01*
X146646856Y-89775818D01*
X146649000Y-89797591D01*
X146649000Y-90152409D01*
X146646856Y-90174182D01*
X146641229Y-90192730D01*
X146632093Y-90209822D01*
X146619801Y-90224801D01*
X146604822Y-90237093D01*
X146587730Y-90246229D01*
X146569182Y-90251856D01*
X146547409Y-90254000D01*
X146252591Y-90254000D01*
X146230818Y-90251856D01*
X146212270Y-90246229D01*
X146195178Y-90237093D01*
X146180199Y-90224801D01*
X146167907Y-90209822D01*
X146158771Y-90192730D01*
X146153144Y-90174182D01*
X146151000Y-90152409D01*
X146151000Y-89797591D01*
X146153144Y-89775818D01*
X146158771Y-89757270D01*
X146167907Y-89740178D01*
X146180199Y-89725199D01*
X146195178Y-89712907D01*
X146212269Y-89703771D01*
X146212793Y-89703612D01*
X146221993Y-89699801D01*
X146230273Y-89694269D01*
X146237315Y-89687227D01*
X146242847Y-89678947D01*
X146246658Y-89669747D01*
X146248601Y-89659980D01*
X146248601Y-89650021D01*
X146246659Y-89640254D01*
X146242848Y-89631054D01*
X146237316Y-89622774D01*
X146230274Y-89615732D01*
X146221994Y-89610200D01*
X146212793Y-89606388D01*
X146212269Y-89606229D01*
X146195178Y-89597093D01*
X146180199Y-89584801D01*
X146167907Y-89569822D01*
X146158771Y-89552730D01*
X146153144Y-89534182D01*
X146151000Y-89512409D01*
X146151000Y-89157591D01*
X146153144Y-89135818D01*
X146158771Y-89117270D01*
X146167907Y-89100178D01*
X146180199Y-89085199D01*
X146195178Y-89072907D01*
X146212270Y-89063771D01*
X146230818Y-89058144D01*
X146252591Y-89056000D01*
X146547409Y-89056000D01*
X146569182Y-89058144D01*
G37*
G36*
X145174182Y-89753144D02*
G01*
X145192730Y-89758771D01*
X145209822Y-89767907D01*
X145224801Y-89780199D01*
X145237093Y-89795178D01*
X145246229Y-89812269D01*
X145246388Y-89812793D01*
X145250199Y-89821993D01*
X145255731Y-89830273D01*
X145262773Y-89837315D01*
X145271053Y-89842847D01*
X145280253Y-89846658D01*
X145290020Y-89848601D01*
X145299979Y-89848601D01*
X145309746Y-89846659D01*
X145318946Y-89842848D01*
X145327226Y-89837316D01*
X145334268Y-89830274D01*
X145339800Y-89821994D01*
X145343612Y-89812793D01*
X145343771Y-89812269D01*
X145352907Y-89795178D01*
X145365199Y-89780199D01*
X145380178Y-89767907D01*
X145397270Y-89758771D01*
X145415818Y-89753144D01*
X145437591Y-89751000D01*
X145792409Y-89751000D01*
X145814182Y-89753144D01*
X145832730Y-89758771D01*
X145849822Y-89767907D01*
X145864801Y-89780199D01*
X145877093Y-89795178D01*
X145886229Y-89812270D01*
X145891856Y-89830818D01*
X145894000Y-89852591D01*
X145894000Y-90147409D01*
X145891856Y-90169182D01*
X145886229Y-90187730D01*
X145877093Y-90204822D01*
X145864801Y-90219801D01*
X145849822Y-90232093D01*
X145832730Y-90241229D01*
X145814182Y-90246856D01*
X145792409Y-90249000D01*
X145437591Y-90249000D01*
X145415818Y-90246856D01*
X145397270Y-90241229D01*
X145380178Y-90232093D01*
X145365199Y-90219801D01*
X145352907Y-90204822D01*
X145343771Y-90187731D01*
X145343612Y-90187207D01*
X145339801Y-90178007D01*
X145334269Y-90169727D01*
X145327227Y-90162685D01*
X145318947Y-90157153D01*
X145309747Y-90153342D01*
X145299980Y-90151399D01*
X145290021Y-90151399D01*
X145280254Y-90153341D01*
X145271054Y-90157152D01*
X145262774Y-90162684D01*
X145255732Y-90169726D01*
X145250200Y-90178006D01*
X145246388Y-90187207D01*
X145246229Y-90187731D01*
X145237093Y-90204822D01*
X145224801Y-90219801D01*
X145209822Y-90232093D01*
X145192730Y-90241229D01*
X145174182Y-90246856D01*
X145152409Y-90249000D01*
X144797591Y-90249000D01*
X144775818Y-90246856D01*
X144757270Y-90241229D01*
X144740178Y-90232093D01*
X144725199Y-90219801D01*
X144712907Y-90204822D01*
X144703771Y-90187730D01*
X144698144Y-90169182D01*
X144696000Y-90147409D01*
X144696000Y-89852591D01*
X144698144Y-89830818D01*
X144703771Y-89812270D01*
X144712907Y-89795178D01*
X144725199Y-89780199D01*
X144740178Y-89767907D01*
X144757270Y-89758771D01*
X144775818Y-89753144D01*
X144797591Y-89751000D01*
X145152409Y-89751000D01*
X145174182Y-89753144D01*
G37*
G36*
X158150596Y-89576417D02*
G01*
X158152262Y-89576922D01*
X158153801Y-89577744D01*
X158155150Y-89578851D01*
X158156257Y-89580200D01*
X158157079Y-89581739D01*
X158157584Y-89583405D01*
X158158001Y-89587633D01*
X158158001Y-89862367D01*
X158157584Y-89866595D01*
X158157079Y-89868261D01*
X158156257Y-89869800D01*
X158155150Y-89871149D01*
X158153801Y-89872256D01*
X158152262Y-89873078D01*
X158150596Y-89873583D01*
X158146368Y-89874000D01*
X157421634Y-89874000D01*
X157417406Y-89873583D01*
X157415740Y-89873078D01*
X157414201Y-89872256D01*
X157412852Y-89871149D01*
X157411745Y-89869800D01*
X157410923Y-89868261D01*
X157410418Y-89866595D01*
X157410001Y-89862367D01*
X157410001Y-89587633D01*
X157410418Y-89583405D01*
X157410923Y-89581739D01*
X157411745Y-89580200D01*
X157412852Y-89578851D01*
X157414201Y-89577744D01*
X157415740Y-89576922D01*
X157417406Y-89576417D01*
X157421634Y-89576000D01*
X158146368Y-89576000D01*
X158150596Y-89576417D01*
G37*
G36*
X152150596Y-89576417D02*
G01*
X152152262Y-89576922D01*
X152153801Y-89577744D01*
X152155150Y-89578851D01*
X152156257Y-89580200D01*
X152157079Y-89581739D01*
X152157584Y-89583405D01*
X152158001Y-89587633D01*
X152158001Y-89862367D01*
X152157584Y-89866595D01*
X152157079Y-89868261D01*
X152156257Y-89869800D01*
X152155150Y-89871149D01*
X152153801Y-89872256D01*
X152152262Y-89873078D01*
X152150596Y-89873583D01*
X152146368Y-89874000D01*
X151421634Y-89874000D01*
X151417406Y-89873583D01*
X151415740Y-89873078D01*
X151414201Y-89872256D01*
X151412852Y-89871149D01*
X151411745Y-89869800D01*
X151410923Y-89868261D01*
X151410418Y-89866595D01*
X151410001Y-89862367D01*
X151410001Y-89587633D01*
X151410418Y-89583405D01*
X151410923Y-89581739D01*
X151411745Y-89580200D01*
X151412852Y-89578851D01*
X151414201Y-89577744D01*
X151415740Y-89576922D01*
X151417406Y-89576417D01*
X151421634Y-89576000D01*
X152146368Y-89576000D01*
X152150596Y-89576417D01*
G37*
G36*
X159600949Y-89089057D02*
G01*
X159628406Y-89097386D01*
X159653711Y-89110912D01*
X159675888Y-89129112D01*
X159694088Y-89151289D01*
X159707614Y-89176594D01*
X159715943Y-89204051D01*
X159719000Y-89235091D01*
X159719000Y-89624909D01*
X159715943Y-89655949D01*
X159707614Y-89683406D01*
X159694088Y-89708711D01*
X159675888Y-89730888D01*
X159653711Y-89749088D01*
X159628406Y-89762614D01*
X159600949Y-89770943D01*
X159569909Y-89774000D01*
X159130091Y-89774000D01*
X159099051Y-89770943D01*
X159071594Y-89762614D01*
X159046289Y-89749088D01*
X159024112Y-89730888D01*
X159005912Y-89708711D01*
X158992386Y-89683406D01*
X158984057Y-89655949D01*
X158981000Y-89624909D01*
X158981000Y-89235091D01*
X158984057Y-89204051D01*
X158992386Y-89176594D01*
X159005912Y-89151289D01*
X159024112Y-89129112D01*
X159046289Y-89110912D01*
X159071594Y-89097386D01*
X159099051Y-89089057D01*
X159130091Y-89086000D01*
X159569909Y-89086000D01*
X159600949Y-89089057D01*
G37*
G36*
X143545949Y-88934057D02*
G01*
X143573406Y-88942386D01*
X143598711Y-88955912D01*
X143620888Y-88974112D01*
X143639088Y-88996289D01*
X143652614Y-89021594D01*
X143660943Y-89049051D01*
X143664000Y-89080091D01*
X143664000Y-89519909D01*
X143660943Y-89550949D01*
X143652614Y-89578406D01*
X143639088Y-89603711D01*
X143620888Y-89625888D01*
X143598711Y-89644088D01*
X143573406Y-89657614D01*
X143545949Y-89665943D01*
X143514909Y-89669000D01*
X143125091Y-89669000D01*
X143094051Y-89665943D01*
X143066594Y-89657614D01*
X143041289Y-89644088D01*
X143019112Y-89625888D01*
X143000912Y-89603711D01*
X142987386Y-89578406D01*
X142979057Y-89550949D01*
X142976000Y-89519909D01*
X142976000Y-89080091D01*
X142979057Y-89049051D01*
X142987386Y-89021594D01*
X143000912Y-88996289D01*
X143019112Y-88974112D01*
X143041289Y-88955912D01*
X143066594Y-88942386D01*
X143094051Y-88934057D01*
X143125091Y-88931000D01*
X143514909Y-88931000D01*
X143545949Y-88934057D01*
G37*
G36*
X142575949Y-88934057D02*
G01*
X142603406Y-88942386D01*
X142628711Y-88955912D01*
X142650888Y-88974112D01*
X142669088Y-88996289D01*
X142682614Y-89021594D01*
X142690943Y-89049051D01*
X142694000Y-89080091D01*
X142694000Y-89519909D01*
X142690943Y-89550949D01*
X142682614Y-89578406D01*
X142669088Y-89603711D01*
X142650888Y-89625888D01*
X142628711Y-89644088D01*
X142603406Y-89657614D01*
X142575949Y-89665943D01*
X142544909Y-89669000D01*
X142155091Y-89669000D01*
X142124051Y-89665943D01*
X142096594Y-89657614D01*
X142071289Y-89644088D01*
X142049112Y-89625888D01*
X142030912Y-89603711D01*
X142017386Y-89578406D01*
X142009057Y-89550949D01*
X142006000Y-89519909D01*
X142006000Y-89080091D01*
X142009057Y-89049051D01*
X142017386Y-89021594D01*
X142030912Y-88996289D01*
X142049112Y-88974112D01*
X142071289Y-88955912D01*
X142096594Y-88942386D01*
X142124051Y-88934057D01*
X142155091Y-88931000D01*
X142544909Y-88931000D01*
X142575949Y-88934057D01*
G37*
G36*
X158150596Y-89176417D02*
G01*
X158152262Y-89176922D01*
X158153801Y-89177744D01*
X158155150Y-89178851D01*
X158156257Y-89180200D01*
X158157079Y-89181739D01*
X158157584Y-89183405D01*
X158158001Y-89187633D01*
X158158001Y-89462367D01*
X158157584Y-89466595D01*
X158157079Y-89468261D01*
X158156257Y-89469800D01*
X158155150Y-89471149D01*
X158153801Y-89472256D01*
X158152262Y-89473078D01*
X158150596Y-89473583D01*
X158146368Y-89474000D01*
X157421634Y-89474000D01*
X157417406Y-89473583D01*
X157415740Y-89473078D01*
X157414201Y-89472256D01*
X157412852Y-89471149D01*
X157411745Y-89469800D01*
X157410923Y-89468261D01*
X157410418Y-89466595D01*
X157410001Y-89462367D01*
X157410001Y-89187633D01*
X157410418Y-89183405D01*
X157410923Y-89181739D01*
X157411745Y-89180200D01*
X157412852Y-89178851D01*
X157414201Y-89177744D01*
X157415740Y-89176922D01*
X157417406Y-89176417D01*
X157421634Y-89176000D01*
X158146368Y-89176000D01*
X158150596Y-89176417D01*
G37*
G36*
X152150596Y-89176417D02*
G01*
X152152262Y-89176922D01*
X152153801Y-89177744D01*
X152155150Y-89178851D01*
X152156257Y-89180200D01*
X152157079Y-89181739D01*
X152157584Y-89183405D01*
X152158001Y-89187633D01*
X152158001Y-89462367D01*
X152157584Y-89466595D01*
X152157079Y-89468261D01*
X152156257Y-89469800D01*
X152155150Y-89471149D01*
X152153801Y-89472256D01*
X152152262Y-89473078D01*
X152150596Y-89473583D01*
X152146368Y-89474000D01*
X151421634Y-89474000D01*
X151417406Y-89473583D01*
X151415740Y-89473078D01*
X151414201Y-89472256D01*
X151412852Y-89471149D01*
X151411745Y-89469800D01*
X151410923Y-89468261D01*
X151410418Y-89466595D01*
X151410001Y-89462367D01*
X151410001Y-89187633D01*
X151410418Y-89183405D01*
X151410923Y-89181739D01*
X151411745Y-89180200D01*
X151412852Y-89178851D01*
X151414201Y-89177744D01*
X151415740Y-89176922D01*
X151417406Y-89176417D01*
X151421634Y-89176000D01*
X152146368Y-89176000D01*
X152150596Y-89176417D01*
G37*
G36*
X158150596Y-88776417D02*
G01*
X158152262Y-88776922D01*
X158153801Y-88777744D01*
X158155150Y-88778851D01*
X158156257Y-88780200D01*
X158157079Y-88781739D01*
X158157584Y-88783405D01*
X158158001Y-88787633D01*
X158158001Y-89062367D01*
X158157584Y-89066595D01*
X158157079Y-89068261D01*
X158156257Y-89069800D01*
X158155150Y-89071149D01*
X158153801Y-89072256D01*
X158152262Y-89073078D01*
X158150596Y-89073583D01*
X158146368Y-89074000D01*
X157421634Y-89074000D01*
X157417406Y-89073583D01*
X157415740Y-89073078D01*
X157414201Y-89072256D01*
X157412852Y-89071149D01*
X157411745Y-89069800D01*
X157410923Y-89068261D01*
X157410418Y-89066595D01*
X157410001Y-89062367D01*
X157410001Y-88787633D01*
X157410418Y-88783405D01*
X157410923Y-88781739D01*
X157411745Y-88780200D01*
X157412852Y-88778851D01*
X157414201Y-88777744D01*
X157415740Y-88776922D01*
X157417406Y-88776417D01*
X157421634Y-88776000D01*
X158146368Y-88776000D01*
X158150596Y-88776417D01*
G37*
G36*
X152150596Y-88776417D02*
G01*
X152152262Y-88776922D01*
X152153801Y-88777744D01*
X152155150Y-88778851D01*
X152156257Y-88780200D01*
X152157079Y-88781739D01*
X152157584Y-88783405D01*
X152158001Y-88787633D01*
X152158001Y-89062367D01*
X152157584Y-89066595D01*
X152157079Y-89068261D01*
X152156257Y-89069800D01*
X152155150Y-89071149D01*
X152153801Y-89072256D01*
X152152262Y-89073078D01*
X152150596Y-89073583D01*
X152146368Y-89074000D01*
X151421634Y-89074000D01*
X151417406Y-89073583D01*
X151415740Y-89073078D01*
X151414201Y-89072256D01*
X151412852Y-89071149D01*
X151411745Y-89069800D01*
X151410923Y-89068261D01*
X151410418Y-89066595D01*
X151410001Y-89062367D01*
X151410001Y-88787633D01*
X151410418Y-88783405D01*
X151410923Y-88781739D01*
X151411745Y-88780200D01*
X151412852Y-88778851D01*
X151414201Y-88777744D01*
X151415740Y-88776922D01*
X151417406Y-88776417D01*
X151421634Y-88776000D01*
X152146368Y-88776000D01*
X152150596Y-88776417D01*
G37*
G36*
X152150596Y-88376417D02*
G01*
X152152262Y-88376922D01*
X152153801Y-88377744D01*
X152155150Y-88378851D01*
X152156257Y-88380200D01*
X152157079Y-88381739D01*
X152157584Y-88383405D01*
X152158001Y-88387633D01*
X152158001Y-88662367D01*
X152157584Y-88666595D01*
X152157079Y-88668261D01*
X152156257Y-88669800D01*
X152155150Y-88671149D01*
X152153801Y-88672256D01*
X152152262Y-88673078D01*
X152150596Y-88673583D01*
X152146368Y-88674000D01*
X151421634Y-88674000D01*
X151417406Y-88673583D01*
X151415740Y-88673078D01*
X151414201Y-88672256D01*
X151412852Y-88671149D01*
X151411745Y-88669800D01*
X151410923Y-88668261D01*
X151410418Y-88666595D01*
X151410001Y-88662367D01*
X151410001Y-88387633D01*
X151410418Y-88383405D01*
X151410923Y-88381739D01*
X151411745Y-88380200D01*
X151412852Y-88378851D01*
X151414201Y-88377744D01*
X151415740Y-88376922D01*
X151417406Y-88376417D01*
X151421634Y-88376000D01*
X152146368Y-88376000D01*
X152150596Y-88376417D01*
G37*
G36*
X158150596Y-88376417D02*
G01*
X158152262Y-88376922D01*
X158153801Y-88377744D01*
X158155150Y-88378851D01*
X158156257Y-88380200D01*
X158157079Y-88381739D01*
X158157584Y-88383405D01*
X158158001Y-88387633D01*
X158158001Y-88662367D01*
X158157584Y-88666595D01*
X158157079Y-88668261D01*
X158156257Y-88669800D01*
X158155150Y-88671149D01*
X158153801Y-88672256D01*
X158152262Y-88673078D01*
X158150596Y-88673583D01*
X158146368Y-88674000D01*
X157421634Y-88674000D01*
X157417406Y-88673583D01*
X157415740Y-88673078D01*
X157414201Y-88672256D01*
X157412852Y-88671149D01*
X157411745Y-88669800D01*
X157410923Y-88668261D01*
X157410418Y-88666595D01*
X157410001Y-88662367D01*
X157410001Y-88387633D01*
X157410418Y-88383405D01*
X157410923Y-88381739D01*
X157411745Y-88380200D01*
X157412852Y-88378851D01*
X157414201Y-88377744D01*
X157415740Y-88376922D01*
X157417406Y-88376417D01*
X157421634Y-88376000D01*
X158146368Y-88376000D01*
X158150596Y-88376417D01*
G37*
G36*
X147249000Y-88549000D02*
G01*
X145351000Y-88549000D01*
X145351000Y-87451000D01*
X147249000Y-87451000D01*
X147249000Y-88549000D01*
G37*
G36*
X144850949Y-87629057D02*
G01*
X144878406Y-87637386D01*
X144903711Y-87650912D01*
X144925888Y-87669112D01*
X144944088Y-87691289D01*
X144957614Y-87716594D01*
X144965943Y-87744051D01*
X144969000Y-87775091D01*
X144969000Y-88164909D01*
X144965943Y-88195949D01*
X144957614Y-88223406D01*
X144944088Y-88248711D01*
X144925888Y-88270888D01*
X144903711Y-88289088D01*
X144878406Y-88302614D01*
X144850949Y-88310943D01*
X144819909Y-88314000D01*
X144380091Y-88314000D01*
X144349051Y-88310943D01*
X144321594Y-88302614D01*
X144296289Y-88289088D01*
X144274112Y-88270888D01*
X144255912Y-88248711D01*
X144242386Y-88223406D01*
X144234057Y-88195949D01*
X144231000Y-88164909D01*
X144231000Y-87775091D01*
X144234057Y-87744051D01*
X144242386Y-87716594D01*
X144255912Y-87691289D01*
X144274112Y-87669112D01*
X144296289Y-87650912D01*
X144321594Y-87637386D01*
X144349051Y-87629057D01*
X144380091Y-87626000D01*
X144819909Y-87626000D01*
X144850949Y-87629057D01*
G37*
G36*
X152150596Y-87976417D02*
G01*
X152152262Y-87976922D01*
X152153801Y-87977744D01*
X152155150Y-87978851D01*
X152156257Y-87980200D01*
X152157079Y-87981739D01*
X152157584Y-87983405D01*
X152158001Y-87987633D01*
X152158001Y-88262367D01*
X152157584Y-88266595D01*
X152157079Y-88268261D01*
X152156257Y-88269800D01*
X152155150Y-88271149D01*
X152153801Y-88272256D01*
X152152262Y-88273078D01*
X152150596Y-88273583D01*
X152146368Y-88274000D01*
X151421634Y-88274000D01*
X151417406Y-88273583D01*
X151415740Y-88273078D01*
X151414201Y-88272256D01*
X151412852Y-88271149D01*
X151411745Y-88269800D01*
X151410923Y-88268261D01*
X151410418Y-88266595D01*
X151410001Y-88262367D01*
X151410001Y-87987633D01*
X151410418Y-87983405D01*
X151410923Y-87981739D01*
X151411745Y-87980200D01*
X151412852Y-87978851D01*
X151414201Y-87977744D01*
X151415740Y-87976922D01*
X151417406Y-87976417D01*
X151421634Y-87976000D01*
X152146368Y-87976000D01*
X152150596Y-87976417D01*
G37*
G36*
X158150596Y-87976417D02*
G01*
X158152262Y-87976922D01*
X158153801Y-87977744D01*
X158155150Y-87978851D01*
X158156257Y-87980200D01*
X158157079Y-87981739D01*
X158157584Y-87983405D01*
X158158001Y-87987633D01*
X158158001Y-88262367D01*
X158157584Y-88266595D01*
X158157079Y-88268261D01*
X158156257Y-88269800D01*
X158155150Y-88271149D01*
X158153801Y-88272256D01*
X158152262Y-88273078D01*
X158150596Y-88273583D01*
X158146368Y-88274000D01*
X157421634Y-88274000D01*
X157417406Y-88273583D01*
X157415740Y-88273078D01*
X157414201Y-88272256D01*
X157412852Y-88271149D01*
X157411745Y-88269800D01*
X157410923Y-88268261D01*
X157410418Y-88266595D01*
X157410001Y-88262367D01*
X157410001Y-87987633D01*
X157410418Y-87983405D01*
X157410923Y-87981739D01*
X157411745Y-87980200D01*
X157412852Y-87978851D01*
X157414201Y-87977744D01*
X157415740Y-87976922D01*
X157417406Y-87976417D01*
X157421634Y-87976000D01*
X158146368Y-87976000D01*
X158150596Y-87976417D01*
G37*
G36*
X160525949Y-87334057D02*
G01*
X160553406Y-87342386D01*
X160578711Y-87355912D01*
X160600888Y-87374112D01*
X160619088Y-87396289D01*
X160632614Y-87421594D01*
X160640943Y-87449051D01*
X160644000Y-87480091D01*
X160644000Y-87919909D01*
X160640943Y-87950949D01*
X160632614Y-87978406D01*
X160619088Y-88003711D01*
X160600888Y-88025888D01*
X160578711Y-88044088D01*
X160553406Y-88057614D01*
X160525949Y-88065943D01*
X160494909Y-88069000D01*
X160105091Y-88069000D01*
X160074051Y-88065943D01*
X160046594Y-88057614D01*
X160021289Y-88044088D01*
X159999112Y-88025888D01*
X159980912Y-88003711D01*
X159967386Y-87978406D01*
X159959057Y-87950949D01*
X159956000Y-87919909D01*
X159956000Y-87480091D01*
X159959057Y-87449051D01*
X159967386Y-87421594D01*
X159980912Y-87396289D01*
X159999112Y-87374112D01*
X160021289Y-87355912D01*
X160046594Y-87342386D01*
X160074051Y-87334057D01*
X160105091Y-87331000D01*
X160494909Y-87331000D01*
X160525949Y-87334057D01*
G37*
G36*
X161495949Y-87334057D02*
G01*
X161523406Y-87342386D01*
X161548711Y-87355912D01*
X161570888Y-87374112D01*
X161589088Y-87396289D01*
X161602614Y-87421594D01*
X161610943Y-87449051D01*
X161614000Y-87480091D01*
X161614000Y-87919909D01*
X161610943Y-87950949D01*
X161602614Y-87978406D01*
X161589088Y-88003711D01*
X161570888Y-88025888D01*
X161548711Y-88044088D01*
X161523406Y-88057614D01*
X161495949Y-88065943D01*
X161464909Y-88069000D01*
X161075091Y-88069000D01*
X161044051Y-88065943D01*
X161016594Y-88057614D01*
X160991289Y-88044088D01*
X160969112Y-88025888D01*
X160950912Y-88003711D01*
X160937386Y-87978406D01*
X160929057Y-87950949D01*
X160926000Y-87919909D01*
X160926000Y-87480091D01*
X160929057Y-87449051D01*
X160937386Y-87421594D01*
X160950912Y-87396289D01*
X160969112Y-87374112D01*
X160991289Y-87355912D01*
X161016594Y-87342386D01*
X161044051Y-87334057D01*
X161075091Y-87331000D01*
X161464909Y-87331000D01*
X161495949Y-87334057D01*
G37*
G36*
X158150596Y-87576417D02*
G01*
X158152262Y-87576922D01*
X158153801Y-87577744D01*
X158155150Y-87578851D01*
X158156257Y-87580200D01*
X158157079Y-87581739D01*
X158157584Y-87583405D01*
X158158001Y-87587633D01*
X158158001Y-87862367D01*
X158157584Y-87866595D01*
X158157079Y-87868261D01*
X158156257Y-87869800D01*
X158155150Y-87871149D01*
X158153801Y-87872256D01*
X158152262Y-87873078D01*
X158150596Y-87873583D01*
X158146368Y-87874000D01*
X157421634Y-87874000D01*
X157417406Y-87873583D01*
X157415740Y-87873078D01*
X157414201Y-87872256D01*
X157412852Y-87871149D01*
X157411745Y-87869800D01*
X157410923Y-87868261D01*
X157410418Y-87866595D01*
X157410001Y-87862367D01*
X157410001Y-87587633D01*
X157410418Y-87583405D01*
X157410923Y-87581739D01*
X157411745Y-87580200D01*
X157412852Y-87578851D01*
X157414201Y-87577744D01*
X157415740Y-87576922D01*
X157417406Y-87576417D01*
X157421634Y-87576000D01*
X158146368Y-87576000D01*
X158150596Y-87576417D01*
G37*
G36*
X152150596Y-87576417D02*
G01*
X152152262Y-87576922D01*
X152153801Y-87577744D01*
X152155150Y-87578851D01*
X152156257Y-87580200D01*
X152157079Y-87581739D01*
X152157584Y-87583405D01*
X152158001Y-87587633D01*
X152158001Y-87862367D01*
X152157584Y-87866595D01*
X152157079Y-87868261D01*
X152156257Y-87869800D01*
X152155150Y-87871149D01*
X152153801Y-87872256D01*
X152152262Y-87873078D01*
X152150596Y-87873583D01*
X152146368Y-87874000D01*
X151421634Y-87874000D01*
X151417406Y-87873583D01*
X151415740Y-87873078D01*
X151414201Y-87872256D01*
X151412852Y-87871149D01*
X151411745Y-87869800D01*
X151410923Y-87868261D01*
X151410418Y-87866595D01*
X151410001Y-87862367D01*
X151410001Y-87587633D01*
X151410418Y-87583405D01*
X151410923Y-87581739D01*
X151411745Y-87580200D01*
X151412852Y-87578851D01*
X151414201Y-87577744D01*
X151415740Y-87576922D01*
X151417406Y-87576417D01*
X151421634Y-87576000D01*
X152146368Y-87576000D01*
X152150596Y-87576417D01*
G37*
G36*
X151025949Y-87134057D02*
G01*
X151053406Y-87142386D01*
X151078711Y-87155912D01*
X151100888Y-87174112D01*
X151119088Y-87196289D01*
X151132614Y-87221594D01*
X151140943Y-87249051D01*
X151144000Y-87280091D01*
X151144000Y-87719909D01*
X151140943Y-87750949D01*
X151132614Y-87778406D01*
X151119088Y-87803711D01*
X151100888Y-87825888D01*
X151078711Y-87844088D01*
X151053406Y-87857614D01*
X151025949Y-87865943D01*
X150994909Y-87869000D01*
X150605091Y-87869000D01*
X150574051Y-87865943D01*
X150546594Y-87857614D01*
X150521289Y-87844088D01*
X150499112Y-87825888D01*
X150480912Y-87803711D01*
X150467386Y-87778406D01*
X150459057Y-87750949D01*
X150456000Y-87719909D01*
X150456000Y-87280091D01*
X150459057Y-87249051D01*
X150467386Y-87221594D01*
X150480912Y-87196289D01*
X150499112Y-87174112D01*
X150521289Y-87155912D01*
X150546594Y-87142386D01*
X150574051Y-87134057D01*
X150605091Y-87131000D01*
X150994909Y-87131000D01*
X151025949Y-87134057D01*
G37*
G36*
X150055949Y-87134057D02*
G01*
X150083406Y-87142386D01*
X150108711Y-87155912D01*
X150130888Y-87174112D01*
X150149088Y-87196289D01*
X150162614Y-87221594D01*
X150170943Y-87249051D01*
X150174000Y-87280091D01*
X150174000Y-87719909D01*
X150170943Y-87750949D01*
X150162614Y-87778406D01*
X150149088Y-87803711D01*
X150130888Y-87825888D01*
X150108711Y-87844088D01*
X150083406Y-87857614D01*
X150055949Y-87865943D01*
X150024909Y-87869000D01*
X149635091Y-87869000D01*
X149604051Y-87865943D01*
X149576594Y-87857614D01*
X149551289Y-87844088D01*
X149529112Y-87825888D01*
X149510912Y-87803711D01*
X149497386Y-87778406D01*
X149489057Y-87750949D01*
X149486000Y-87719909D01*
X149486000Y-87280091D01*
X149489057Y-87249051D01*
X149497386Y-87221594D01*
X149510912Y-87196289D01*
X149529112Y-87174112D01*
X149551289Y-87155912D01*
X149576594Y-87142386D01*
X149604051Y-87134057D01*
X149635091Y-87131000D01*
X150024909Y-87131000D01*
X150055949Y-87134057D01*
G37*
G36*
X144850949Y-86659057D02*
G01*
X144878406Y-86667386D01*
X144903711Y-86680912D01*
X144925888Y-86699112D01*
X144944088Y-86721289D01*
X144957614Y-86746594D01*
X144965943Y-86774051D01*
X144969000Y-86805091D01*
X144969000Y-87194909D01*
X144965943Y-87225949D01*
X144957614Y-87253406D01*
X144944088Y-87278711D01*
X144925888Y-87300888D01*
X144903711Y-87319088D01*
X144878406Y-87332614D01*
X144850949Y-87340943D01*
X144819909Y-87344000D01*
X144380091Y-87344000D01*
X144349051Y-87340943D01*
X144321594Y-87332614D01*
X144296289Y-87319088D01*
X144274112Y-87300888D01*
X144255912Y-87278711D01*
X144242386Y-87253406D01*
X144234057Y-87225949D01*
X144231000Y-87194909D01*
X144231000Y-86805091D01*
X144234057Y-86774051D01*
X144242386Y-86746594D01*
X144255912Y-86721289D01*
X144274112Y-86699112D01*
X144296289Y-86680912D01*
X144321594Y-86667386D01*
X144349051Y-86659057D01*
X144380091Y-86656000D01*
X144819909Y-86656000D01*
X144850949Y-86659057D01*
G37*
G36*
X157125596Y-86551417D02*
G01*
X157127262Y-86551922D01*
X157128801Y-86552744D01*
X157130150Y-86553851D01*
X157131257Y-86555200D01*
X157132079Y-86556739D01*
X157132584Y-86558405D01*
X157133001Y-86562633D01*
X157133001Y-87287367D01*
X157132584Y-87291595D01*
X157132079Y-87293261D01*
X157131257Y-87294800D01*
X157130150Y-87296149D01*
X157128801Y-87297256D01*
X157127262Y-87298078D01*
X157125596Y-87298583D01*
X157121368Y-87299000D01*
X156846634Y-87299000D01*
X156842406Y-87298583D01*
X156840740Y-87298078D01*
X156839201Y-87297256D01*
X156837852Y-87296149D01*
X156836745Y-87294800D01*
X156835923Y-87293261D01*
X156835418Y-87291595D01*
X156835001Y-87287367D01*
X156835001Y-86562633D01*
X156835418Y-86558405D01*
X156835923Y-86556739D01*
X156836745Y-86555200D01*
X156837852Y-86553851D01*
X156839201Y-86552744D01*
X156840740Y-86551922D01*
X156842406Y-86551417D01*
X156846634Y-86551000D01*
X157121368Y-86551000D01*
X157125596Y-86551417D01*
G37*
G36*
X154325596Y-86551417D02*
G01*
X154327262Y-86551922D01*
X154328801Y-86552744D01*
X154330150Y-86553851D01*
X154331257Y-86555200D01*
X154332079Y-86556739D01*
X154332584Y-86558405D01*
X154333001Y-86562633D01*
X154333001Y-87287367D01*
X154332584Y-87291595D01*
X154332079Y-87293261D01*
X154331257Y-87294800D01*
X154330150Y-87296149D01*
X154328801Y-87297256D01*
X154327262Y-87298078D01*
X154325596Y-87298583D01*
X154321368Y-87299000D01*
X154046634Y-87299000D01*
X154042406Y-87298583D01*
X154040740Y-87298078D01*
X154039201Y-87297256D01*
X154037852Y-87296149D01*
X154036745Y-87294800D01*
X154035923Y-87293261D01*
X154035418Y-87291595D01*
X154035001Y-87287367D01*
X154035001Y-86562633D01*
X154035418Y-86558405D01*
X154035923Y-86556739D01*
X154036745Y-86555200D01*
X154037852Y-86553851D01*
X154039201Y-86552744D01*
X154040740Y-86551922D01*
X154042406Y-86551417D01*
X154046634Y-86551000D01*
X154321368Y-86551000D01*
X154325596Y-86551417D01*
G37*
G36*
X153925596Y-86551417D02*
G01*
X153927262Y-86551922D01*
X153928801Y-86552744D01*
X153930150Y-86553851D01*
X153931257Y-86555200D01*
X153932079Y-86556739D01*
X153932584Y-86558405D01*
X153933001Y-86562633D01*
X153933001Y-87287367D01*
X153932584Y-87291595D01*
X153932079Y-87293261D01*
X153931257Y-87294800D01*
X153930150Y-87296149D01*
X153928801Y-87297256D01*
X153927262Y-87298078D01*
X153925596Y-87298583D01*
X153921368Y-87299000D01*
X153646634Y-87299000D01*
X153642406Y-87298583D01*
X153640740Y-87298078D01*
X153639201Y-87297256D01*
X153637852Y-87296149D01*
X153636745Y-87294800D01*
X153635923Y-87293261D01*
X153635418Y-87291595D01*
X153635001Y-87287367D01*
X153635001Y-86562633D01*
X153635418Y-86558405D01*
X153635923Y-86556739D01*
X153636745Y-86555200D01*
X153637852Y-86553851D01*
X153639201Y-86552744D01*
X153640740Y-86551922D01*
X153642406Y-86551417D01*
X153646634Y-86551000D01*
X153921368Y-86551000D01*
X153925596Y-86551417D01*
G37*
G36*
X153525596Y-86551417D02*
G01*
X153527262Y-86551922D01*
X153528801Y-86552744D01*
X153530150Y-86553851D01*
X153531257Y-86555200D01*
X153532079Y-86556739D01*
X153532584Y-86558405D01*
X153533001Y-86562633D01*
X153533001Y-87287367D01*
X153532584Y-87291595D01*
X153532079Y-87293261D01*
X153531257Y-87294800D01*
X153530150Y-87296149D01*
X153528801Y-87297256D01*
X153527262Y-87298078D01*
X153525596Y-87298583D01*
X153521368Y-87299000D01*
X153246634Y-87299000D01*
X153242406Y-87298583D01*
X153240740Y-87298078D01*
X153239201Y-87297256D01*
X153237852Y-87296149D01*
X153236745Y-87294800D01*
X153235923Y-87293261D01*
X153235418Y-87291595D01*
X153235001Y-87287367D01*
X153235001Y-86562633D01*
X153235418Y-86558405D01*
X153235923Y-86556739D01*
X153236745Y-86555200D01*
X153237852Y-86553851D01*
X153239201Y-86552744D01*
X153240740Y-86551922D01*
X153242406Y-86551417D01*
X153246634Y-86551000D01*
X153521368Y-86551000D01*
X153525596Y-86551417D01*
G37*
G36*
X153125596Y-86551417D02*
G01*
X153127262Y-86551922D01*
X153128801Y-86552744D01*
X153130150Y-86553851D01*
X153131257Y-86555200D01*
X153132079Y-86556739D01*
X153132584Y-86558405D01*
X153133001Y-86562633D01*
X153133001Y-87287367D01*
X153132584Y-87291595D01*
X153132079Y-87293261D01*
X153131257Y-87294800D01*
X153130150Y-87296149D01*
X153128801Y-87297256D01*
X153127262Y-87298078D01*
X153125596Y-87298583D01*
X153121368Y-87299000D01*
X152846634Y-87299000D01*
X152842406Y-87298583D01*
X152840740Y-87298078D01*
X152839201Y-87297256D01*
X152837852Y-87296149D01*
X152836745Y-87294800D01*
X152835923Y-87293261D01*
X152835418Y-87291595D01*
X152835001Y-87287367D01*
X152835001Y-86562633D01*
X152835418Y-86558405D01*
X152835923Y-86556739D01*
X152836745Y-86555200D01*
X152837852Y-86553851D01*
X152839201Y-86552744D01*
X152840740Y-86551922D01*
X152842406Y-86551417D01*
X152846634Y-86551000D01*
X153121368Y-86551000D01*
X153125596Y-86551417D01*
G37*
G36*
X155125596Y-86551417D02*
G01*
X155127262Y-86551922D01*
X155128801Y-86552744D01*
X155130150Y-86553851D01*
X155131257Y-86555200D01*
X155132079Y-86556739D01*
X155132584Y-86558405D01*
X155133001Y-86562633D01*
X155133001Y-87287367D01*
X155132584Y-87291595D01*
X155132079Y-87293261D01*
X155131257Y-87294800D01*
X155130150Y-87296149D01*
X155128801Y-87297256D01*
X155127262Y-87298078D01*
X155125596Y-87298583D01*
X155121368Y-87299000D01*
X154846634Y-87299000D01*
X154842406Y-87298583D01*
X154840740Y-87298078D01*
X154839201Y-87297256D01*
X154837852Y-87296149D01*
X154836745Y-87294800D01*
X154835923Y-87293261D01*
X154835418Y-87291595D01*
X154835001Y-87287367D01*
X154835001Y-86562633D01*
X154835418Y-86558405D01*
X154835923Y-86556739D01*
X154836745Y-86555200D01*
X154837852Y-86553851D01*
X154839201Y-86552744D01*
X154840740Y-86551922D01*
X154842406Y-86551417D01*
X154846634Y-86551000D01*
X155121368Y-86551000D01*
X155125596Y-86551417D01*
G37*
G36*
X155925596Y-86551417D02*
G01*
X155927262Y-86551922D01*
X155928801Y-86552744D01*
X155930150Y-86553851D01*
X155931257Y-86555200D01*
X155932079Y-86556739D01*
X155932584Y-86558405D01*
X155933001Y-86562633D01*
X155933001Y-87287367D01*
X155932584Y-87291595D01*
X155932079Y-87293261D01*
X155931257Y-87294800D01*
X155930150Y-87296149D01*
X155928801Y-87297256D01*
X155927262Y-87298078D01*
X155925596Y-87298583D01*
X155921368Y-87299000D01*
X155646634Y-87299000D01*
X155642406Y-87298583D01*
X155640740Y-87298078D01*
X155639201Y-87297256D01*
X155637852Y-87296149D01*
X155636745Y-87294800D01*
X155635923Y-87293261D01*
X155635418Y-87291595D01*
X155635001Y-87287367D01*
X155635001Y-86562633D01*
X155635418Y-86558405D01*
X155635923Y-86556739D01*
X155636745Y-86555200D01*
X155637852Y-86553851D01*
X155639201Y-86552744D01*
X155640740Y-86551922D01*
X155642406Y-86551417D01*
X155646634Y-86551000D01*
X155921368Y-86551000D01*
X155925596Y-86551417D01*
G37*
G36*
X156325596Y-86551417D02*
G01*
X156327262Y-86551922D01*
X156328801Y-86552744D01*
X156330150Y-86553851D01*
X156331257Y-86555200D01*
X156332079Y-86556739D01*
X156332584Y-86558405D01*
X156333001Y-86562633D01*
X156333001Y-87287367D01*
X156332584Y-87291595D01*
X156332079Y-87293261D01*
X156331257Y-87294800D01*
X156330150Y-87296149D01*
X156328801Y-87297256D01*
X156327262Y-87298078D01*
X156325596Y-87298583D01*
X156321368Y-87299000D01*
X156046634Y-87299000D01*
X156042406Y-87298583D01*
X156040740Y-87298078D01*
X156039201Y-87297256D01*
X156037852Y-87296149D01*
X156036745Y-87294800D01*
X156035923Y-87293261D01*
X156035418Y-87291595D01*
X156035001Y-87287367D01*
X156035001Y-86562633D01*
X156035418Y-86558405D01*
X156035923Y-86556739D01*
X156036745Y-86555200D01*
X156037852Y-86553851D01*
X156039201Y-86552744D01*
X156040740Y-86551922D01*
X156042406Y-86551417D01*
X156046634Y-86551000D01*
X156321368Y-86551000D01*
X156325596Y-86551417D01*
G37*
G36*
X156725596Y-86551417D02*
G01*
X156727262Y-86551922D01*
X156728801Y-86552744D01*
X156730150Y-86553851D01*
X156731257Y-86555200D01*
X156732079Y-86556739D01*
X156732584Y-86558405D01*
X156733001Y-86562633D01*
X156733001Y-87287367D01*
X156732584Y-87291595D01*
X156732079Y-87293261D01*
X156731257Y-87294800D01*
X156730150Y-87296149D01*
X156728801Y-87297256D01*
X156727262Y-87298078D01*
X156725596Y-87298583D01*
X156721368Y-87299000D01*
X156446634Y-87299000D01*
X156442406Y-87298583D01*
X156440740Y-87298078D01*
X156439201Y-87297256D01*
X156437852Y-87296149D01*
X156436745Y-87294800D01*
X156435923Y-87293261D01*
X156435418Y-87291595D01*
X156435001Y-87287367D01*
X156435001Y-86562633D01*
X156435418Y-86558405D01*
X156435923Y-86556739D01*
X156436745Y-86555200D01*
X156437852Y-86553851D01*
X156439201Y-86552744D01*
X156440740Y-86551922D01*
X156442406Y-86551417D01*
X156446634Y-86551000D01*
X156721368Y-86551000D01*
X156725596Y-86551417D01*
G37*
G36*
X154725596Y-86551417D02*
G01*
X154727262Y-86551922D01*
X154728801Y-86552744D01*
X154730150Y-86553851D01*
X154731257Y-86555200D01*
X154732079Y-86556739D01*
X154732584Y-86558405D01*
X154733001Y-86562633D01*
X154733001Y-87287367D01*
X154732584Y-87291595D01*
X154732079Y-87293261D01*
X154731257Y-87294800D01*
X154730150Y-87296149D01*
X154728801Y-87297256D01*
X154727262Y-87298078D01*
X154725596Y-87298583D01*
X154721368Y-87299000D01*
X154446634Y-87299000D01*
X154442406Y-87298583D01*
X154440740Y-87298078D01*
X154439201Y-87297256D01*
X154437852Y-87296149D01*
X154436745Y-87294800D01*
X154435923Y-87293261D01*
X154435418Y-87291595D01*
X154435001Y-87287367D01*
X154435001Y-86562633D01*
X154435418Y-86558405D01*
X154435923Y-86556739D01*
X154436745Y-86555200D01*
X154437852Y-86553851D01*
X154439201Y-86552744D01*
X154440740Y-86551922D01*
X154442406Y-86551417D01*
X154446634Y-86551000D01*
X154721368Y-86551000D01*
X154725596Y-86551417D01*
G37*
G36*
X152725596Y-86551417D02*
G01*
X152727262Y-86551922D01*
X152728801Y-86552744D01*
X152730150Y-86553851D01*
X152731257Y-86555200D01*
X152732079Y-86556739D01*
X152732584Y-86558405D01*
X152733001Y-86562633D01*
X152733001Y-87287367D01*
X152732584Y-87291595D01*
X152732079Y-87293261D01*
X152731257Y-87294800D01*
X152730150Y-87296149D01*
X152728801Y-87297256D01*
X152727262Y-87298078D01*
X152725596Y-87298583D01*
X152721368Y-87299000D01*
X152446634Y-87299000D01*
X152442406Y-87298583D01*
X152440740Y-87298078D01*
X152439201Y-87297256D01*
X152437852Y-87296149D01*
X152436745Y-87294800D01*
X152435923Y-87293261D01*
X152435418Y-87291595D01*
X152435001Y-87287367D01*
X152435001Y-86562633D01*
X152435418Y-86558405D01*
X152435923Y-86556739D01*
X152436745Y-86555200D01*
X152437852Y-86553851D01*
X152439201Y-86552744D01*
X152440740Y-86551922D01*
X152442406Y-86551417D01*
X152446634Y-86551000D01*
X152721368Y-86551000D01*
X152725596Y-86551417D01*
G37*
G36*
X155525596Y-86551417D02*
G01*
X155527262Y-86551922D01*
X155528801Y-86552744D01*
X155530150Y-86553851D01*
X155531257Y-86555200D01*
X155532079Y-86556739D01*
X155532584Y-86558405D01*
X155533001Y-86562633D01*
X155533001Y-87287367D01*
X155532584Y-87291595D01*
X155532079Y-87293261D01*
X155531257Y-87294800D01*
X155530150Y-87296149D01*
X155528801Y-87297256D01*
X155527262Y-87298078D01*
X155525596Y-87298583D01*
X155521368Y-87299000D01*
X155246634Y-87299000D01*
X155242406Y-87298583D01*
X155240740Y-87298078D01*
X155239201Y-87297256D01*
X155237852Y-87296149D01*
X155236745Y-87294800D01*
X155235923Y-87293261D01*
X155235418Y-87291595D01*
X155235001Y-87287367D01*
X155235001Y-86562633D01*
X155235418Y-86558405D01*
X155235923Y-86556739D01*
X155236745Y-86555200D01*
X155237852Y-86553851D01*
X155239201Y-86552744D01*
X155240740Y-86551922D01*
X155242406Y-86551417D01*
X155246634Y-86551000D01*
X155521368Y-86551000D01*
X155525596Y-86551417D01*
G37*
G36*
X161495949Y-86334057D02*
G01*
X161523406Y-86342386D01*
X161548711Y-86355912D01*
X161570888Y-86374112D01*
X161589088Y-86396289D01*
X161602614Y-86421594D01*
X161610943Y-86449051D01*
X161614000Y-86480091D01*
X161614000Y-86919909D01*
X161610943Y-86950949D01*
X161602614Y-86978406D01*
X161589088Y-87003711D01*
X161570888Y-87025888D01*
X161548711Y-87044088D01*
X161523406Y-87057614D01*
X161495949Y-87065943D01*
X161464909Y-87069000D01*
X161075091Y-87069000D01*
X161044051Y-87065943D01*
X161016594Y-87057614D01*
X160991289Y-87044088D01*
X160969112Y-87025888D01*
X160950912Y-87003711D01*
X160937386Y-86978406D01*
X160929057Y-86950949D01*
X160926000Y-86919909D01*
X160926000Y-86480091D01*
X160929057Y-86449051D01*
X160937386Y-86421594D01*
X160950912Y-86396289D01*
X160969112Y-86374112D01*
X160991289Y-86355912D01*
X161016594Y-86342386D01*
X161044051Y-86334057D01*
X161075091Y-86331000D01*
X161464909Y-86331000D01*
X161495949Y-86334057D01*
G37*
G36*
X160525949Y-86334057D02*
G01*
X160553406Y-86342386D01*
X160578711Y-86355912D01*
X160600888Y-86374112D01*
X160619088Y-86396289D01*
X160632614Y-86421594D01*
X160640943Y-86449051D01*
X160644000Y-86480091D01*
X160644000Y-86919909D01*
X160640943Y-86950949D01*
X160632614Y-86978406D01*
X160619088Y-87003711D01*
X160600888Y-87025888D01*
X160578711Y-87044088D01*
X160553406Y-87057614D01*
X160525949Y-87065943D01*
X160494909Y-87069000D01*
X160105091Y-87069000D01*
X160074051Y-87065943D01*
X160046594Y-87057614D01*
X160021289Y-87044088D01*
X159999112Y-87025888D01*
X159980912Y-87003711D01*
X159967386Y-86978406D01*
X159959057Y-86950949D01*
X159956000Y-86919909D01*
X159956000Y-86480091D01*
X159959057Y-86449051D01*
X159967386Y-86421594D01*
X159980912Y-86396289D01*
X159999112Y-86374112D01*
X160021289Y-86355912D01*
X160046594Y-86342386D01*
X160074051Y-86334057D01*
X160105091Y-86331000D01*
X160494909Y-86331000D01*
X160525949Y-86334057D01*
G37*
G36*
X151311099Y-85680426D02*
G01*
X151351927Y-85692811D01*
X151389541Y-85712917D01*
X151422520Y-85739980D01*
X151449583Y-85772959D01*
X151469689Y-85810573D01*
X151482074Y-85851401D01*
X151486500Y-85896341D01*
X151486500Y-86503659D01*
X151482074Y-86548599D01*
X151469689Y-86589427D01*
X151449583Y-86627041D01*
X151422520Y-86660020D01*
X151389541Y-86687083D01*
X151351927Y-86707189D01*
X151311099Y-86719574D01*
X151266159Y-86724000D01*
X150733841Y-86724000D01*
X150688901Y-86719574D01*
X150648073Y-86707189D01*
X150610459Y-86687083D01*
X150577480Y-86660020D01*
X150550417Y-86627041D01*
X150530311Y-86589427D01*
X150517926Y-86548599D01*
X150513500Y-86503659D01*
X150513500Y-85896341D01*
X150517926Y-85851401D01*
X150530311Y-85810573D01*
X150550417Y-85772959D01*
X150577480Y-85739980D01*
X150610459Y-85712917D01*
X150648073Y-85692811D01*
X150688901Y-85680426D01*
X150733841Y-85676000D01*
X151266159Y-85676000D01*
X151311099Y-85680426D01*
G37*
G36*
X149736099Y-85680426D02*
G01*
X149776927Y-85692811D01*
X149814541Y-85712917D01*
X149847520Y-85739980D01*
X149874583Y-85772959D01*
X149894689Y-85810573D01*
X149907074Y-85851401D01*
X149911500Y-85896341D01*
X149911500Y-86503659D01*
X149907074Y-86548599D01*
X149894689Y-86589427D01*
X149874583Y-86627041D01*
X149847520Y-86660020D01*
X149814541Y-86687083D01*
X149776927Y-86707189D01*
X149736099Y-86719574D01*
X149691159Y-86724000D01*
X149158841Y-86724000D01*
X149113901Y-86719574D01*
X149073073Y-86707189D01*
X149035459Y-86687083D01*
X149002480Y-86660020D01*
X148975417Y-86627041D01*
X148955311Y-86589427D01*
X148942926Y-86548599D01*
X148938500Y-86503659D01*
X148938500Y-85896341D01*
X148942926Y-85851401D01*
X148955311Y-85810573D01*
X148975417Y-85772959D01*
X149002480Y-85739980D01*
X149035459Y-85712917D01*
X149073073Y-85692811D01*
X149113901Y-85680426D01*
X149158841Y-85676000D01*
X149691159Y-85676000D01*
X149736099Y-85680426D01*
G37*
G36*
X147249000Y-86049000D02*
G01*
X145351000Y-86049000D01*
X145351000Y-84951000D01*
X147249000Y-84951000D01*
X147249000Y-86049000D01*
G37*
G36*
X153348599Y-85017926D02*
G01*
X153389427Y-85030311D01*
X153427041Y-85050417D01*
X153460020Y-85077480D01*
X153487083Y-85110459D01*
X153507189Y-85148073D01*
X153519574Y-85188901D01*
X153524000Y-85233841D01*
X153524000Y-85766159D01*
X153519574Y-85811099D01*
X153507189Y-85851927D01*
X153487083Y-85889541D01*
X153460020Y-85922520D01*
X153427041Y-85949583D01*
X153389427Y-85969689D01*
X153348599Y-85982074D01*
X153303659Y-85986500D01*
X152696341Y-85986500D01*
X152651401Y-85982074D01*
X152610573Y-85969689D01*
X152572959Y-85949583D01*
X152539980Y-85922520D01*
X152512917Y-85889541D01*
X152492811Y-85851927D01*
X152480426Y-85811099D01*
X152476000Y-85766159D01*
X152476000Y-85233841D01*
X152480426Y-85188901D01*
X152492811Y-85148073D01*
X152512917Y-85110459D01*
X152539980Y-85077480D01*
X152572959Y-85050417D01*
X152610573Y-85030311D01*
X152651401Y-85017926D01*
X152696341Y-85013500D01*
X153303659Y-85013500D01*
X153348599Y-85017926D01*
G37*
G36*
X144850949Y-85144057D02*
G01*
X144878406Y-85152386D01*
X144903711Y-85165912D01*
X144925888Y-85184112D01*
X144944088Y-85206289D01*
X144957614Y-85231594D01*
X144965943Y-85259051D01*
X144969000Y-85290091D01*
X144969000Y-85679909D01*
X144965943Y-85710949D01*
X144957614Y-85738406D01*
X144944088Y-85763711D01*
X144925888Y-85785888D01*
X144903711Y-85804088D01*
X144878406Y-85817614D01*
X144850949Y-85825943D01*
X144819909Y-85829000D01*
X144380091Y-85829000D01*
X144349051Y-85825943D01*
X144321594Y-85817614D01*
X144296289Y-85804088D01*
X144274112Y-85785888D01*
X144255912Y-85763711D01*
X144242386Y-85738406D01*
X144234057Y-85710949D01*
X144231000Y-85679909D01*
X144231000Y-85290091D01*
X144234057Y-85259051D01*
X144242386Y-85231594D01*
X144255912Y-85206289D01*
X144274112Y-85184112D01*
X144296289Y-85165912D01*
X144321594Y-85152386D01*
X144349051Y-85144057D01*
X144380091Y-85141000D01*
X144819909Y-85141000D01*
X144850949Y-85144057D01*
G37*
G36*
X160599000Y-85814000D02*
G01*
X159601000Y-85814000D01*
X159601000Y-84916000D01*
X160599000Y-84916000D01*
X160599000Y-85814000D01*
G37*
G36*
X161999000Y-85814000D02*
G01*
X161001000Y-85814000D01*
X161001000Y-84916000D01*
X161999000Y-84916000D01*
X161999000Y-85814000D01*
G37*
G36*
X158050949Y-84959057D02*
G01*
X158078406Y-84967386D01*
X158103711Y-84980912D01*
X158125888Y-84999112D01*
X158144088Y-85021289D01*
X158157614Y-85046594D01*
X158165943Y-85074051D01*
X158169000Y-85105091D01*
X158169000Y-85494909D01*
X158165943Y-85525949D01*
X158157614Y-85553406D01*
X158144088Y-85578711D01*
X158125888Y-85600888D01*
X158103711Y-85619088D01*
X158078406Y-85632614D01*
X158050949Y-85640943D01*
X158019909Y-85644000D01*
X157580091Y-85644000D01*
X157549051Y-85640943D01*
X157521594Y-85632614D01*
X157496289Y-85619088D01*
X157474112Y-85600888D01*
X157455912Y-85578711D01*
X157442386Y-85553406D01*
X157434057Y-85525949D01*
X157431000Y-85494909D01*
X157431000Y-85105091D01*
X157434057Y-85074051D01*
X157442386Y-85046594D01*
X157455912Y-85021289D01*
X157474112Y-84999112D01*
X157496289Y-84980912D01*
X157521594Y-84967386D01*
X157549051Y-84959057D01*
X157580091Y-84956000D01*
X158019909Y-84956000D01*
X158050949Y-84959057D01*
G37*
G36*
X159050949Y-84959057D02*
G01*
X159078406Y-84967386D01*
X159103711Y-84980912D01*
X159125888Y-84999112D01*
X159144088Y-85021289D01*
X159157614Y-85046594D01*
X159165943Y-85074051D01*
X159169000Y-85105091D01*
X159169000Y-85494909D01*
X159165943Y-85525949D01*
X159157614Y-85553406D01*
X159144088Y-85578711D01*
X159125888Y-85600888D01*
X159103711Y-85619088D01*
X159078406Y-85632614D01*
X159050949Y-85640943D01*
X159019909Y-85644000D01*
X158580091Y-85644000D01*
X158549051Y-85640943D01*
X158521594Y-85632614D01*
X158496289Y-85619088D01*
X158474112Y-85600888D01*
X158455912Y-85578711D01*
X158442386Y-85553406D01*
X158434057Y-85525949D01*
X158431000Y-85494909D01*
X158431000Y-85105091D01*
X158434057Y-85074051D01*
X158442386Y-85046594D01*
X158455912Y-85021289D01*
X158474112Y-84999112D01*
X158496289Y-84980912D01*
X158521594Y-84967386D01*
X158549051Y-84959057D01*
X158580091Y-84956000D01*
X159019909Y-84956000D01*
X159050949Y-84959057D01*
G37*
G36*
X163050949Y-84959057D02*
G01*
X163078406Y-84967386D01*
X163103711Y-84980912D01*
X163125888Y-84999112D01*
X163144088Y-85021289D01*
X163157614Y-85046594D01*
X163165943Y-85074051D01*
X163169000Y-85105091D01*
X163169000Y-85494909D01*
X163165943Y-85525949D01*
X163157614Y-85553406D01*
X163144088Y-85578711D01*
X163125888Y-85600888D01*
X163103711Y-85619088D01*
X163078406Y-85632614D01*
X163050949Y-85640943D01*
X163019909Y-85644000D01*
X162580091Y-85644000D01*
X162549051Y-85640943D01*
X162521594Y-85632614D01*
X162496289Y-85619088D01*
X162474112Y-85600888D01*
X162455912Y-85578711D01*
X162442386Y-85553406D01*
X162434057Y-85525949D01*
X162431000Y-85494909D01*
X162431000Y-85105091D01*
X162434057Y-85074051D01*
X162442386Y-85046594D01*
X162455912Y-85021289D01*
X162474112Y-84999112D01*
X162496289Y-84980912D01*
X162521594Y-84967386D01*
X162549051Y-84959057D01*
X162580091Y-84956000D01*
X163019909Y-84956000D01*
X163050949Y-84959057D01*
G37*
G36*
X144850949Y-84174057D02*
G01*
X144878406Y-84182386D01*
X144903711Y-84195912D01*
X144925888Y-84214112D01*
X144944088Y-84236289D01*
X144957614Y-84261594D01*
X144965943Y-84289051D01*
X144969000Y-84320091D01*
X144969000Y-84709909D01*
X144965943Y-84740949D01*
X144957614Y-84768406D01*
X144944088Y-84793711D01*
X144925888Y-84815888D01*
X144903711Y-84834088D01*
X144878406Y-84847614D01*
X144850949Y-84855943D01*
X144819909Y-84859000D01*
X144380091Y-84859000D01*
X144349051Y-84855943D01*
X144321594Y-84847614D01*
X144296289Y-84834088D01*
X144274112Y-84815888D01*
X144255912Y-84793711D01*
X144242386Y-84768406D01*
X144234057Y-84740949D01*
X144231000Y-84709909D01*
X144231000Y-84320091D01*
X144234057Y-84289051D01*
X144242386Y-84261594D01*
X144255912Y-84236289D01*
X144274112Y-84214112D01*
X144296289Y-84195912D01*
X144321594Y-84182386D01*
X144349051Y-84174057D01*
X144380091Y-84171000D01*
X144819909Y-84171000D01*
X144850949Y-84174057D01*
G37*
G36*
X160599000Y-84714000D02*
G01*
X159601000Y-84714000D01*
X159601000Y-83816000D01*
X160599000Y-83816000D01*
X160599000Y-84714000D01*
G37*
G36*
X161999000Y-84714000D02*
G01*
X161001000Y-84714000D01*
X161001000Y-83816000D01*
X161999000Y-83816000D01*
X161999000Y-84714000D01*
G37*
G36*
X158050949Y-83989057D02*
G01*
X158078406Y-83997386D01*
X158103711Y-84010912D01*
X158125888Y-84029112D01*
X158144088Y-84051289D01*
X158157614Y-84076594D01*
X158165943Y-84104051D01*
X158169000Y-84135091D01*
X158169000Y-84524909D01*
X158165943Y-84555949D01*
X158157614Y-84583406D01*
X158144088Y-84608711D01*
X158125888Y-84630888D01*
X158103711Y-84649088D01*
X158078406Y-84662614D01*
X158050949Y-84670943D01*
X158019909Y-84674000D01*
X157580091Y-84674000D01*
X157549051Y-84670943D01*
X157521594Y-84662614D01*
X157496289Y-84649088D01*
X157474112Y-84630888D01*
X157455912Y-84608711D01*
X157442386Y-84583406D01*
X157434057Y-84555949D01*
X157431000Y-84524909D01*
X157431000Y-84135091D01*
X157434057Y-84104051D01*
X157442386Y-84076594D01*
X157455912Y-84051289D01*
X157474112Y-84029112D01*
X157496289Y-84010912D01*
X157521594Y-83997386D01*
X157549051Y-83989057D01*
X157580091Y-83986000D01*
X158019909Y-83986000D01*
X158050949Y-83989057D01*
G37*
G36*
X159050949Y-83989057D02*
G01*
X159078406Y-83997386D01*
X159103711Y-84010912D01*
X159125888Y-84029112D01*
X159144088Y-84051289D01*
X159157614Y-84076594D01*
X159165943Y-84104051D01*
X159169000Y-84135091D01*
X159169000Y-84524909D01*
X159165943Y-84555949D01*
X159157614Y-84583406D01*
X159144088Y-84608711D01*
X159125888Y-84630888D01*
X159103711Y-84649088D01*
X159078406Y-84662614D01*
X159050949Y-84670943D01*
X159019909Y-84674000D01*
X158580091Y-84674000D01*
X158549051Y-84670943D01*
X158521594Y-84662614D01*
X158496289Y-84649088D01*
X158474112Y-84630888D01*
X158455912Y-84608711D01*
X158442386Y-84583406D01*
X158434057Y-84555949D01*
X158431000Y-84524909D01*
X158431000Y-84135091D01*
X158434057Y-84104051D01*
X158442386Y-84076594D01*
X158455912Y-84051289D01*
X158474112Y-84029112D01*
X158496289Y-84010912D01*
X158521594Y-83997386D01*
X158549051Y-83989057D01*
X158580091Y-83986000D01*
X159019909Y-83986000D01*
X159050949Y-83989057D01*
G37*
G36*
X163050949Y-83989057D02*
G01*
X163078406Y-83997386D01*
X163103711Y-84010912D01*
X163125888Y-84029112D01*
X163144088Y-84051289D01*
X163157614Y-84076594D01*
X163165943Y-84104051D01*
X163169000Y-84135091D01*
X163169000Y-84524909D01*
X163165943Y-84555949D01*
X163157614Y-84583406D01*
X163144088Y-84608711D01*
X163125888Y-84630888D01*
X163103711Y-84649088D01*
X163078406Y-84662614D01*
X163050949Y-84670943D01*
X163019909Y-84674000D01*
X162580091Y-84674000D01*
X162549051Y-84670943D01*
X162521594Y-84662614D01*
X162496289Y-84649088D01*
X162474112Y-84630888D01*
X162455912Y-84608711D01*
X162442386Y-84583406D01*
X162434057Y-84555949D01*
X162431000Y-84524909D01*
X162431000Y-84135091D01*
X162434057Y-84104051D01*
X162442386Y-84076594D01*
X162455912Y-84051289D01*
X162474112Y-84029112D01*
X162496289Y-84010912D01*
X162521594Y-83997386D01*
X162549051Y-83989057D01*
X162580091Y-83986000D01*
X163019909Y-83986000D01*
X163050949Y-83989057D01*
G37*
G36*
X153348599Y-83442926D02*
G01*
X153389427Y-83455311D01*
X153427041Y-83475417D01*
X153460020Y-83502480D01*
X153487083Y-83535459D01*
X153507189Y-83573073D01*
X153519574Y-83613901D01*
X153524000Y-83658841D01*
X153524000Y-84191159D01*
X153519574Y-84236099D01*
X153507189Y-84276927D01*
X153487083Y-84314541D01*
X153460020Y-84347520D01*
X153427041Y-84374583D01*
X153389427Y-84394689D01*
X153348599Y-84407074D01*
X153303659Y-84411500D01*
X152696341Y-84411500D01*
X152651401Y-84407074D01*
X152610573Y-84394689D01*
X152572959Y-84374583D01*
X152539980Y-84347520D01*
X152512917Y-84314541D01*
X152492811Y-84276927D01*
X152480426Y-84236099D01*
X152476000Y-84191159D01*
X152476000Y-83658841D01*
X152480426Y-83613901D01*
X152492811Y-83573073D01*
X152512917Y-83535459D01*
X152539980Y-83502480D01*
X152572959Y-83475417D01*
X152610573Y-83455311D01*
X152651401Y-83442926D01*
X152696341Y-83438500D01*
X153303659Y-83438500D01*
X153348599Y-83442926D01*
G37*
G36*
X164136099Y-82580426D02*
G01*
X164176927Y-82592811D01*
X164214541Y-82612917D01*
X164247520Y-82639980D01*
X164274583Y-82672959D01*
X164294689Y-82710573D01*
X164307074Y-82751401D01*
X164311500Y-82796341D01*
X164311500Y-83403659D01*
X164307074Y-83448599D01*
X164294689Y-83489427D01*
X164274583Y-83527041D01*
X164247520Y-83560020D01*
X164214541Y-83587083D01*
X164176927Y-83607189D01*
X164136099Y-83619574D01*
X164091159Y-83624000D01*
X163558841Y-83624000D01*
X163513901Y-83619574D01*
X163473073Y-83607189D01*
X163435459Y-83587083D01*
X163402480Y-83560020D01*
X163375417Y-83527041D01*
X163355311Y-83489427D01*
X163342926Y-83448599D01*
X163338500Y-83403659D01*
X163338500Y-82796341D01*
X163342926Y-82751401D01*
X163355311Y-82710573D01*
X163375417Y-82672959D01*
X163402480Y-82639980D01*
X163435459Y-82612917D01*
X163473073Y-82592811D01*
X163513901Y-82580426D01*
X163558841Y-82576000D01*
X164091159Y-82576000D01*
X164136099Y-82580426D01*
G37*
G36*
X165711099Y-82580426D02*
G01*
X165751927Y-82592811D01*
X165789541Y-82612917D01*
X165822520Y-82639980D01*
X165849583Y-82672959D01*
X165869689Y-82710573D01*
X165882074Y-82751401D01*
X165886500Y-82796341D01*
X165886500Y-83403659D01*
X165882074Y-83448599D01*
X165869689Y-83489427D01*
X165849583Y-83527041D01*
X165822520Y-83560020D01*
X165789541Y-83587083D01*
X165751927Y-83607189D01*
X165711099Y-83619574D01*
X165666159Y-83624000D01*
X165133841Y-83624000D01*
X165088901Y-83619574D01*
X165048073Y-83607189D01*
X165010459Y-83587083D01*
X164977480Y-83560020D01*
X164950417Y-83527041D01*
X164930311Y-83489427D01*
X164917926Y-83448599D01*
X164913500Y-83403659D01*
X164913500Y-82796341D01*
X164917926Y-82751401D01*
X164930311Y-82710573D01*
X164950417Y-82672959D01*
X164977480Y-82639980D01*
X165010459Y-82612917D01*
X165048073Y-82592811D01*
X165088901Y-82580426D01*
X165133841Y-82576000D01*
X165666159Y-82576000D01*
X165711099Y-82580426D01*
G37*
M02*
