M48
INCH,TZ
T1C0.0157
T2C0.0394
%
G90
G05
T1
X53346Y-31890
X53740Y-34843
X53937Y-32087
X54528Y-34252
X54724Y-35827
X55315Y-31890
X55315Y-36024
X55906Y-32480
X56102Y-36024
X56693Y-33071
X56693Y-35433
X57087Y-33071
X57480Y-33071
T2
X52362Y-32283
X52362Y-33283
X52362Y-34283
X52362Y-35283
X52362Y-36283
X59449Y-31465
X59449Y-32465
X59449Y-33465
X59449Y-34465
X59449Y-35465
X59449Y-36465
X59449Y-37465
T0
M30
