G04 #@! TF.GenerationSoftware,KiCad,Pcbnew,(5.1.6)-1*
G04 #@! TF.CreationDate,2021-04-19T16:32:52+02:00*
G04 #@! TF.ProjectId,LMP91000_Breakout_Board,4c4d5039-3130-4303-905f-427265616b6f,rev?*
G04 #@! TF.SameCoordinates,Original*
G04 #@! TF.FileFunction,Copper,L2,Bot*
G04 #@! TF.FilePolarity,Positive*
%FSLAX46Y46*%
G04 Gerber Fmt 4.6, Leading zero omitted, Abs format (unit mm)*
G04 Created by KiCad (PCBNEW (5.1.6)-1) date 2021-04-19 16:32:52*
%MOMM*%
%LPD*%
G01*
G04 APERTURE LIST*
G04 #@! TA.AperFunction,ComponentPad*
%ADD10O,1.700000X1.700000*%
G04 #@! TD*
G04 #@! TA.AperFunction,ComponentPad*
%ADD11R,1.700000X1.700000*%
G04 #@! TD*
G04 #@! TA.AperFunction,ViaPad*
%ADD12C,0.800000*%
G04 #@! TD*
G04 #@! TA.AperFunction,Conductor*
%ADD13C,0.400000*%
G04 #@! TD*
G04 #@! TA.AperFunction,Conductor*
%ADD14C,0.254000*%
G04 #@! TD*
G04 APERTURE END LIST*
D10*
X133000000Y-92160000D03*
X133000000Y-89620000D03*
X133000000Y-87080000D03*
X133000000Y-84540000D03*
D11*
X133000000Y-82000000D03*
D10*
X151000000Y-95160000D03*
X151000000Y-92620000D03*
X151000000Y-90080000D03*
X151000000Y-87540000D03*
X151000000Y-85000000D03*
X151000000Y-82460000D03*
D11*
X151000000Y-79920000D03*
D12*
X142500000Y-91500000D03*
X140500000Y-91500000D03*
X144000000Y-90000000D03*
X139000000Y-91000000D03*
X146000000Y-84000000D03*
X145000000Y-84000000D03*
X144000000Y-84000000D03*
X136500000Y-88500000D03*
X138500000Y-87000000D03*
X142000000Y-82500000D03*
X140500000Y-81000000D03*
X135500000Y-81000000D03*
X137000000Y-81500000D03*
D13*
X137000000Y-85620000D02*
X137000000Y-81500000D01*
X133000000Y-89620000D02*
X137000000Y-85620000D01*
D14*
G36*
X154340000Y-96840000D02*
G01*
X129660000Y-96840000D01*
X129660000Y-92516890D01*
X131558524Y-92516890D01*
X131603175Y-92664099D01*
X131728359Y-92926920D01*
X131902412Y-93160269D01*
X132118645Y-93355178D01*
X132368748Y-93504157D01*
X132643109Y-93601481D01*
X132873000Y-93480814D01*
X132873000Y-92287000D01*
X133127000Y-92287000D01*
X133127000Y-93480814D01*
X133356891Y-93601481D01*
X133631252Y-93504157D01*
X133881355Y-93355178D01*
X134097588Y-93160269D01*
X134271641Y-92926920D01*
X134396825Y-92664099D01*
X134441476Y-92516890D01*
X134320155Y-92287000D01*
X133127000Y-92287000D01*
X132873000Y-92287000D01*
X131679845Y-92287000D01*
X131558524Y-92516890D01*
X129660000Y-92516890D01*
X129660000Y-81150000D01*
X131511928Y-81150000D01*
X131511928Y-82850000D01*
X131524188Y-82974482D01*
X131560498Y-83094180D01*
X131619463Y-83204494D01*
X131698815Y-83301185D01*
X131795506Y-83380537D01*
X131905820Y-83439502D01*
X131978380Y-83461513D01*
X131846525Y-83593368D01*
X131684010Y-83836589D01*
X131572068Y-84106842D01*
X131515000Y-84393740D01*
X131515000Y-84686260D01*
X131572068Y-84973158D01*
X131684010Y-85243411D01*
X131846525Y-85486632D01*
X132053368Y-85693475D01*
X132227760Y-85810000D01*
X132053368Y-85926525D01*
X131846525Y-86133368D01*
X131684010Y-86376589D01*
X131572068Y-86646842D01*
X131515000Y-86933740D01*
X131515000Y-87226260D01*
X131572068Y-87513158D01*
X131684010Y-87783411D01*
X131846525Y-88026632D01*
X132053368Y-88233475D01*
X132227760Y-88350000D01*
X132053368Y-88466525D01*
X131846525Y-88673368D01*
X131684010Y-88916589D01*
X131572068Y-89186842D01*
X131515000Y-89473740D01*
X131515000Y-89766260D01*
X131572068Y-90053158D01*
X131684010Y-90323411D01*
X131846525Y-90566632D01*
X132053368Y-90773475D01*
X132235534Y-90895195D01*
X132118645Y-90964822D01*
X131902412Y-91159731D01*
X131728359Y-91393080D01*
X131603175Y-91655901D01*
X131558524Y-91803110D01*
X131679845Y-92033000D01*
X132873000Y-92033000D01*
X132873000Y-92013000D01*
X133127000Y-92013000D01*
X133127000Y-92033000D01*
X134320155Y-92033000D01*
X134441476Y-91803110D01*
X134396825Y-91655901D01*
X134271641Y-91393080D01*
X134097588Y-91159731D01*
X133881355Y-90964822D01*
X133764466Y-90895195D01*
X133946632Y-90773475D01*
X134153475Y-90566632D01*
X134315990Y-90323411D01*
X134427932Y-90053158D01*
X134485000Y-89766260D01*
X134485000Y-89473740D01*
X134458807Y-89342060D01*
X137561428Y-86239440D01*
X137593291Y-86213291D01*
X137697636Y-86086146D01*
X137775172Y-85941087D01*
X137822918Y-85783689D01*
X137835000Y-85661019D01*
X137835000Y-85661017D01*
X137839040Y-85620001D01*
X137835000Y-85578985D01*
X137835000Y-82113285D01*
X137917205Y-81990256D01*
X137995226Y-81801898D01*
X138035000Y-81601939D01*
X138035000Y-81398061D01*
X137995226Y-81198102D01*
X137917205Y-81009744D01*
X137803937Y-80840226D01*
X137659774Y-80696063D01*
X137490256Y-80582795D01*
X137301898Y-80504774D01*
X137101939Y-80465000D01*
X136898061Y-80465000D01*
X136698102Y-80504774D01*
X136509744Y-80582795D01*
X136340226Y-80696063D01*
X136196063Y-80840226D01*
X136082795Y-81009744D01*
X136004774Y-81198102D01*
X135965000Y-81398061D01*
X135965000Y-81601939D01*
X136004774Y-81801898D01*
X136082795Y-81990256D01*
X136165001Y-82113286D01*
X136165000Y-85274132D01*
X134485000Y-86954132D01*
X134485000Y-86933740D01*
X134427932Y-86646842D01*
X134315990Y-86376589D01*
X134153475Y-86133368D01*
X133946632Y-85926525D01*
X133772240Y-85810000D01*
X133946632Y-85693475D01*
X134153475Y-85486632D01*
X134315990Y-85243411D01*
X134427932Y-84973158D01*
X134485000Y-84686260D01*
X134485000Y-84393740D01*
X134427932Y-84106842D01*
X134315990Y-83836589D01*
X134153475Y-83593368D01*
X134021620Y-83461513D01*
X134094180Y-83439502D01*
X134204494Y-83380537D01*
X134301185Y-83301185D01*
X134380537Y-83204494D01*
X134439502Y-83094180D01*
X134475812Y-82974482D01*
X134488072Y-82850000D01*
X134488072Y-81150000D01*
X134475812Y-81025518D01*
X134439502Y-80905820D01*
X134380537Y-80795506D01*
X134301185Y-80698815D01*
X134204494Y-80619463D01*
X134094180Y-80560498D01*
X133974482Y-80524188D01*
X133850000Y-80511928D01*
X132150000Y-80511928D01*
X132025518Y-80524188D01*
X131905820Y-80560498D01*
X131795506Y-80619463D01*
X131698815Y-80698815D01*
X131619463Y-80795506D01*
X131560498Y-80905820D01*
X131524188Y-81025518D01*
X131511928Y-81150000D01*
X129660000Y-81150000D01*
X129660000Y-79070000D01*
X149511928Y-79070000D01*
X149511928Y-80770000D01*
X149524188Y-80894482D01*
X149560498Y-81014180D01*
X149619463Y-81124494D01*
X149698815Y-81221185D01*
X149795506Y-81300537D01*
X149905820Y-81359502D01*
X149978380Y-81381513D01*
X149846525Y-81513368D01*
X149684010Y-81756589D01*
X149572068Y-82026842D01*
X149515000Y-82313740D01*
X149515000Y-82606260D01*
X149572068Y-82893158D01*
X149684010Y-83163411D01*
X149846525Y-83406632D01*
X150053368Y-83613475D01*
X150227760Y-83730000D01*
X150053368Y-83846525D01*
X149846525Y-84053368D01*
X149684010Y-84296589D01*
X149572068Y-84566842D01*
X149515000Y-84853740D01*
X149515000Y-85146260D01*
X149572068Y-85433158D01*
X149684010Y-85703411D01*
X149846525Y-85946632D01*
X150053368Y-86153475D01*
X150227760Y-86270000D01*
X150053368Y-86386525D01*
X149846525Y-86593368D01*
X149684010Y-86836589D01*
X149572068Y-87106842D01*
X149515000Y-87393740D01*
X149515000Y-87686260D01*
X149572068Y-87973158D01*
X149684010Y-88243411D01*
X149846525Y-88486632D01*
X150053368Y-88693475D01*
X150227760Y-88810000D01*
X150053368Y-88926525D01*
X149846525Y-89133368D01*
X149684010Y-89376589D01*
X149572068Y-89646842D01*
X149515000Y-89933740D01*
X149515000Y-90226260D01*
X149572068Y-90513158D01*
X149684010Y-90783411D01*
X149846525Y-91026632D01*
X150053368Y-91233475D01*
X150227760Y-91350000D01*
X150053368Y-91466525D01*
X149846525Y-91673368D01*
X149684010Y-91916589D01*
X149572068Y-92186842D01*
X149515000Y-92473740D01*
X149515000Y-92766260D01*
X149572068Y-93053158D01*
X149684010Y-93323411D01*
X149846525Y-93566632D01*
X150053368Y-93773475D01*
X150227760Y-93890000D01*
X150053368Y-94006525D01*
X149846525Y-94213368D01*
X149684010Y-94456589D01*
X149572068Y-94726842D01*
X149515000Y-95013740D01*
X149515000Y-95306260D01*
X149572068Y-95593158D01*
X149684010Y-95863411D01*
X149846525Y-96106632D01*
X150053368Y-96313475D01*
X150296589Y-96475990D01*
X150566842Y-96587932D01*
X150853740Y-96645000D01*
X151146260Y-96645000D01*
X151433158Y-96587932D01*
X151703411Y-96475990D01*
X151946632Y-96313475D01*
X152153475Y-96106632D01*
X152315990Y-95863411D01*
X152427932Y-95593158D01*
X152485000Y-95306260D01*
X152485000Y-95013740D01*
X152427932Y-94726842D01*
X152315990Y-94456589D01*
X152153475Y-94213368D01*
X151946632Y-94006525D01*
X151772240Y-93890000D01*
X151946632Y-93773475D01*
X152153475Y-93566632D01*
X152315990Y-93323411D01*
X152427932Y-93053158D01*
X152485000Y-92766260D01*
X152485000Y-92473740D01*
X152427932Y-92186842D01*
X152315990Y-91916589D01*
X152153475Y-91673368D01*
X151946632Y-91466525D01*
X151772240Y-91350000D01*
X151946632Y-91233475D01*
X152153475Y-91026632D01*
X152315990Y-90783411D01*
X152427932Y-90513158D01*
X152485000Y-90226260D01*
X152485000Y-89933740D01*
X152427932Y-89646842D01*
X152315990Y-89376589D01*
X152153475Y-89133368D01*
X151946632Y-88926525D01*
X151772240Y-88810000D01*
X151946632Y-88693475D01*
X152153475Y-88486632D01*
X152315990Y-88243411D01*
X152427932Y-87973158D01*
X152485000Y-87686260D01*
X152485000Y-87393740D01*
X152427932Y-87106842D01*
X152315990Y-86836589D01*
X152153475Y-86593368D01*
X151946632Y-86386525D01*
X151772240Y-86270000D01*
X151946632Y-86153475D01*
X152153475Y-85946632D01*
X152315990Y-85703411D01*
X152427932Y-85433158D01*
X152485000Y-85146260D01*
X152485000Y-84853740D01*
X152427932Y-84566842D01*
X152315990Y-84296589D01*
X152153475Y-84053368D01*
X151946632Y-83846525D01*
X151772240Y-83730000D01*
X151946632Y-83613475D01*
X152153475Y-83406632D01*
X152315990Y-83163411D01*
X152427932Y-82893158D01*
X152485000Y-82606260D01*
X152485000Y-82313740D01*
X152427932Y-82026842D01*
X152315990Y-81756589D01*
X152153475Y-81513368D01*
X152021620Y-81381513D01*
X152094180Y-81359502D01*
X152204494Y-81300537D01*
X152301185Y-81221185D01*
X152380537Y-81124494D01*
X152439502Y-81014180D01*
X152475812Y-80894482D01*
X152488072Y-80770000D01*
X152488072Y-79070000D01*
X152475812Y-78945518D01*
X152439502Y-78825820D01*
X152380537Y-78715506D01*
X152301185Y-78618815D01*
X152204494Y-78539463D01*
X152094180Y-78480498D01*
X151974482Y-78444188D01*
X151850000Y-78431928D01*
X150150000Y-78431928D01*
X150025518Y-78444188D01*
X149905820Y-78480498D01*
X149795506Y-78539463D01*
X149698815Y-78618815D01*
X149619463Y-78715506D01*
X149560498Y-78825820D01*
X149524188Y-78945518D01*
X149511928Y-79070000D01*
X129660000Y-79070000D01*
X129660000Y-78160000D01*
X154340001Y-78160000D01*
X154340000Y-96840000D01*
G37*
X154340000Y-96840000D02*
X129660000Y-96840000D01*
X129660000Y-92516890D01*
X131558524Y-92516890D01*
X131603175Y-92664099D01*
X131728359Y-92926920D01*
X131902412Y-93160269D01*
X132118645Y-93355178D01*
X132368748Y-93504157D01*
X132643109Y-93601481D01*
X132873000Y-93480814D01*
X132873000Y-92287000D01*
X133127000Y-92287000D01*
X133127000Y-93480814D01*
X133356891Y-93601481D01*
X133631252Y-93504157D01*
X133881355Y-93355178D01*
X134097588Y-93160269D01*
X134271641Y-92926920D01*
X134396825Y-92664099D01*
X134441476Y-92516890D01*
X134320155Y-92287000D01*
X133127000Y-92287000D01*
X132873000Y-92287000D01*
X131679845Y-92287000D01*
X131558524Y-92516890D01*
X129660000Y-92516890D01*
X129660000Y-81150000D01*
X131511928Y-81150000D01*
X131511928Y-82850000D01*
X131524188Y-82974482D01*
X131560498Y-83094180D01*
X131619463Y-83204494D01*
X131698815Y-83301185D01*
X131795506Y-83380537D01*
X131905820Y-83439502D01*
X131978380Y-83461513D01*
X131846525Y-83593368D01*
X131684010Y-83836589D01*
X131572068Y-84106842D01*
X131515000Y-84393740D01*
X131515000Y-84686260D01*
X131572068Y-84973158D01*
X131684010Y-85243411D01*
X131846525Y-85486632D01*
X132053368Y-85693475D01*
X132227760Y-85810000D01*
X132053368Y-85926525D01*
X131846525Y-86133368D01*
X131684010Y-86376589D01*
X131572068Y-86646842D01*
X131515000Y-86933740D01*
X131515000Y-87226260D01*
X131572068Y-87513158D01*
X131684010Y-87783411D01*
X131846525Y-88026632D01*
X132053368Y-88233475D01*
X132227760Y-88350000D01*
X132053368Y-88466525D01*
X131846525Y-88673368D01*
X131684010Y-88916589D01*
X131572068Y-89186842D01*
X131515000Y-89473740D01*
X131515000Y-89766260D01*
X131572068Y-90053158D01*
X131684010Y-90323411D01*
X131846525Y-90566632D01*
X132053368Y-90773475D01*
X132235534Y-90895195D01*
X132118645Y-90964822D01*
X131902412Y-91159731D01*
X131728359Y-91393080D01*
X131603175Y-91655901D01*
X131558524Y-91803110D01*
X131679845Y-92033000D01*
X132873000Y-92033000D01*
X132873000Y-92013000D01*
X133127000Y-92013000D01*
X133127000Y-92033000D01*
X134320155Y-92033000D01*
X134441476Y-91803110D01*
X134396825Y-91655901D01*
X134271641Y-91393080D01*
X134097588Y-91159731D01*
X133881355Y-90964822D01*
X133764466Y-90895195D01*
X133946632Y-90773475D01*
X134153475Y-90566632D01*
X134315990Y-90323411D01*
X134427932Y-90053158D01*
X134485000Y-89766260D01*
X134485000Y-89473740D01*
X134458807Y-89342060D01*
X137561428Y-86239440D01*
X137593291Y-86213291D01*
X137697636Y-86086146D01*
X137775172Y-85941087D01*
X137822918Y-85783689D01*
X137835000Y-85661019D01*
X137835000Y-85661017D01*
X137839040Y-85620001D01*
X137835000Y-85578985D01*
X137835000Y-82113285D01*
X137917205Y-81990256D01*
X137995226Y-81801898D01*
X138035000Y-81601939D01*
X138035000Y-81398061D01*
X137995226Y-81198102D01*
X137917205Y-81009744D01*
X137803937Y-80840226D01*
X137659774Y-80696063D01*
X137490256Y-80582795D01*
X137301898Y-80504774D01*
X137101939Y-80465000D01*
X136898061Y-80465000D01*
X136698102Y-80504774D01*
X136509744Y-80582795D01*
X136340226Y-80696063D01*
X136196063Y-80840226D01*
X136082795Y-81009744D01*
X136004774Y-81198102D01*
X135965000Y-81398061D01*
X135965000Y-81601939D01*
X136004774Y-81801898D01*
X136082795Y-81990256D01*
X136165001Y-82113286D01*
X136165000Y-85274132D01*
X134485000Y-86954132D01*
X134485000Y-86933740D01*
X134427932Y-86646842D01*
X134315990Y-86376589D01*
X134153475Y-86133368D01*
X133946632Y-85926525D01*
X133772240Y-85810000D01*
X133946632Y-85693475D01*
X134153475Y-85486632D01*
X134315990Y-85243411D01*
X134427932Y-84973158D01*
X134485000Y-84686260D01*
X134485000Y-84393740D01*
X134427932Y-84106842D01*
X134315990Y-83836589D01*
X134153475Y-83593368D01*
X134021620Y-83461513D01*
X134094180Y-83439502D01*
X134204494Y-83380537D01*
X134301185Y-83301185D01*
X134380537Y-83204494D01*
X134439502Y-83094180D01*
X134475812Y-82974482D01*
X134488072Y-82850000D01*
X134488072Y-81150000D01*
X134475812Y-81025518D01*
X134439502Y-80905820D01*
X134380537Y-80795506D01*
X134301185Y-80698815D01*
X134204494Y-80619463D01*
X134094180Y-80560498D01*
X133974482Y-80524188D01*
X133850000Y-80511928D01*
X132150000Y-80511928D01*
X132025518Y-80524188D01*
X131905820Y-80560498D01*
X131795506Y-80619463D01*
X131698815Y-80698815D01*
X131619463Y-80795506D01*
X131560498Y-80905820D01*
X131524188Y-81025518D01*
X131511928Y-81150000D01*
X129660000Y-81150000D01*
X129660000Y-79070000D01*
X149511928Y-79070000D01*
X149511928Y-80770000D01*
X149524188Y-80894482D01*
X149560498Y-81014180D01*
X149619463Y-81124494D01*
X149698815Y-81221185D01*
X149795506Y-81300537D01*
X149905820Y-81359502D01*
X149978380Y-81381513D01*
X149846525Y-81513368D01*
X149684010Y-81756589D01*
X149572068Y-82026842D01*
X149515000Y-82313740D01*
X149515000Y-82606260D01*
X149572068Y-82893158D01*
X149684010Y-83163411D01*
X149846525Y-83406632D01*
X150053368Y-83613475D01*
X150227760Y-83730000D01*
X150053368Y-83846525D01*
X149846525Y-84053368D01*
X149684010Y-84296589D01*
X149572068Y-84566842D01*
X149515000Y-84853740D01*
X149515000Y-85146260D01*
X149572068Y-85433158D01*
X149684010Y-85703411D01*
X149846525Y-85946632D01*
X150053368Y-86153475D01*
X150227760Y-86270000D01*
X150053368Y-86386525D01*
X149846525Y-86593368D01*
X149684010Y-86836589D01*
X149572068Y-87106842D01*
X149515000Y-87393740D01*
X149515000Y-87686260D01*
X149572068Y-87973158D01*
X149684010Y-88243411D01*
X149846525Y-88486632D01*
X150053368Y-88693475D01*
X150227760Y-88810000D01*
X150053368Y-88926525D01*
X149846525Y-89133368D01*
X149684010Y-89376589D01*
X149572068Y-89646842D01*
X149515000Y-89933740D01*
X149515000Y-90226260D01*
X149572068Y-90513158D01*
X149684010Y-90783411D01*
X149846525Y-91026632D01*
X150053368Y-91233475D01*
X150227760Y-91350000D01*
X150053368Y-91466525D01*
X149846525Y-91673368D01*
X149684010Y-91916589D01*
X149572068Y-92186842D01*
X149515000Y-92473740D01*
X149515000Y-92766260D01*
X149572068Y-93053158D01*
X149684010Y-93323411D01*
X149846525Y-93566632D01*
X150053368Y-93773475D01*
X150227760Y-93890000D01*
X150053368Y-94006525D01*
X149846525Y-94213368D01*
X149684010Y-94456589D01*
X149572068Y-94726842D01*
X149515000Y-95013740D01*
X149515000Y-95306260D01*
X149572068Y-95593158D01*
X149684010Y-95863411D01*
X149846525Y-96106632D01*
X150053368Y-96313475D01*
X150296589Y-96475990D01*
X150566842Y-96587932D01*
X150853740Y-96645000D01*
X151146260Y-96645000D01*
X151433158Y-96587932D01*
X151703411Y-96475990D01*
X151946632Y-96313475D01*
X152153475Y-96106632D01*
X152315990Y-95863411D01*
X152427932Y-95593158D01*
X152485000Y-95306260D01*
X152485000Y-95013740D01*
X152427932Y-94726842D01*
X152315990Y-94456589D01*
X152153475Y-94213368D01*
X151946632Y-94006525D01*
X151772240Y-93890000D01*
X151946632Y-93773475D01*
X152153475Y-93566632D01*
X152315990Y-93323411D01*
X152427932Y-93053158D01*
X152485000Y-92766260D01*
X152485000Y-92473740D01*
X152427932Y-92186842D01*
X152315990Y-91916589D01*
X152153475Y-91673368D01*
X151946632Y-91466525D01*
X151772240Y-91350000D01*
X151946632Y-91233475D01*
X152153475Y-91026632D01*
X152315990Y-90783411D01*
X152427932Y-90513158D01*
X152485000Y-90226260D01*
X152485000Y-89933740D01*
X152427932Y-89646842D01*
X152315990Y-89376589D01*
X152153475Y-89133368D01*
X151946632Y-88926525D01*
X151772240Y-88810000D01*
X151946632Y-88693475D01*
X152153475Y-88486632D01*
X152315990Y-88243411D01*
X152427932Y-87973158D01*
X152485000Y-87686260D01*
X152485000Y-87393740D01*
X152427932Y-87106842D01*
X152315990Y-86836589D01*
X152153475Y-86593368D01*
X151946632Y-86386525D01*
X151772240Y-86270000D01*
X151946632Y-86153475D01*
X152153475Y-85946632D01*
X152315990Y-85703411D01*
X152427932Y-85433158D01*
X152485000Y-85146260D01*
X152485000Y-84853740D01*
X152427932Y-84566842D01*
X152315990Y-84296589D01*
X152153475Y-84053368D01*
X151946632Y-83846525D01*
X151772240Y-83730000D01*
X151946632Y-83613475D01*
X152153475Y-83406632D01*
X152315990Y-83163411D01*
X152427932Y-82893158D01*
X152485000Y-82606260D01*
X152485000Y-82313740D01*
X152427932Y-82026842D01*
X152315990Y-81756589D01*
X152153475Y-81513368D01*
X152021620Y-81381513D01*
X152094180Y-81359502D01*
X152204494Y-81300537D01*
X152301185Y-81221185D01*
X152380537Y-81124494D01*
X152439502Y-81014180D01*
X152475812Y-80894482D01*
X152488072Y-80770000D01*
X152488072Y-79070000D01*
X152475812Y-78945518D01*
X152439502Y-78825820D01*
X152380537Y-78715506D01*
X152301185Y-78618815D01*
X152204494Y-78539463D01*
X152094180Y-78480498D01*
X151974482Y-78444188D01*
X151850000Y-78431928D01*
X150150000Y-78431928D01*
X150025518Y-78444188D01*
X149905820Y-78480498D01*
X149795506Y-78539463D01*
X149698815Y-78618815D01*
X149619463Y-78715506D01*
X149560498Y-78825820D01*
X149524188Y-78945518D01*
X149511928Y-79070000D01*
X129660000Y-79070000D01*
X129660000Y-78160000D01*
X154340001Y-78160000D01*
X154340000Y-96840000D01*
M02*
