G04 #@! TF.GenerationSoftware,KiCad,Pcbnew,(5.1.6)-1*
G04 #@! TF.CreationDate,2021-04-19T16:32:52+02:00*
G04 #@! TF.ProjectId,LMP91000_Breakout_Board,4c4d5039-3130-4303-905f-427265616b6f,rev?*
G04 #@! TF.SameCoordinates,Original*
G04 #@! TF.FileFunction,Paste,Top*
G04 #@! TF.FilePolarity,Positive*
%FSLAX46Y46*%
G04 Gerber Fmt 4.6, Leading zero omitted, Abs format (unit mm)*
G04 Created by KiCad (PCBNEW (5.1.6)-1) date 2021-04-19 16:32:52*
%MOMM*%
%LPD*%
G01*
G04 APERTURE LIST*
%ADD10R,1.050000X1.050000*%
%ADD11R,0.600000X0.250000*%
G04 APERTURE END LIST*
D10*
X145300000Y-87650000D03*
X146600000Y-87650000D03*
X146600000Y-86350000D03*
X145300000Y-86350000D03*
D11*
X144050000Y-85500000D03*
X144050000Y-86000000D03*
X144050000Y-86500000D03*
X144050000Y-87000000D03*
X144050000Y-87500000D03*
X144050000Y-88000000D03*
X144050000Y-88500000D03*
X147850000Y-88500000D03*
X147850000Y-88000000D03*
X147850000Y-87500000D03*
X147850000Y-87000000D03*
X147850000Y-86500000D03*
X147850000Y-86000000D03*
X147850000Y-85500000D03*
G36*
G01*
X140262500Y-83850000D02*
X140737500Y-83850000D01*
G75*
G02*
X140975000Y-84087500I0J-237500D01*
G01*
X140975000Y-84662500D01*
G75*
G02*
X140737500Y-84900000I-237500J0D01*
G01*
X140262500Y-84900000D01*
G75*
G02*
X140025000Y-84662500I0J237500D01*
G01*
X140025000Y-84087500D01*
G75*
G02*
X140262500Y-83850000I237500J0D01*
G01*
G37*
G36*
G01*
X140262500Y-82100000D02*
X140737500Y-82100000D01*
G75*
G02*
X140975000Y-82337500I0J-237500D01*
G01*
X140975000Y-82912500D01*
G75*
G02*
X140737500Y-83150000I-237500J0D01*
G01*
X140262500Y-83150000D01*
G75*
G02*
X140025000Y-82912500I0J237500D01*
G01*
X140025000Y-82337500D01*
G75*
G02*
X140262500Y-82100000I237500J0D01*
G01*
G37*
G36*
G01*
X138262500Y-83850000D02*
X138737500Y-83850000D01*
G75*
G02*
X138975000Y-84087500I0J-237500D01*
G01*
X138975000Y-84662500D01*
G75*
G02*
X138737500Y-84900000I-237500J0D01*
G01*
X138262500Y-84900000D01*
G75*
G02*
X138025000Y-84662500I0J237500D01*
G01*
X138025000Y-84087500D01*
G75*
G02*
X138262500Y-83850000I237500J0D01*
G01*
G37*
G36*
G01*
X138262500Y-82100000D02*
X138737500Y-82100000D01*
G75*
G02*
X138975000Y-82337500I0J-237500D01*
G01*
X138975000Y-82912500D01*
G75*
G02*
X138737500Y-83150000I-237500J0D01*
G01*
X138262500Y-83150000D01*
G75*
G02*
X138025000Y-82912500I0J237500D01*
G01*
X138025000Y-82337500D01*
G75*
G02*
X138262500Y-82100000I237500J0D01*
G01*
G37*
G36*
G01*
X140262500Y-89475000D02*
X140737500Y-89475000D01*
G75*
G02*
X140975000Y-89712500I0J-237500D01*
G01*
X140975000Y-90287500D01*
G75*
G02*
X140737500Y-90525000I-237500J0D01*
G01*
X140262500Y-90525000D01*
G75*
G02*
X140025000Y-90287500I0J237500D01*
G01*
X140025000Y-89712500D01*
G75*
G02*
X140262500Y-89475000I237500J0D01*
G01*
G37*
G36*
G01*
X140262500Y-87725000D02*
X140737500Y-87725000D01*
G75*
G02*
X140975000Y-87962500I0J-237500D01*
G01*
X140975000Y-88537500D01*
G75*
G02*
X140737500Y-88775000I-237500J0D01*
G01*
X140262500Y-88775000D01*
G75*
G02*
X140025000Y-88537500I0J237500D01*
G01*
X140025000Y-87962500D01*
G75*
G02*
X140262500Y-87725000I237500J0D01*
G01*
G37*
G36*
G01*
X142262500Y-89475000D02*
X142737500Y-89475000D01*
G75*
G02*
X142975000Y-89712500I0J-237500D01*
G01*
X142975000Y-90287500D01*
G75*
G02*
X142737500Y-90525000I-237500J0D01*
G01*
X142262500Y-90525000D01*
G75*
G02*
X142025000Y-90287500I0J237500D01*
G01*
X142025000Y-89712500D01*
G75*
G02*
X142262500Y-89475000I237500J0D01*
G01*
G37*
G36*
G01*
X142262500Y-87725000D02*
X142737500Y-87725000D01*
G75*
G02*
X142975000Y-87962500I0J-237500D01*
G01*
X142975000Y-88537500D01*
G75*
G02*
X142737500Y-88775000I-237500J0D01*
G01*
X142262500Y-88775000D01*
G75*
G02*
X142025000Y-88537500I0J237500D01*
G01*
X142025000Y-87962500D01*
G75*
G02*
X142262500Y-87725000I237500J0D01*
G01*
G37*
M02*
