G04 #@! TF.GenerationSoftware,KiCad,Pcbnew,(5.1.6)-1*
G04 #@! TF.CreationDate,2021-04-19T16:32:52+02:00*
G04 #@! TF.ProjectId,LMP91000_Breakout_Board,4c4d5039-3130-4303-905f-427265616b6f,rev?*
G04 #@! TF.SameCoordinates,Original*
G04 #@! TF.FileFunction,Legend,Top*
G04 #@! TF.FilePolarity,Positive*
%FSLAX46Y46*%
G04 Gerber Fmt 4.6, Leading zero omitted, Abs format (unit mm)*
G04 Created by KiCad (PCBNEW (5.1.6)-1) date 2021-04-19 16:32:52*
%MOMM*%
%LPD*%
G01*
G04 APERTURE LIST*
%ADD10C,0.150000*%
%ADD11C,0.120000*%
G04 APERTURE END LIST*
D10*
X139985714Y-94686904D02*
X139604761Y-94686904D01*
X139604761Y-93886904D01*
X140252380Y-94686904D02*
X140252380Y-93886904D01*
X140519047Y-94458333D01*
X140785714Y-93886904D01*
X140785714Y-94686904D01*
X141166666Y-94686904D02*
X141166666Y-93886904D01*
X141471428Y-93886904D01*
X141547619Y-93925000D01*
X141585714Y-93963095D01*
X141623809Y-94039285D01*
X141623809Y-94153571D01*
X141585714Y-94229761D01*
X141547619Y-94267857D01*
X141471428Y-94305952D01*
X141166666Y-94305952D01*
X142004761Y-94686904D02*
X142157142Y-94686904D01*
X142233333Y-94648809D01*
X142271428Y-94610714D01*
X142347619Y-94496428D01*
X142385714Y-94344047D01*
X142385714Y-94039285D01*
X142347619Y-93963095D01*
X142309523Y-93925000D01*
X142233333Y-93886904D01*
X142080952Y-93886904D01*
X142004761Y-93925000D01*
X141966666Y-93963095D01*
X141928571Y-94039285D01*
X141928571Y-94229761D01*
X141966666Y-94305952D01*
X142004761Y-94344047D01*
X142080952Y-94382142D01*
X142233333Y-94382142D01*
X142309523Y-94344047D01*
X142347619Y-94305952D01*
X142385714Y-94229761D01*
X143147619Y-94686904D02*
X142690476Y-94686904D01*
X142919047Y-94686904D02*
X142919047Y-93886904D01*
X142842857Y-94001190D01*
X142766666Y-94077380D01*
X142690476Y-94115476D01*
X143642857Y-93886904D02*
X143719047Y-93886904D01*
X143795238Y-93925000D01*
X143833333Y-93963095D01*
X143871428Y-94039285D01*
X143909523Y-94191666D01*
X143909523Y-94382142D01*
X143871428Y-94534523D01*
X143833333Y-94610714D01*
X143795238Y-94648809D01*
X143719047Y-94686904D01*
X143642857Y-94686904D01*
X143566666Y-94648809D01*
X143528571Y-94610714D01*
X143490476Y-94534523D01*
X143452380Y-94382142D01*
X143452380Y-94191666D01*
X143490476Y-94039285D01*
X143528571Y-93963095D01*
X143566666Y-93925000D01*
X143642857Y-93886904D01*
X144404761Y-93886904D02*
X144480952Y-93886904D01*
X144557142Y-93925000D01*
X144595238Y-93963095D01*
X144633333Y-94039285D01*
X144671428Y-94191666D01*
X144671428Y-94382142D01*
X144633333Y-94534523D01*
X144595238Y-94610714D01*
X144557142Y-94648809D01*
X144480952Y-94686904D01*
X144404761Y-94686904D01*
X144328571Y-94648809D01*
X144290476Y-94610714D01*
X144252380Y-94534523D01*
X144214285Y-94382142D01*
X144214285Y-94191666D01*
X144252380Y-94039285D01*
X144290476Y-93963095D01*
X144328571Y-93925000D01*
X144404761Y-93886904D01*
X145166666Y-93886904D02*
X145242857Y-93886904D01*
X145319047Y-93925000D01*
X145357142Y-93963095D01*
X145395238Y-94039285D01*
X145433333Y-94191666D01*
X145433333Y-94382142D01*
X145395238Y-94534523D01*
X145357142Y-94610714D01*
X145319047Y-94648809D01*
X145242857Y-94686904D01*
X145166666Y-94686904D01*
X145090476Y-94648809D01*
X145052380Y-94610714D01*
X145014285Y-94534523D01*
X144976190Y-94382142D01*
X144976190Y-94191666D01*
X145014285Y-94039285D01*
X145052380Y-93963095D01*
X145090476Y-93925000D01*
X145166666Y-93886904D01*
X138290476Y-95617857D02*
X138404761Y-95655952D01*
X138442857Y-95694047D01*
X138480952Y-95770238D01*
X138480952Y-95884523D01*
X138442857Y-95960714D01*
X138404761Y-95998809D01*
X138328571Y-96036904D01*
X138023809Y-96036904D01*
X138023809Y-95236904D01*
X138290476Y-95236904D01*
X138366666Y-95275000D01*
X138404761Y-95313095D01*
X138442857Y-95389285D01*
X138442857Y-95465476D01*
X138404761Y-95541666D01*
X138366666Y-95579761D01*
X138290476Y-95617857D01*
X138023809Y-95617857D01*
X138823809Y-96036904D02*
X138823809Y-95503571D01*
X138823809Y-95655952D02*
X138861904Y-95579761D01*
X138900000Y-95541666D01*
X138976190Y-95503571D01*
X139052380Y-95503571D01*
X139623809Y-95998809D02*
X139547619Y-96036904D01*
X139395238Y-96036904D01*
X139319047Y-95998809D01*
X139280952Y-95922619D01*
X139280952Y-95617857D01*
X139319047Y-95541666D01*
X139395238Y-95503571D01*
X139547619Y-95503571D01*
X139623809Y-95541666D01*
X139661904Y-95617857D01*
X139661904Y-95694047D01*
X139280952Y-95770238D01*
X140347619Y-96036904D02*
X140347619Y-95617857D01*
X140309523Y-95541666D01*
X140233333Y-95503571D01*
X140080952Y-95503571D01*
X140004761Y-95541666D01*
X140347619Y-95998809D02*
X140271428Y-96036904D01*
X140080952Y-96036904D01*
X140004761Y-95998809D01*
X139966666Y-95922619D01*
X139966666Y-95846428D01*
X140004761Y-95770238D01*
X140080952Y-95732142D01*
X140271428Y-95732142D01*
X140347619Y-95694047D01*
X140728571Y-96036904D02*
X140728571Y-95236904D01*
X140804761Y-95732142D02*
X141033333Y-96036904D01*
X141033333Y-95503571D02*
X140728571Y-95808333D01*
X141490476Y-96036904D02*
X141414285Y-95998809D01*
X141376190Y-95960714D01*
X141338095Y-95884523D01*
X141338095Y-95655952D01*
X141376190Y-95579761D01*
X141414285Y-95541666D01*
X141490476Y-95503571D01*
X141604761Y-95503571D01*
X141680952Y-95541666D01*
X141719047Y-95579761D01*
X141757142Y-95655952D01*
X141757142Y-95884523D01*
X141719047Y-95960714D01*
X141680952Y-95998809D01*
X141604761Y-96036904D01*
X141490476Y-96036904D01*
X142442857Y-95503571D02*
X142442857Y-96036904D01*
X142100000Y-95503571D02*
X142100000Y-95922619D01*
X142138095Y-95998809D01*
X142214285Y-96036904D01*
X142328571Y-96036904D01*
X142404761Y-95998809D01*
X142442857Y-95960714D01*
X142709523Y-95503571D02*
X143014285Y-95503571D01*
X142823809Y-95236904D02*
X142823809Y-95922619D01*
X142861904Y-95998809D01*
X142938095Y-96036904D01*
X143014285Y-96036904D01*
X144157142Y-95617857D02*
X144271428Y-95655952D01*
X144309523Y-95694047D01*
X144347619Y-95770238D01*
X144347619Y-95884523D01*
X144309523Y-95960714D01*
X144271428Y-95998809D01*
X144195238Y-96036904D01*
X143890476Y-96036904D01*
X143890476Y-95236904D01*
X144157142Y-95236904D01*
X144233333Y-95275000D01*
X144271428Y-95313095D01*
X144309523Y-95389285D01*
X144309523Y-95465476D01*
X144271428Y-95541666D01*
X144233333Y-95579761D01*
X144157142Y-95617857D01*
X143890476Y-95617857D01*
X144804761Y-96036904D02*
X144728571Y-95998809D01*
X144690476Y-95960714D01*
X144652380Y-95884523D01*
X144652380Y-95655952D01*
X144690476Y-95579761D01*
X144728571Y-95541666D01*
X144804761Y-95503571D01*
X144919047Y-95503571D01*
X144995238Y-95541666D01*
X145033333Y-95579761D01*
X145071428Y-95655952D01*
X145071428Y-95884523D01*
X145033333Y-95960714D01*
X144995238Y-95998809D01*
X144919047Y-96036904D01*
X144804761Y-96036904D01*
X145757142Y-96036904D02*
X145757142Y-95617857D01*
X145719047Y-95541666D01*
X145642857Y-95503571D01*
X145490476Y-95503571D01*
X145414285Y-95541666D01*
X145757142Y-95998809D02*
X145680952Y-96036904D01*
X145490476Y-96036904D01*
X145414285Y-95998809D01*
X145376190Y-95922619D01*
X145376190Y-95846428D01*
X145414285Y-95770238D01*
X145490476Y-95732142D01*
X145680952Y-95732142D01*
X145757142Y-95694047D01*
X146138095Y-96036904D02*
X146138095Y-95503571D01*
X146138095Y-95655952D02*
X146176190Y-95579761D01*
X146214285Y-95541666D01*
X146290476Y-95503571D01*
X146366666Y-95503571D01*
X146976190Y-96036904D02*
X146976190Y-95236904D01*
X146976190Y-95998809D02*
X146900000Y-96036904D01*
X146747619Y-96036904D01*
X146671428Y-95998809D01*
X146633333Y-95960714D01*
X146595238Y-95884523D01*
X146595238Y-95655952D01*
X146633333Y-95579761D01*
X146671428Y-95541666D01*
X146747619Y-95503571D01*
X146900000Y-95503571D01*
X146976190Y-95541666D01*
X130900000Y-91890476D02*
X130938095Y-91814285D01*
X130938095Y-91700000D01*
X130900000Y-91585714D01*
X130823809Y-91509523D01*
X130747619Y-91471428D01*
X130595238Y-91433333D01*
X130480952Y-91433333D01*
X130328571Y-91471428D01*
X130252380Y-91509523D01*
X130176190Y-91585714D01*
X130138095Y-91700000D01*
X130138095Y-91776190D01*
X130176190Y-91890476D01*
X130214285Y-91928571D01*
X130480952Y-91928571D01*
X130480952Y-91776190D01*
X130138095Y-92271428D02*
X130938095Y-92271428D01*
X130138095Y-92728571D01*
X130938095Y-92728571D01*
X130138095Y-93109523D02*
X130938095Y-93109523D01*
X130938095Y-93300000D01*
X130900000Y-93414285D01*
X130823809Y-93490476D01*
X130747619Y-93528571D01*
X130595238Y-93566666D01*
X130480952Y-93566666D01*
X130328571Y-93528571D01*
X130252380Y-93490476D01*
X130176190Y-93414285D01*
X130138095Y-93300000D01*
X130138095Y-93109523D01*
X130938095Y-88933333D02*
X130138095Y-89200000D01*
X130938095Y-89466666D01*
X130138095Y-89733333D02*
X130938095Y-89733333D01*
X130938095Y-89923809D01*
X130900000Y-90038095D01*
X130823809Y-90114285D01*
X130747619Y-90152380D01*
X130595238Y-90190476D01*
X130480952Y-90190476D01*
X130328571Y-90152380D01*
X130252380Y-90114285D01*
X130176190Y-90038095D01*
X130138095Y-89923809D01*
X130138095Y-89733333D01*
X130138095Y-90533333D02*
X130938095Y-90533333D01*
X130938095Y-90723809D01*
X130900000Y-90838095D01*
X130823809Y-90914285D01*
X130747619Y-90952380D01*
X130595238Y-90990476D01*
X130480952Y-90990476D01*
X130328571Y-90952380D01*
X130252380Y-90914285D01*
X130176190Y-90838095D01*
X130138095Y-90723809D01*
X130138095Y-90533333D01*
X130176190Y-86528571D02*
X130138095Y-86642857D01*
X130138095Y-86833333D01*
X130176190Y-86909523D01*
X130214285Y-86947619D01*
X130290476Y-86985714D01*
X130366666Y-86985714D01*
X130442857Y-86947619D01*
X130480952Y-86909523D01*
X130519047Y-86833333D01*
X130557142Y-86680952D01*
X130595238Y-86604761D01*
X130633333Y-86566666D01*
X130709523Y-86528571D01*
X130785714Y-86528571D01*
X130861904Y-86566666D01*
X130900000Y-86604761D01*
X130938095Y-86680952D01*
X130938095Y-86871428D01*
X130900000Y-86985714D01*
X130138095Y-87328571D02*
X130938095Y-87328571D01*
X130938095Y-87519047D01*
X130900000Y-87633333D01*
X130823809Y-87709523D01*
X130747619Y-87747619D01*
X130595238Y-87785714D01*
X130480952Y-87785714D01*
X130328571Y-87747619D01*
X130252380Y-87709523D01*
X130176190Y-87633333D01*
X130138095Y-87519047D01*
X130138095Y-87328571D01*
X130366666Y-88090476D02*
X130366666Y-88471428D01*
X130138095Y-88014285D02*
X130938095Y-88280952D01*
X130138095Y-88547619D01*
X130176190Y-84047619D02*
X130138095Y-84161904D01*
X130138095Y-84352380D01*
X130176190Y-84428571D01*
X130214285Y-84466666D01*
X130290476Y-84504761D01*
X130366666Y-84504761D01*
X130442857Y-84466666D01*
X130480952Y-84428571D01*
X130519047Y-84352380D01*
X130557142Y-84200000D01*
X130595238Y-84123809D01*
X130633333Y-84085714D01*
X130709523Y-84047619D01*
X130785714Y-84047619D01*
X130861904Y-84085714D01*
X130900000Y-84123809D01*
X130938095Y-84200000D01*
X130938095Y-84390476D01*
X130900000Y-84504761D01*
X130214285Y-85304761D02*
X130176190Y-85266666D01*
X130138095Y-85152380D01*
X130138095Y-85076190D01*
X130176190Y-84961904D01*
X130252380Y-84885714D01*
X130328571Y-84847619D01*
X130480952Y-84809523D01*
X130595238Y-84809523D01*
X130747619Y-84847619D01*
X130823809Y-84885714D01*
X130900000Y-84961904D01*
X130938095Y-85076190D01*
X130938095Y-85152380D01*
X130900000Y-85266666D01*
X130861904Y-85304761D01*
X130138095Y-86028571D02*
X130138095Y-85647619D01*
X130938095Y-85647619D01*
X130138095Y-80552380D02*
X130938095Y-80552380D01*
X130366666Y-80819047D01*
X130938095Y-81085714D01*
X130138095Y-81085714D01*
X130557142Y-81466666D02*
X130557142Y-81733333D01*
X130138095Y-81847619D02*
X130138095Y-81466666D01*
X130938095Y-81466666D01*
X130938095Y-81847619D01*
X130138095Y-82190476D02*
X130938095Y-82190476D01*
X130138095Y-82647619D01*
X130938095Y-82647619D01*
X130557142Y-83295238D02*
X130519047Y-83409523D01*
X130480952Y-83447619D01*
X130404761Y-83485714D01*
X130290476Y-83485714D01*
X130214285Y-83447619D01*
X130176190Y-83409523D01*
X130138095Y-83333333D01*
X130138095Y-83028571D01*
X130938095Y-83028571D01*
X130938095Y-83295238D01*
X130900000Y-83371428D01*
X130861904Y-83409523D01*
X130785714Y-83447619D01*
X130709523Y-83447619D01*
X130633333Y-83409523D01*
X130595238Y-83371428D01*
X130557142Y-83295238D01*
X130557142Y-83028571D01*
X153061904Y-96409523D02*
X153861904Y-96142857D01*
X153061904Y-95876190D01*
X153061904Y-95457142D02*
X153061904Y-95304761D01*
X153100000Y-95228571D01*
X153176190Y-95152380D01*
X153328571Y-95114285D01*
X153595238Y-95114285D01*
X153747619Y-95152380D01*
X153823809Y-95228571D01*
X153861904Y-95304761D01*
X153861904Y-95457142D01*
X153823809Y-95533333D01*
X153747619Y-95609523D01*
X153595238Y-95647619D01*
X153328571Y-95647619D01*
X153176190Y-95609523D01*
X153100000Y-95533333D01*
X153061904Y-95457142D01*
X153061904Y-94771428D02*
X153709523Y-94771428D01*
X153785714Y-94733333D01*
X153823809Y-94695238D01*
X153861904Y-94619047D01*
X153861904Y-94466666D01*
X153823809Y-94390476D01*
X153785714Y-94352380D01*
X153709523Y-94314285D01*
X153061904Y-94314285D01*
X153061904Y-94047619D02*
X153061904Y-93590476D01*
X153861904Y-93819047D02*
X153061904Y-93819047D01*
X153785714Y-92633333D02*
X153823809Y-92671428D01*
X153861904Y-92785714D01*
X153861904Y-92861904D01*
X153823809Y-92976190D01*
X153747619Y-93052380D01*
X153671428Y-93090476D01*
X153519047Y-93128571D01*
X153404761Y-93128571D01*
X153252380Y-93090476D01*
X153176190Y-93052380D01*
X153100000Y-92976190D01*
X153061904Y-92861904D01*
X153061904Y-92785714D01*
X153100000Y-92671428D01*
X153138095Y-92633333D01*
X153138095Y-92328571D02*
X153100000Y-92290476D01*
X153061904Y-92214285D01*
X153061904Y-92023809D01*
X153100000Y-91947619D01*
X153138095Y-91909523D01*
X153214285Y-91871428D01*
X153290476Y-91871428D01*
X153404761Y-91909523D01*
X153861904Y-92366666D01*
X153861904Y-91871428D01*
X153785714Y-90133333D02*
X153823809Y-90171428D01*
X153861904Y-90285714D01*
X153861904Y-90361904D01*
X153823809Y-90476190D01*
X153747619Y-90552380D01*
X153671428Y-90590476D01*
X153519047Y-90628571D01*
X153404761Y-90628571D01*
X153252380Y-90590476D01*
X153176190Y-90552380D01*
X153100000Y-90476190D01*
X153061904Y-90361904D01*
X153061904Y-90285714D01*
X153100000Y-90171428D01*
X153138095Y-90133333D01*
X153861904Y-89371428D02*
X153861904Y-89828571D01*
X153861904Y-89600000D02*
X153061904Y-89600000D01*
X153176190Y-89676190D01*
X153252380Y-89752380D01*
X153290476Y-89828571D01*
X153061904Y-88871428D02*
X153861904Y-88604761D01*
X153061904Y-88338095D01*
X153861904Y-87614285D02*
X153480952Y-87880952D01*
X153861904Y-88071428D02*
X153061904Y-88071428D01*
X153061904Y-87766666D01*
X153100000Y-87690476D01*
X153138095Y-87652380D01*
X153214285Y-87614285D01*
X153328571Y-87614285D01*
X153404761Y-87652380D01*
X153442857Y-87690476D01*
X153480952Y-87766666D01*
X153480952Y-88071428D01*
X153442857Y-87271428D02*
X153442857Y-87004761D01*
X153861904Y-86890476D02*
X153861904Y-87271428D01*
X153061904Y-87271428D01*
X153061904Y-86890476D01*
X153442857Y-86280952D02*
X153442857Y-86547619D01*
X153861904Y-86547619D02*
X153061904Y-86547619D01*
X153061904Y-86166666D01*
X153061904Y-85704761D02*
X153861904Y-85514285D01*
X153290476Y-85361904D01*
X153861904Y-85209523D01*
X153061904Y-85019047D01*
X153442857Y-84714285D02*
X153442857Y-84447619D01*
X153861904Y-84333333D02*
X153861904Y-84714285D01*
X153061904Y-84714285D01*
X153061904Y-84333333D01*
X153861904Y-82614285D02*
X153480952Y-82880952D01*
X153861904Y-83071428D02*
X153061904Y-83071428D01*
X153061904Y-82766666D01*
X153100000Y-82690476D01*
X153138095Y-82652380D01*
X153214285Y-82614285D01*
X153328571Y-82614285D01*
X153404761Y-82652380D01*
X153442857Y-82690476D01*
X153480952Y-82766666D01*
X153480952Y-83071428D01*
X153442857Y-82271428D02*
X153442857Y-82004761D01*
X153861904Y-81890476D02*
X153861904Y-82271428D01*
X153061904Y-82271428D01*
X153061904Y-81890476D01*
X153785714Y-80114285D02*
X153823809Y-80152380D01*
X153861904Y-80266666D01*
X153861904Y-80342857D01*
X153823809Y-80457142D01*
X153747619Y-80533333D01*
X153671428Y-80571428D01*
X153519047Y-80609523D01*
X153404761Y-80609523D01*
X153252380Y-80571428D01*
X153176190Y-80533333D01*
X153100000Y-80457142D01*
X153061904Y-80342857D01*
X153061904Y-80266666D01*
X153100000Y-80152380D01*
X153138095Y-80114285D01*
X153442857Y-79771428D02*
X153442857Y-79504761D01*
X153861904Y-79390476D02*
X153861904Y-79771428D01*
X153061904Y-79771428D01*
X153061904Y-79390476D01*
D11*
X143825000Y-89125000D02*
X143825000Y-88750000D01*
X148075000Y-89125000D02*
X143850000Y-89125000D01*
X148075000Y-88750000D02*
X148075000Y-89125000D01*
X143825000Y-84875000D02*
X143825000Y-85125000D01*
X143525000Y-85125000D02*
X143825000Y-85125000D01*
X148075000Y-84875000D02*
X148075000Y-85175000D01*
X148075000Y-84875000D02*
X143825000Y-84875000D01*
X141010000Y-83328733D02*
X141010000Y-83671267D01*
X139990000Y-83328733D02*
X139990000Y-83671267D01*
X139010000Y-83328733D02*
X139010000Y-83671267D01*
X137990000Y-83328733D02*
X137990000Y-83671267D01*
X131670000Y-93490000D02*
X134330000Y-93490000D01*
X131670000Y-83270000D02*
X131670000Y-93490000D01*
X134330000Y-83270000D02*
X134330000Y-93490000D01*
X131670000Y-83270000D02*
X134330000Y-83270000D01*
X131670000Y-82000000D02*
X131670000Y-80670000D01*
X131670000Y-80670000D02*
X133000000Y-80670000D01*
X149670000Y-96490000D02*
X152330000Y-96490000D01*
X149670000Y-81190000D02*
X149670000Y-96490000D01*
X152330000Y-81190000D02*
X152330000Y-96490000D01*
X149670000Y-81190000D02*
X152330000Y-81190000D01*
X149670000Y-79920000D02*
X149670000Y-78590000D01*
X149670000Y-78590000D02*
X151000000Y-78590000D01*
X141010000Y-88953733D02*
X141010000Y-89296267D01*
X139990000Y-88953733D02*
X139990000Y-89296267D01*
X143010000Y-88953733D02*
X143010000Y-89296267D01*
X141990000Y-88953733D02*
X141990000Y-89296267D01*
D10*
X143463077Y-84208628D02*
X143082124Y-84208628D01*
X143082124Y-83408628D01*
X143729743Y-84208628D02*
X143729743Y-83408628D01*
X143996410Y-83980057D01*
X144263077Y-83408628D01*
X144263077Y-84208628D01*
X144644029Y-84208628D02*
X144644029Y-83408628D01*
X144948791Y-83408628D01*
X145024982Y-83446724D01*
X145063077Y-83484819D01*
X145101172Y-83561009D01*
X145101172Y-83675295D01*
X145063077Y-83751485D01*
X145024982Y-83789581D01*
X144948791Y-83827676D01*
X144644029Y-83827676D01*
X145482124Y-84208628D02*
X145634505Y-84208628D01*
X145710696Y-84170533D01*
X145748791Y-84132438D01*
X145824982Y-84018152D01*
X145863077Y-83865771D01*
X145863077Y-83561009D01*
X145824982Y-83484819D01*
X145786886Y-83446724D01*
X145710696Y-83408628D01*
X145558315Y-83408628D01*
X145482124Y-83446724D01*
X145444029Y-83484819D01*
X145405934Y-83561009D01*
X145405934Y-83751485D01*
X145444029Y-83827676D01*
X145482124Y-83865771D01*
X145558315Y-83903866D01*
X145710696Y-83903866D01*
X145786886Y-83865771D01*
X145824982Y-83827676D01*
X145863077Y-83751485D01*
X146624982Y-84208628D02*
X146167839Y-84208628D01*
X146396410Y-84208628D02*
X146396410Y-83408628D01*
X146320220Y-83522914D01*
X146244029Y-83599104D01*
X146167839Y-83637200D01*
X147120220Y-83408628D02*
X147196410Y-83408628D01*
X147272601Y-83446724D01*
X147310696Y-83484819D01*
X147348791Y-83561009D01*
X147386886Y-83713390D01*
X147386886Y-83903866D01*
X147348791Y-84056247D01*
X147310696Y-84132438D01*
X147272601Y-84170533D01*
X147196410Y-84208628D01*
X147120220Y-84208628D01*
X147044029Y-84170533D01*
X147005934Y-84132438D01*
X146967839Y-84056247D01*
X146929743Y-83903866D01*
X146929743Y-83713390D01*
X146967839Y-83561009D01*
X147005934Y-83484819D01*
X147044029Y-83446724D01*
X147120220Y-83408628D01*
X147882124Y-83408628D02*
X147958315Y-83408628D01*
X148034505Y-83446724D01*
X148072601Y-83484819D01*
X148110696Y-83561009D01*
X148148791Y-83713390D01*
X148148791Y-83903866D01*
X148110696Y-84056247D01*
X148072601Y-84132438D01*
X148034505Y-84170533D01*
X147958315Y-84208628D01*
X147882124Y-84208628D01*
X147805934Y-84170533D01*
X147767839Y-84132438D01*
X147729743Y-84056247D01*
X147691648Y-83903866D01*
X147691648Y-83713390D01*
X147729743Y-83561009D01*
X147767839Y-83484819D01*
X147805934Y-83446724D01*
X147882124Y-83408628D01*
X148644029Y-83408628D02*
X148720220Y-83408628D01*
X148796410Y-83446724D01*
X148834505Y-83484819D01*
X148872601Y-83561009D01*
X148910696Y-83713390D01*
X148910696Y-83903866D01*
X148872601Y-84056247D01*
X148834505Y-84132438D01*
X148796410Y-84170533D01*
X148720220Y-84208628D01*
X148644029Y-84208628D01*
X148567839Y-84170533D01*
X148529743Y-84132438D01*
X148491648Y-84056247D01*
X148453553Y-83903866D01*
X148453553Y-83713390D01*
X148491648Y-83561009D01*
X148529743Y-83484819D01*
X148567839Y-83446724D01*
X148644029Y-83408628D01*
X142291904Y-83633333D02*
X141910952Y-83900000D01*
X142291904Y-84090476D02*
X141491904Y-84090476D01*
X141491904Y-83785714D01*
X141530000Y-83709523D01*
X141568095Y-83671428D01*
X141644285Y-83633333D01*
X141758571Y-83633333D01*
X141834761Y-83671428D01*
X141872857Y-83709523D01*
X141910952Y-83785714D01*
X141910952Y-84090476D01*
X141568095Y-83328571D02*
X141530000Y-83290476D01*
X141491904Y-83214285D01*
X141491904Y-83023809D01*
X141530000Y-82947619D01*
X141568095Y-82909523D01*
X141644285Y-82871428D01*
X141720476Y-82871428D01*
X141834761Y-82909523D01*
X142291904Y-83366666D01*
X142291904Y-82871428D01*
X137361904Y-83633333D02*
X136980952Y-83900000D01*
X137361904Y-84090476D02*
X136561904Y-84090476D01*
X136561904Y-83785714D01*
X136600000Y-83709523D01*
X136638095Y-83671428D01*
X136714285Y-83633333D01*
X136828571Y-83633333D01*
X136904761Y-83671428D01*
X136942857Y-83709523D01*
X136980952Y-83785714D01*
X136980952Y-84090476D01*
X137361904Y-82871428D02*
X137361904Y-83328571D01*
X137361904Y-83100000D02*
X136561904Y-83100000D01*
X136676190Y-83176190D01*
X136752380Y-83252380D01*
X136790476Y-83328571D01*
X139285714Y-89258333D02*
X139323809Y-89296428D01*
X139361904Y-89410714D01*
X139361904Y-89486904D01*
X139323809Y-89601190D01*
X139247619Y-89677380D01*
X139171428Y-89715476D01*
X139019047Y-89753571D01*
X138904761Y-89753571D01*
X138752380Y-89715476D01*
X138676190Y-89677380D01*
X138600000Y-89601190D01*
X138561904Y-89486904D01*
X138561904Y-89410714D01*
X138600000Y-89296428D01*
X138638095Y-89258333D01*
X138638095Y-88953571D02*
X138600000Y-88915476D01*
X138561904Y-88839285D01*
X138561904Y-88648809D01*
X138600000Y-88572619D01*
X138638095Y-88534523D01*
X138714285Y-88496428D01*
X138790476Y-88496428D01*
X138904761Y-88534523D01*
X139361904Y-88991666D01*
X139361904Y-88496428D01*
X144215714Y-90133333D02*
X144253809Y-90171428D01*
X144291904Y-90285714D01*
X144291904Y-90361904D01*
X144253809Y-90476190D01*
X144177619Y-90552380D01*
X144101428Y-90590476D01*
X143949047Y-90628571D01*
X143834761Y-90628571D01*
X143682380Y-90590476D01*
X143606190Y-90552380D01*
X143530000Y-90476190D01*
X143491904Y-90361904D01*
X143491904Y-90285714D01*
X143530000Y-90171428D01*
X143568095Y-90133333D01*
X144291904Y-89371428D02*
X144291904Y-89828571D01*
X144291904Y-89600000D02*
X143491904Y-89600000D01*
X143606190Y-89676190D01*
X143682380Y-89752380D01*
X143720476Y-89828571D01*
M02*
