G04 #@! TF.GenerationSoftware,KiCad,Pcbnew,(5.1.6)-1*
G04 #@! TF.CreationDate,2021-04-19T16:32:52+02:00*
G04 #@! TF.ProjectId,LMP91000_Breakout_Board,4c4d5039-3130-4303-905f-427265616b6f,rev?*
G04 #@! TF.SameCoordinates,Original*
G04 #@! TF.FileFunction,Copper,L1,Top*
G04 #@! TF.FilePolarity,Positive*
%FSLAX46Y46*%
G04 Gerber Fmt 4.6, Leading zero omitted, Abs format (unit mm)*
G04 Created by KiCad (PCBNEW (5.1.6)-1) date 2021-04-19 16:32:52*
%MOMM*%
%LPD*%
G01*
G04 APERTURE LIST*
G04 #@! TA.AperFunction,SMDPad,CuDef*
%ADD10R,2.600000X2.600000*%
G04 #@! TD*
G04 #@! TA.AperFunction,SMDPad,CuDef*
%ADD11R,0.600000X0.250000*%
G04 #@! TD*
G04 #@! TA.AperFunction,ComponentPad*
%ADD12O,1.700000X1.700000*%
G04 #@! TD*
G04 #@! TA.AperFunction,ComponentPad*
%ADD13R,1.700000X1.700000*%
G04 #@! TD*
G04 #@! TA.AperFunction,ViaPad*
%ADD14C,0.800000*%
G04 #@! TD*
G04 #@! TA.AperFunction,Conductor*
%ADD15C,0.250000*%
G04 #@! TD*
G04 #@! TA.AperFunction,Conductor*
%ADD16C,0.500000*%
G04 #@! TD*
G04 #@! TA.AperFunction,Conductor*
%ADD17C,0.400000*%
G04 #@! TD*
G04 #@! TA.AperFunction,Conductor*
%ADD18C,0.254000*%
G04 #@! TD*
G04 APERTURE END LIST*
D10*
X145975000Y-87000000D03*
D11*
X144050000Y-85500000D03*
X144050000Y-86000000D03*
X144050000Y-86500000D03*
X144050000Y-87000000D03*
X144050000Y-87500000D03*
X144050000Y-88000000D03*
X144050000Y-88500000D03*
X147850000Y-88500000D03*
X147850000Y-88000000D03*
X147850000Y-87500000D03*
X147850000Y-87000000D03*
X147850000Y-86500000D03*
X147850000Y-86000000D03*
X147850000Y-85500000D03*
G04 #@! TA.AperFunction,SMDPad,CuDef*
G36*
G01*
X140262500Y-83850000D02*
X140737500Y-83850000D01*
G75*
G02*
X140975000Y-84087500I0J-237500D01*
G01*
X140975000Y-84662500D01*
G75*
G02*
X140737500Y-84900000I-237500J0D01*
G01*
X140262500Y-84900000D01*
G75*
G02*
X140025000Y-84662500I0J237500D01*
G01*
X140025000Y-84087500D01*
G75*
G02*
X140262500Y-83850000I237500J0D01*
G01*
G37*
G04 #@! TD.AperFunction*
G04 #@! TA.AperFunction,SMDPad,CuDef*
G36*
G01*
X140262500Y-82100000D02*
X140737500Y-82100000D01*
G75*
G02*
X140975000Y-82337500I0J-237500D01*
G01*
X140975000Y-82912500D01*
G75*
G02*
X140737500Y-83150000I-237500J0D01*
G01*
X140262500Y-83150000D01*
G75*
G02*
X140025000Y-82912500I0J237500D01*
G01*
X140025000Y-82337500D01*
G75*
G02*
X140262500Y-82100000I237500J0D01*
G01*
G37*
G04 #@! TD.AperFunction*
G04 #@! TA.AperFunction,SMDPad,CuDef*
G36*
G01*
X138262500Y-83850000D02*
X138737500Y-83850000D01*
G75*
G02*
X138975000Y-84087500I0J-237500D01*
G01*
X138975000Y-84662500D01*
G75*
G02*
X138737500Y-84900000I-237500J0D01*
G01*
X138262500Y-84900000D01*
G75*
G02*
X138025000Y-84662500I0J237500D01*
G01*
X138025000Y-84087500D01*
G75*
G02*
X138262500Y-83850000I237500J0D01*
G01*
G37*
G04 #@! TD.AperFunction*
G04 #@! TA.AperFunction,SMDPad,CuDef*
G36*
G01*
X138262500Y-82100000D02*
X138737500Y-82100000D01*
G75*
G02*
X138975000Y-82337500I0J-237500D01*
G01*
X138975000Y-82912500D01*
G75*
G02*
X138737500Y-83150000I-237500J0D01*
G01*
X138262500Y-83150000D01*
G75*
G02*
X138025000Y-82912500I0J237500D01*
G01*
X138025000Y-82337500D01*
G75*
G02*
X138262500Y-82100000I237500J0D01*
G01*
G37*
G04 #@! TD.AperFunction*
D12*
X133000000Y-92160000D03*
X133000000Y-89620000D03*
X133000000Y-87080000D03*
X133000000Y-84540000D03*
D13*
X133000000Y-82000000D03*
D12*
X151000000Y-95160000D03*
X151000000Y-92620000D03*
X151000000Y-90080000D03*
X151000000Y-87540000D03*
X151000000Y-85000000D03*
X151000000Y-82460000D03*
D13*
X151000000Y-79920000D03*
G04 #@! TA.AperFunction,SMDPad,CuDef*
G36*
G01*
X140262500Y-89475000D02*
X140737500Y-89475000D01*
G75*
G02*
X140975000Y-89712500I0J-237500D01*
G01*
X140975000Y-90287500D01*
G75*
G02*
X140737500Y-90525000I-237500J0D01*
G01*
X140262500Y-90525000D01*
G75*
G02*
X140025000Y-90287500I0J237500D01*
G01*
X140025000Y-89712500D01*
G75*
G02*
X140262500Y-89475000I237500J0D01*
G01*
G37*
G04 #@! TD.AperFunction*
G04 #@! TA.AperFunction,SMDPad,CuDef*
G36*
G01*
X140262500Y-87725000D02*
X140737500Y-87725000D01*
G75*
G02*
X140975000Y-87962500I0J-237500D01*
G01*
X140975000Y-88537500D01*
G75*
G02*
X140737500Y-88775000I-237500J0D01*
G01*
X140262500Y-88775000D01*
G75*
G02*
X140025000Y-88537500I0J237500D01*
G01*
X140025000Y-87962500D01*
G75*
G02*
X140262500Y-87725000I237500J0D01*
G01*
G37*
G04 #@! TD.AperFunction*
G04 #@! TA.AperFunction,SMDPad,CuDef*
G36*
G01*
X142262500Y-89475000D02*
X142737500Y-89475000D01*
G75*
G02*
X142975000Y-89712500I0J-237500D01*
G01*
X142975000Y-90287500D01*
G75*
G02*
X142737500Y-90525000I-237500J0D01*
G01*
X142262500Y-90525000D01*
G75*
G02*
X142025000Y-90287500I0J237500D01*
G01*
X142025000Y-89712500D01*
G75*
G02*
X142262500Y-89475000I237500J0D01*
G01*
G37*
G04 #@! TD.AperFunction*
G04 #@! TA.AperFunction,SMDPad,CuDef*
G36*
G01*
X142262500Y-87725000D02*
X142737500Y-87725000D01*
G75*
G02*
X142975000Y-87962500I0J-237500D01*
G01*
X142975000Y-88537500D01*
G75*
G02*
X142737500Y-88775000I-237500J0D01*
G01*
X142262500Y-88775000D01*
G75*
G02*
X142025000Y-88537500I0J237500D01*
G01*
X142025000Y-87962500D01*
G75*
G02*
X142262500Y-87725000I237500J0D01*
G01*
G37*
G04 #@! TD.AperFunction*
D14*
X142500000Y-91500000D03*
X140500000Y-91500000D03*
X144000000Y-90000000D03*
X139000000Y-91000000D03*
X146000000Y-84000000D03*
X145000000Y-84000000D03*
X144000000Y-84000000D03*
X136500000Y-88500000D03*
X138500000Y-87000000D03*
X142000000Y-82500000D03*
X140500000Y-81000000D03*
X135500000Y-81000000D03*
X137000000Y-81500000D03*
D15*
X144050000Y-89950000D02*
X144000000Y-90000000D01*
X144050000Y-88500000D02*
X144050000Y-89950000D01*
X144050000Y-84050000D02*
X144000000Y-84000000D01*
X144050000Y-85500000D02*
X144050000Y-84050000D01*
X142750000Y-88000000D02*
X142500000Y-88250000D01*
X144050000Y-88000000D02*
X142750000Y-88000000D01*
D16*
X142500000Y-88250000D02*
X140500000Y-88250000D01*
X139130000Y-89620000D02*
X140500000Y-88250000D01*
X133000000Y-89620000D02*
X139130000Y-89620000D01*
D15*
X140500000Y-82625000D02*
X138500000Y-82625000D01*
D17*
X137375000Y-81500000D02*
X138500000Y-82625000D01*
X137000000Y-81500000D02*
X137375000Y-81500000D01*
D15*
X147850000Y-92010000D02*
X147850000Y-88500000D01*
X151000000Y-95160000D02*
X147850000Y-92010000D01*
X148400000Y-88000000D02*
X149500000Y-89100000D01*
X147850000Y-88000000D02*
X148400000Y-88000000D01*
X149500000Y-91120000D02*
X151000000Y-92620000D01*
X149500000Y-89100000D02*
X149500000Y-91120000D01*
X151000000Y-89963590D02*
X151000000Y-90080000D01*
X148536410Y-87500000D02*
X151000000Y-89963590D01*
X147850000Y-87500000D02*
X148536410Y-87500000D01*
X150460000Y-87000000D02*
X151000000Y-87540000D01*
X147850000Y-87000000D02*
X150460000Y-87000000D01*
X149500000Y-86500000D02*
X151000000Y-85000000D01*
X147850000Y-86500000D02*
X149500000Y-86500000D01*
X148360002Y-86000000D02*
X149500000Y-84860002D01*
X147850000Y-86000000D02*
X148360002Y-86000000D01*
X149500000Y-83960000D02*
X151000000Y-82460000D01*
X149500000Y-84860002D02*
X149500000Y-83960000D01*
X147850000Y-83070000D02*
X151000000Y-79920000D01*
X147850000Y-85500000D02*
X147850000Y-83070000D01*
X141125000Y-87000000D02*
X138500000Y-84375000D01*
X144050000Y-87000000D02*
X141125000Y-87000000D01*
X135705000Y-84375000D02*
X133000000Y-87080000D01*
X138500000Y-84375000D02*
X135705000Y-84375000D01*
X142625000Y-86500000D02*
X140500000Y-84375000D01*
X144050000Y-86500000D02*
X142625000Y-86500000D01*
X134015010Y-83524990D02*
X133000000Y-84540000D01*
X139649990Y-83524990D02*
X134015010Y-83524990D01*
X140500000Y-84375000D02*
X139649990Y-83524990D01*
X143500000Y-86000000D02*
X143000000Y-85500000D01*
X144050000Y-86000000D02*
X143500000Y-86000000D01*
X143000000Y-85500000D02*
X143000000Y-81500000D01*
X143000000Y-81500000D02*
X141500000Y-80000000D01*
X135000000Y-80000000D02*
X133000000Y-82000000D01*
X141500000Y-80000000D02*
X135000000Y-80000000D01*
D18*
G36*
X154340000Y-96840000D02*
G01*
X129660000Y-96840000D01*
X129660000Y-92516890D01*
X131558524Y-92516890D01*
X131603175Y-92664099D01*
X131728359Y-92926920D01*
X131902412Y-93160269D01*
X132118645Y-93355178D01*
X132368748Y-93504157D01*
X132643109Y-93601481D01*
X132873000Y-93480814D01*
X132873000Y-92287000D01*
X133127000Y-92287000D01*
X133127000Y-93480814D01*
X133356891Y-93601481D01*
X133631252Y-93504157D01*
X133881355Y-93355178D01*
X134097588Y-93160269D01*
X134271641Y-92926920D01*
X134396825Y-92664099D01*
X134441476Y-92516890D01*
X134320155Y-92287000D01*
X133127000Y-92287000D01*
X132873000Y-92287000D01*
X131679845Y-92287000D01*
X131558524Y-92516890D01*
X129660000Y-92516890D01*
X129660000Y-81150000D01*
X131511928Y-81150000D01*
X131511928Y-82850000D01*
X131524188Y-82974482D01*
X131560498Y-83094180D01*
X131619463Y-83204494D01*
X131698815Y-83301185D01*
X131795506Y-83380537D01*
X131905820Y-83439502D01*
X131978380Y-83461513D01*
X131846525Y-83593368D01*
X131684010Y-83836589D01*
X131572068Y-84106842D01*
X131515000Y-84393740D01*
X131515000Y-84686260D01*
X131572068Y-84973158D01*
X131684010Y-85243411D01*
X131846525Y-85486632D01*
X132053368Y-85693475D01*
X132227760Y-85810000D01*
X132053368Y-85926525D01*
X131846525Y-86133368D01*
X131684010Y-86376589D01*
X131572068Y-86646842D01*
X131515000Y-86933740D01*
X131515000Y-87226260D01*
X131572068Y-87513158D01*
X131684010Y-87783411D01*
X131846525Y-88026632D01*
X132053368Y-88233475D01*
X132227760Y-88350000D01*
X132053368Y-88466525D01*
X131846525Y-88673368D01*
X131684010Y-88916589D01*
X131572068Y-89186842D01*
X131515000Y-89473740D01*
X131515000Y-89766260D01*
X131572068Y-90053158D01*
X131684010Y-90323411D01*
X131846525Y-90566632D01*
X132053368Y-90773475D01*
X132235534Y-90895195D01*
X132118645Y-90964822D01*
X131902412Y-91159731D01*
X131728359Y-91393080D01*
X131603175Y-91655901D01*
X131558524Y-91803110D01*
X131679845Y-92033000D01*
X132873000Y-92033000D01*
X132873000Y-92013000D01*
X133127000Y-92013000D01*
X133127000Y-92033000D01*
X134320155Y-92033000D01*
X134441476Y-91803110D01*
X134396825Y-91655901D01*
X134271641Y-91393080D01*
X134097588Y-91159731D01*
X133881355Y-90964822D01*
X133764466Y-90895195D01*
X133946632Y-90773475D01*
X134153475Y-90566632D01*
X134194656Y-90505000D01*
X139086531Y-90505000D01*
X139130000Y-90509281D01*
X139173469Y-90505000D01*
X139173477Y-90505000D01*
X139303490Y-90492195D01*
X139387677Y-90466657D01*
X139386928Y-90525000D01*
X139399188Y-90649482D01*
X139435498Y-90769180D01*
X139494463Y-90879494D01*
X139573815Y-90976185D01*
X139670506Y-91055537D01*
X139780820Y-91114502D01*
X139900518Y-91150812D01*
X140025000Y-91163072D01*
X140214250Y-91160000D01*
X140373000Y-91001250D01*
X140373000Y-90127000D01*
X140627000Y-90127000D01*
X140627000Y-91001250D01*
X140785750Y-91160000D01*
X140975000Y-91163072D01*
X141099482Y-91150812D01*
X141219180Y-91114502D01*
X141329494Y-91055537D01*
X141426185Y-90976185D01*
X141500000Y-90886241D01*
X141573815Y-90976185D01*
X141670506Y-91055537D01*
X141780820Y-91114502D01*
X141900518Y-91150812D01*
X142025000Y-91163072D01*
X142214250Y-91160000D01*
X142373000Y-91001250D01*
X142373000Y-90127000D01*
X142627000Y-90127000D01*
X142627000Y-91001250D01*
X142785750Y-91160000D01*
X142975000Y-91163072D01*
X143099482Y-91150812D01*
X143219180Y-91114502D01*
X143329494Y-91055537D01*
X143426185Y-90976185D01*
X143505537Y-90879494D01*
X143564502Y-90769180D01*
X143600812Y-90649482D01*
X143613072Y-90525000D01*
X143610000Y-90285750D01*
X143451250Y-90127000D01*
X142627000Y-90127000D01*
X142373000Y-90127000D01*
X141548750Y-90127000D01*
X141500000Y-90175750D01*
X141451250Y-90127000D01*
X140627000Y-90127000D01*
X140373000Y-90127000D01*
X140353000Y-90127000D01*
X140353000Y-89873000D01*
X140373000Y-89873000D01*
X140373000Y-89853000D01*
X140627000Y-89853000D01*
X140627000Y-89873000D01*
X141451250Y-89873000D01*
X141500000Y-89824250D01*
X141548750Y-89873000D01*
X142373000Y-89873000D01*
X142373000Y-89853000D01*
X142627000Y-89853000D01*
X142627000Y-89873000D01*
X143451250Y-89873000D01*
X143610000Y-89714250D01*
X143613072Y-89475000D01*
X143600812Y-89350518D01*
X143565085Y-89232743D01*
X143642661Y-89253979D01*
X143764250Y-89260000D01*
X143923000Y-89101250D01*
X143923000Y-88763072D01*
X144177000Y-88763072D01*
X144177000Y-89101250D01*
X144335750Y-89260000D01*
X144457339Y-89253979D01*
X144577985Y-89220952D01*
X144689868Y-89165023D01*
X144788691Y-89088342D01*
X144870656Y-88993855D01*
X144902855Y-88937382D01*
X145689250Y-88935000D01*
X145848000Y-88776250D01*
X145848000Y-87127000D01*
X145828000Y-87127000D01*
X145828000Y-86873000D01*
X145848000Y-86873000D01*
X145848000Y-85223750D01*
X146102000Y-85223750D01*
X146102000Y-86873000D01*
X146122000Y-86873000D01*
X146122000Y-87127000D01*
X146102000Y-87127000D01*
X146102000Y-88776250D01*
X146260750Y-88935000D01*
X146996872Y-88937230D01*
X147019463Y-88979494D01*
X147090001Y-89065445D01*
X147090000Y-91972677D01*
X147086324Y-92010000D01*
X147090000Y-92047322D01*
X147090000Y-92047332D01*
X147100997Y-92158985D01*
X147139829Y-92287000D01*
X147144454Y-92302246D01*
X147215026Y-92434276D01*
X147245176Y-92471013D01*
X147309999Y-92550001D01*
X147339003Y-92573804D01*
X149558790Y-94793592D01*
X149515000Y-95013740D01*
X149515000Y-95306260D01*
X149572068Y-95593158D01*
X149684010Y-95863411D01*
X149846525Y-96106632D01*
X150053368Y-96313475D01*
X150296589Y-96475990D01*
X150566842Y-96587932D01*
X150853740Y-96645000D01*
X151146260Y-96645000D01*
X151433158Y-96587932D01*
X151703411Y-96475990D01*
X151946632Y-96313475D01*
X152153475Y-96106632D01*
X152315990Y-95863411D01*
X152427932Y-95593158D01*
X152485000Y-95306260D01*
X152485000Y-95013740D01*
X152427932Y-94726842D01*
X152315990Y-94456589D01*
X152153475Y-94213368D01*
X151946632Y-94006525D01*
X151772240Y-93890000D01*
X151946632Y-93773475D01*
X152153475Y-93566632D01*
X152315990Y-93323411D01*
X152427932Y-93053158D01*
X152485000Y-92766260D01*
X152485000Y-92473740D01*
X152427932Y-92186842D01*
X152315990Y-91916589D01*
X152153475Y-91673368D01*
X151946632Y-91466525D01*
X151772240Y-91350000D01*
X151946632Y-91233475D01*
X152153475Y-91026632D01*
X152315990Y-90783411D01*
X152427932Y-90513158D01*
X152485000Y-90226260D01*
X152485000Y-89933740D01*
X152427932Y-89646842D01*
X152315990Y-89376589D01*
X152153475Y-89133368D01*
X151946632Y-88926525D01*
X151772240Y-88810000D01*
X151946632Y-88693475D01*
X152153475Y-88486632D01*
X152315990Y-88243411D01*
X152427932Y-87973158D01*
X152485000Y-87686260D01*
X152485000Y-87393740D01*
X152427932Y-87106842D01*
X152315990Y-86836589D01*
X152153475Y-86593368D01*
X151946632Y-86386525D01*
X151772240Y-86270000D01*
X151946632Y-86153475D01*
X152153475Y-85946632D01*
X152315990Y-85703411D01*
X152427932Y-85433158D01*
X152485000Y-85146260D01*
X152485000Y-84853740D01*
X152427932Y-84566842D01*
X152315990Y-84296589D01*
X152153475Y-84053368D01*
X151946632Y-83846525D01*
X151772240Y-83730000D01*
X151946632Y-83613475D01*
X152153475Y-83406632D01*
X152315990Y-83163411D01*
X152427932Y-82893158D01*
X152485000Y-82606260D01*
X152485000Y-82313740D01*
X152427932Y-82026842D01*
X152315990Y-81756589D01*
X152153475Y-81513368D01*
X152021620Y-81381513D01*
X152094180Y-81359502D01*
X152204494Y-81300537D01*
X152301185Y-81221185D01*
X152380537Y-81124494D01*
X152439502Y-81014180D01*
X152475812Y-80894482D01*
X152488072Y-80770000D01*
X152488072Y-79070000D01*
X152475812Y-78945518D01*
X152439502Y-78825820D01*
X152380537Y-78715506D01*
X152301185Y-78618815D01*
X152204494Y-78539463D01*
X152094180Y-78480498D01*
X151974482Y-78444188D01*
X151850000Y-78431928D01*
X150150000Y-78431928D01*
X150025518Y-78444188D01*
X149905820Y-78480498D01*
X149795506Y-78539463D01*
X149698815Y-78618815D01*
X149619463Y-78715506D01*
X149560498Y-78825820D01*
X149524188Y-78945518D01*
X149511928Y-79070000D01*
X149511928Y-80333270D01*
X147338998Y-82506201D01*
X147310000Y-82529999D01*
X147286202Y-82558997D01*
X147286201Y-82558998D01*
X147215026Y-82645724D01*
X147144454Y-82777754D01*
X147141138Y-82788687D01*
X147100998Y-82921014D01*
X147095732Y-82974482D01*
X147086324Y-83070000D01*
X147090001Y-83107332D01*
X147090000Y-84934556D01*
X147019463Y-85020506D01*
X146996872Y-85062770D01*
X146260750Y-85065000D01*
X146102000Y-85223750D01*
X145848000Y-85223750D01*
X145689250Y-85065000D01*
X144902855Y-85062618D01*
X144870656Y-85006145D01*
X144788691Y-84911658D01*
X144689868Y-84834977D01*
X144577985Y-84779048D01*
X144457339Y-84746021D01*
X144335750Y-84740000D01*
X144177000Y-84898750D01*
X144177000Y-85236928D01*
X143923000Y-85236928D01*
X143923000Y-84898750D01*
X143764250Y-84740000D01*
X143760000Y-84740210D01*
X143760000Y-81537322D01*
X143763676Y-81499999D01*
X143760000Y-81462676D01*
X143760000Y-81462667D01*
X143749003Y-81351014D01*
X143705546Y-81207753D01*
X143634974Y-81075724D01*
X143540001Y-80959999D01*
X143511003Y-80936201D01*
X142063804Y-79489003D01*
X142040001Y-79459999D01*
X141924276Y-79365026D01*
X141792247Y-79294454D01*
X141648986Y-79250997D01*
X141537333Y-79240000D01*
X141537322Y-79240000D01*
X141500000Y-79236324D01*
X141462678Y-79240000D01*
X135037322Y-79240000D01*
X134999999Y-79236324D01*
X134962676Y-79240000D01*
X134962667Y-79240000D01*
X134851014Y-79250997D01*
X134707753Y-79294454D01*
X134575723Y-79365026D01*
X134557479Y-79379999D01*
X134459999Y-79459999D01*
X134436201Y-79488997D01*
X133413271Y-80511928D01*
X132150000Y-80511928D01*
X132025518Y-80524188D01*
X131905820Y-80560498D01*
X131795506Y-80619463D01*
X131698815Y-80698815D01*
X131619463Y-80795506D01*
X131560498Y-80905820D01*
X131524188Y-81025518D01*
X131511928Y-81150000D01*
X129660000Y-81150000D01*
X129660000Y-78160000D01*
X154340001Y-78160000D01*
X154340000Y-96840000D01*
G37*
X154340000Y-96840000D02*
X129660000Y-96840000D01*
X129660000Y-92516890D01*
X131558524Y-92516890D01*
X131603175Y-92664099D01*
X131728359Y-92926920D01*
X131902412Y-93160269D01*
X132118645Y-93355178D01*
X132368748Y-93504157D01*
X132643109Y-93601481D01*
X132873000Y-93480814D01*
X132873000Y-92287000D01*
X133127000Y-92287000D01*
X133127000Y-93480814D01*
X133356891Y-93601481D01*
X133631252Y-93504157D01*
X133881355Y-93355178D01*
X134097588Y-93160269D01*
X134271641Y-92926920D01*
X134396825Y-92664099D01*
X134441476Y-92516890D01*
X134320155Y-92287000D01*
X133127000Y-92287000D01*
X132873000Y-92287000D01*
X131679845Y-92287000D01*
X131558524Y-92516890D01*
X129660000Y-92516890D01*
X129660000Y-81150000D01*
X131511928Y-81150000D01*
X131511928Y-82850000D01*
X131524188Y-82974482D01*
X131560498Y-83094180D01*
X131619463Y-83204494D01*
X131698815Y-83301185D01*
X131795506Y-83380537D01*
X131905820Y-83439502D01*
X131978380Y-83461513D01*
X131846525Y-83593368D01*
X131684010Y-83836589D01*
X131572068Y-84106842D01*
X131515000Y-84393740D01*
X131515000Y-84686260D01*
X131572068Y-84973158D01*
X131684010Y-85243411D01*
X131846525Y-85486632D01*
X132053368Y-85693475D01*
X132227760Y-85810000D01*
X132053368Y-85926525D01*
X131846525Y-86133368D01*
X131684010Y-86376589D01*
X131572068Y-86646842D01*
X131515000Y-86933740D01*
X131515000Y-87226260D01*
X131572068Y-87513158D01*
X131684010Y-87783411D01*
X131846525Y-88026632D01*
X132053368Y-88233475D01*
X132227760Y-88350000D01*
X132053368Y-88466525D01*
X131846525Y-88673368D01*
X131684010Y-88916589D01*
X131572068Y-89186842D01*
X131515000Y-89473740D01*
X131515000Y-89766260D01*
X131572068Y-90053158D01*
X131684010Y-90323411D01*
X131846525Y-90566632D01*
X132053368Y-90773475D01*
X132235534Y-90895195D01*
X132118645Y-90964822D01*
X131902412Y-91159731D01*
X131728359Y-91393080D01*
X131603175Y-91655901D01*
X131558524Y-91803110D01*
X131679845Y-92033000D01*
X132873000Y-92033000D01*
X132873000Y-92013000D01*
X133127000Y-92013000D01*
X133127000Y-92033000D01*
X134320155Y-92033000D01*
X134441476Y-91803110D01*
X134396825Y-91655901D01*
X134271641Y-91393080D01*
X134097588Y-91159731D01*
X133881355Y-90964822D01*
X133764466Y-90895195D01*
X133946632Y-90773475D01*
X134153475Y-90566632D01*
X134194656Y-90505000D01*
X139086531Y-90505000D01*
X139130000Y-90509281D01*
X139173469Y-90505000D01*
X139173477Y-90505000D01*
X139303490Y-90492195D01*
X139387677Y-90466657D01*
X139386928Y-90525000D01*
X139399188Y-90649482D01*
X139435498Y-90769180D01*
X139494463Y-90879494D01*
X139573815Y-90976185D01*
X139670506Y-91055537D01*
X139780820Y-91114502D01*
X139900518Y-91150812D01*
X140025000Y-91163072D01*
X140214250Y-91160000D01*
X140373000Y-91001250D01*
X140373000Y-90127000D01*
X140627000Y-90127000D01*
X140627000Y-91001250D01*
X140785750Y-91160000D01*
X140975000Y-91163072D01*
X141099482Y-91150812D01*
X141219180Y-91114502D01*
X141329494Y-91055537D01*
X141426185Y-90976185D01*
X141500000Y-90886241D01*
X141573815Y-90976185D01*
X141670506Y-91055537D01*
X141780820Y-91114502D01*
X141900518Y-91150812D01*
X142025000Y-91163072D01*
X142214250Y-91160000D01*
X142373000Y-91001250D01*
X142373000Y-90127000D01*
X142627000Y-90127000D01*
X142627000Y-91001250D01*
X142785750Y-91160000D01*
X142975000Y-91163072D01*
X143099482Y-91150812D01*
X143219180Y-91114502D01*
X143329494Y-91055537D01*
X143426185Y-90976185D01*
X143505537Y-90879494D01*
X143564502Y-90769180D01*
X143600812Y-90649482D01*
X143613072Y-90525000D01*
X143610000Y-90285750D01*
X143451250Y-90127000D01*
X142627000Y-90127000D01*
X142373000Y-90127000D01*
X141548750Y-90127000D01*
X141500000Y-90175750D01*
X141451250Y-90127000D01*
X140627000Y-90127000D01*
X140373000Y-90127000D01*
X140353000Y-90127000D01*
X140353000Y-89873000D01*
X140373000Y-89873000D01*
X140373000Y-89853000D01*
X140627000Y-89853000D01*
X140627000Y-89873000D01*
X141451250Y-89873000D01*
X141500000Y-89824250D01*
X141548750Y-89873000D01*
X142373000Y-89873000D01*
X142373000Y-89853000D01*
X142627000Y-89853000D01*
X142627000Y-89873000D01*
X143451250Y-89873000D01*
X143610000Y-89714250D01*
X143613072Y-89475000D01*
X143600812Y-89350518D01*
X143565085Y-89232743D01*
X143642661Y-89253979D01*
X143764250Y-89260000D01*
X143923000Y-89101250D01*
X143923000Y-88763072D01*
X144177000Y-88763072D01*
X144177000Y-89101250D01*
X144335750Y-89260000D01*
X144457339Y-89253979D01*
X144577985Y-89220952D01*
X144689868Y-89165023D01*
X144788691Y-89088342D01*
X144870656Y-88993855D01*
X144902855Y-88937382D01*
X145689250Y-88935000D01*
X145848000Y-88776250D01*
X145848000Y-87127000D01*
X145828000Y-87127000D01*
X145828000Y-86873000D01*
X145848000Y-86873000D01*
X145848000Y-85223750D01*
X146102000Y-85223750D01*
X146102000Y-86873000D01*
X146122000Y-86873000D01*
X146122000Y-87127000D01*
X146102000Y-87127000D01*
X146102000Y-88776250D01*
X146260750Y-88935000D01*
X146996872Y-88937230D01*
X147019463Y-88979494D01*
X147090001Y-89065445D01*
X147090000Y-91972677D01*
X147086324Y-92010000D01*
X147090000Y-92047322D01*
X147090000Y-92047332D01*
X147100997Y-92158985D01*
X147139829Y-92287000D01*
X147144454Y-92302246D01*
X147215026Y-92434276D01*
X147245176Y-92471013D01*
X147309999Y-92550001D01*
X147339003Y-92573804D01*
X149558790Y-94793592D01*
X149515000Y-95013740D01*
X149515000Y-95306260D01*
X149572068Y-95593158D01*
X149684010Y-95863411D01*
X149846525Y-96106632D01*
X150053368Y-96313475D01*
X150296589Y-96475990D01*
X150566842Y-96587932D01*
X150853740Y-96645000D01*
X151146260Y-96645000D01*
X151433158Y-96587932D01*
X151703411Y-96475990D01*
X151946632Y-96313475D01*
X152153475Y-96106632D01*
X152315990Y-95863411D01*
X152427932Y-95593158D01*
X152485000Y-95306260D01*
X152485000Y-95013740D01*
X152427932Y-94726842D01*
X152315990Y-94456589D01*
X152153475Y-94213368D01*
X151946632Y-94006525D01*
X151772240Y-93890000D01*
X151946632Y-93773475D01*
X152153475Y-93566632D01*
X152315990Y-93323411D01*
X152427932Y-93053158D01*
X152485000Y-92766260D01*
X152485000Y-92473740D01*
X152427932Y-92186842D01*
X152315990Y-91916589D01*
X152153475Y-91673368D01*
X151946632Y-91466525D01*
X151772240Y-91350000D01*
X151946632Y-91233475D01*
X152153475Y-91026632D01*
X152315990Y-90783411D01*
X152427932Y-90513158D01*
X152485000Y-90226260D01*
X152485000Y-89933740D01*
X152427932Y-89646842D01*
X152315990Y-89376589D01*
X152153475Y-89133368D01*
X151946632Y-88926525D01*
X151772240Y-88810000D01*
X151946632Y-88693475D01*
X152153475Y-88486632D01*
X152315990Y-88243411D01*
X152427932Y-87973158D01*
X152485000Y-87686260D01*
X152485000Y-87393740D01*
X152427932Y-87106842D01*
X152315990Y-86836589D01*
X152153475Y-86593368D01*
X151946632Y-86386525D01*
X151772240Y-86270000D01*
X151946632Y-86153475D01*
X152153475Y-85946632D01*
X152315990Y-85703411D01*
X152427932Y-85433158D01*
X152485000Y-85146260D01*
X152485000Y-84853740D01*
X152427932Y-84566842D01*
X152315990Y-84296589D01*
X152153475Y-84053368D01*
X151946632Y-83846525D01*
X151772240Y-83730000D01*
X151946632Y-83613475D01*
X152153475Y-83406632D01*
X152315990Y-83163411D01*
X152427932Y-82893158D01*
X152485000Y-82606260D01*
X152485000Y-82313740D01*
X152427932Y-82026842D01*
X152315990Y-81756589D01*
X152153475Y-81513368D01*
X152021620Y-81381513D01*
X152094180Y-81359502D01*
X152204494Y-81300537D01*
X152301185Y-81221185D01*
X152380537Y-81124494D01*
X152439502Y-81014180D01*
X152475812Y-80894482D01*
X152488072Y-80770000D01*
X152488072Y-79070000D01*
X152475812Y-78945518D01*
X152439502Y-78825820D01*
X152380537Y-78715506D01*
X152301185Y-78618815D01*
X152204494Y-78539463D01*
X152094180Y-78480498D01*
X151974482Y-78444188D01*
X151850000Y-78431928D01*
X150150000Y-78431928D01*
X150025518Y-78444188D01*
X149905820Y-78480498D01*
X149795506Y-78539463D01*
X149698815Y-78618815D01*
X149619463Y-78715506D01*
X149560498Y-78825820D01*
X149524188Y-78945518D01*
X149511928Y-79070000D01*
X149511928Y-80333270D01*
X147338998Y-82506201D01*
X147310000Y-82529999D01*
X147286202Y-82558997D01*
X147286201Y-82558998D01*
X147215026Y-82645724D01*
X147144454Y-82777754D01*
X147141138Y-82788687D01*
X147100998Y-82921014D01*
X147095732Y-82974482D01*
X147086324Y-83070000D01*
X147090001Y-83107332D01*
X147090000Y-84934556D01*
X147019463Y-85020506D01*
X146996872Y-85062770D01*
X146260750Y-85065000D01*
X146102000Y-85223750D01*
X145848000Y-85223750D01*
X145689250Y-85065000D01*
X144902855Y-85062618D01*
X144870656Y-85006145D01*
X144788691Y-84911658D01*
X144689868Y-84834977D01*
X144577985Y-84779048D01*
X144457339Y-84746021D01*
X144335750Y-84740000D01*
X144177000Y-84898750D01*
X144177000Y-85236928D01*
X143923000Y-85236928D01*
X143923000Y-84898750D01*
X143764250Y-84740000D01*
X143760000Y-84740210D01*
X143760000Y-81537322D01*
X143763676Y-81499999D01*
X143760000Y-81462676D01*
X143760000Y-81462667D01*
X143749003Y-81351014D01*
X143705546Y-81207753D01*
X143634974Y-81075724D01*
X143540001Y-80959999D01*
X143511003Y-80936201D01*
X142063804Y-79489003D01*
X142040001Y-79459999D01*
X141924276Y-79365026D01*
X141792247Y-79294454D01*
X141648986Y-79250997D01*
X141537333Y-79240000D01*
X141537322Y-79240000D01*
X141500000Y-79236324D01*
X141462678Y-79240000D01*
X135037322Y-79240000D01*
X134999999Y-79236324D01*
X134962676Y-79240000D01*
X134962667Y-79240000D01*
X134851014Y-79250997D01*
X134707753Y-79294454D01*
X134575723Y-79365026D01*
X134557479Y-79379999D01*
X134459999Y-79459999D01*
X134436201Y-79488997D01*
X133413271Y-80511928D01*
X132150000Y-80511928D01*
X132025518Y-80524188D01*
X131905820Y-80560498D01*
X131795506Y-80619463D01*
X131698815Y-80698815D01*
X131619463Y-80795506D01*
X131560498Y-80905820D01*
X131524188Y-81025518D01*
X131511928Y-81150000D01*
X129660000Y-81150000D01*
X129660000Y-78160000D01*
X154340001Y-78160000D01*
X154340000Y-96840000D01*
G36*
X137534488Y-85148942D02*
G01*
X137643377Y-85281623D01*
X137776058Y-85390512D01*
X137927433Y-85471423D01*
X138091684Y-85521248D01*
X138262500Y-85538072D01*
X138588271Y-85538072D01*
X140148367Y-87098169D01*
X140091684Y-87103752D01*
X139927433Y-87153577D01*
X139776058Y-87234488D01*
X139643377Y-87343377D01*
X139534488Y-87476058D01*
X139453577Y-87627433D01*
X139403752Y-87791684D01*
X139386928Y-87962500D01*
X139386928Y-88111493D01*
X138763422Y-88735000D01*
X134194656Y-88735000D01*
X134153475Y-88673368D01*
X133946632Y-88466525D01*
X133772240Y-88350000D01*
X133946632Y-88233475D01*
X134153475Y-88026632D01*
X134315990Y-87783411D01*
X134427932Y-87513158D01*
X134485000Y-87226260D01*
X134485000Y-86933740D01*
X134441209Y-86713592D01*
X136019802Y-85135000D01*
X137527036Y-85135000D01*
X137534488Y-85148942D01*
G37*
X137534488Y-85148942D02*
X137643377Y-85281623D01*
X137776058Y-85390512D01*
X137927433Y-85471423D01*
X138091684Y-85521248D01*
X138262500Y-85538072D01*
X138588271Y-85538072D01*
X140148367Y-87098169D01*
X140091684Y-87103752D01*
X139927433Y-87153577D01*
X139776058Y-87234488D01*
X139643377Y-87343377D01*
X139534488Y-87476058D01*
X139453577Y-87627433D01*
X139403752Y-87791684D01*
X139386928Y-87962500D01*
X139386928Y-88111493D01*
X138763422Y-88735000D01*
X134194656Y-88735000D01*
X134153475Y-88673368D01*
X133946632Y-88466525D01*
X133772240Y-88350000D01*
X133946632Y-88233475D01*
X134153475Y-88026632D01*
X134315990Y-87783411D01*
X134427932Y-87513158D01*
X134485000Y-87226260D01*
X134485000Y-86933740D01*
X134441209Y-86713592D01*
X136019802Y-85135000D01*
X137527036Y-85135000D01*
X137534488Y-85148942D01*
G36*
X142240001Y-81814803D02*
G01*
X142240000Y-85040199D01*
X141613072Y-84413271D01*
X141613072Y-84087500D01*
X141596248Y-83916684D01*
X141546423Y-83752433D01*
X141465512Y-83601058D01*
X141382575Y-83500000D01*
X141465512Y-83398942D01*
X141546423Y-83247567D01*
X141596248Y-83083316D01*
X141613072Y-82912500D01*
X141613072Y-82337500D01*
X141596248Y-82166684D01*
X141546423Y-82002433D01*
X141465512Y-81851058D01*
X141356623Y-81718377D01*
X141223942Y-81609488D01*
X141072567Y-81528577D01*
X140908316Y-81478752D01*
X140737500Y-81461928D01*
X140262500Y-81461928D01*
X140091684Y-81478752D01*
X139927433Y-81528577D01*
X139776058Y-81609488D01*
X139643377Y-81718377D01*
X139534488Y-81851058D01*
X139527036Y-81865000D01*
X139472964Y-81865000D01*
X139465512Y-81851058D01*
X139356623Y-81718377D01*
X139223942Y-81609488D01*
X139072567Y-81528577D01*
X138908316Y-81478752D01*
X138737500Y-81461928D01*
X138517795Y-81461928D01*
X137994446Y-80938579D01*
X137968291Y-80906709D01*
X137841146Y-80802364D01*
X137761889Y-80760000D01*
X141185199Y-80760000D01*
X142240001Y-81814803D01*
G37*
X142240001Y-81814803D02*
X142240000Y-85040199D01*
X141613072Y-84413271D01*
X141613072Y-84087500D01*
X141596248Y-83916684D01*
X141546423Y-83752433D01*
X141465512Y-83601058D01*
X141382575Y-83500000D01*
X141465512Y-83398942D01*
X141546423Y-83247567D01*
X141596248Y-83083316D01*
X141613072Y-82912500D01*
X141613072Y-82337500D01*
X141596248Y-82166684D01*
X141546423Y-82002433D01*
X141465512Y-81851058D01*
X141356623Y-81718377D01*
X141223942Y-81609488D01*
X141072567Y-81528577D01*
X140908316Y-81478752D01*
X140737500Y-81461928D01*
X140262500Y-81461928D01*
X140091684Y-81478752D01*
X139927433Y-81528577D01*
X139776058Y-81609488D01*
X139643377Y-81718377D01*
X139534488Y-81851058D01*
X139527036Y-81865000D01*
X139472964Y-81865000D01*
X139465512Y-81851058D01*
X139356623Y-81718377D01*
X139223942Y-81609488D01*
X139072567Y-81528577D01*
X138908316Y-81478752D01*
X138737500Y-81461928D01*
X138517795Y-81461928D01*
X137994446Y-80938579D01*
X137968291Y-80906709D01*
X137841146Y-80802364D01*
X137761889Y-80760000D01*
X141185199Y-80760000D01*
X142240001Y-81814803D01*
G36*
X136196063Y-80840226D02*
G01*
X136082795Y-81009744D01*
X136004774Y-81198102D01*
X135965000Y-81398061D01*
X135965000Y-81601939D01*
X136004774Y-81801898D01*
X136082795Y-81990256D01*
X136196063Y-82159774D01*
X136340226Y-82303937D01*
X136509744Y-82417205D01*
X136698102Y-82495226D01*
X136898061Y-82535000D01*
X137101939Y-82535000D01*
X137208030Y-82513897D01*
X137386928Y-82692796D01*
X137386928Y-82764990D01*
X134488072Y-82764990D01*
X134488072Y-81586729D01*
X135314802Y-80760000D01*
X136276289Y-80760000D01*
X136196063Y-80840226D01*
G37*
X136196063Y-80840226D02*
X136082795Y-81009744D01*
X136004774Y-81198102D01*
X135965000Y-81398061D01*
X135965000Y-81601939D01*
X136004774Y-81801898D01*
X136082795Y-81990256D01*
X136196063Y-82159774D01*
X136340226Y-82303937D01*
X136509744Y-82417205D01*
X136698102Y-82495226D01*
X136898061Y-82535000D01*
X137101939Y-82535000D01*
X137208030Y-82513897D01*
X137386928Y-82692796D01*
X137386928Y-82764990D01*
X134488072Y-82764990D01*
X134488072Y-81586729D01*
X135314802Y-80760000D01*
X136276289Y-80760000D01*
X136196063Y-80840226D01*
M02*
